<?xml version="1.0" encoding="UTF-8"?>
<svg width="230px" height="150px" viewBox="0 0 230 150" version="1.1" xmlns="http://www.w3.org/2000/svg" xmlns:xlink="http://www.w3.org/1999/xlink">
    <!-- Generator: Sketch 52.5 (67469) - http://www.bohemiancoding.com/sketch -->
    <title>Desktop</title>
    <desc>Created with Sketch.</desc>
    <g id="Desktop" stroke="none" stroke-width="1" fill="none" fill-rule="evenodd">
        <g id="Group-2" transform="translate(-2.000000, 10.000000)">
            <g id="legRight_FL_FL_FL_FL_FL_FL_FL_FL_FL_FL_FL_FL_FL_FL_FL_FL_FL_FL_FL" transform="translate(87.500000, 128.500000) scale(-1, 1) translate(-87.500000, -128.500000) translate(77.000000, 117.000000)">
                <g id="Group">
                    <g id="Symbol_11_0_Layer0_0_FILL-link">
                        <g id="Symbol_11_0_Layer0_0_FILL">
                            <path d="M20,13.3 L19.45,7.4 C19.2259115,5.22604167 18.3592448,3.42604167 16.85,2 C15.4023438,0.666666667 13.7190104,0 11.8,0 L11.75,0 C9.821875,0 8.15520833,0.666666667 6.75,2 C5.28242188,3.42604167 4.46575521,5.22604167 4.3,7.4 L3.9,13.3 L20,13.3 Z" id="Path" fill="#B8824D"></path>
                            <polygon id="Path" fill="#9F7042" points="20.4 17 20 13.3 3.9 13.3 3.65 16.95 3.65 17 20.35 17"></polygon>
                            <path d="M20.95,23 L20.35,17 L3.65,17 L3.65,16.95 C2.47565104,17.6557292 1.34231771,18.7723958 0.25,20.3 L0,23 L20.95,23 Z" id="Path" fill="#D4D0C9"></path>
                        </g>
                    </g>
                </g>
            </g>
            <g id="head_FL_FL_FL_FL_FL_FL_FL_FL_FL" transform="translate(0.400000, 2.250000)">
                <g id="Group" transform="translate(2.000000, 0.000000)" fill="#9F7042">
                    <g id="Symbol_12_0_Layer0_0_FILL-link">
                        <g id="Symbol_12_0_Layer0_0_FILL">
                            <path d="M15.9,15.65 C17.6333333,13.9166667 18.5,11.8166667 18.5,9.35 C18.5,6.88333333 17.6333333,4.78333333 15.9,3.05 C14.1666667,1.31666667 12.0666667,0.45 9.6,0.45 C7.13333333,0.45 5.03333333,1.31666667 3.3,3.05 C1.56666667,4.78333333 0.7,6.88333333 0.7,9.35 C0.7,11.8166667 1.56666667,13.9166667 3.3,15.65 C5.03333333,17.3833333 7.13333333,18.25 9.6,18.25 C12.0666667,18.25 14.1666667,17.3833333 15.9,15.65 Z" id="Path"></path>
                        </g>
                    </g>
                </g>
                <g id="Group" transform="translate(4.000000, 2.000000)">
                    <g id="Symbol_12_0_Layer0_1_FILL-link">
                        <g id="Symbol_12_0_Layer0_1_FILL">
                            <path d="M15.3,42.15 C17.2666667,43.45 19.65,44.1 22.45,44.1 C25.25,44.1 27.6333333,43.45 29.6,42.15 C30.7666667,41.3833333 31.5833333,40.5166667 32.05,39.55 L12.85,39.55 C13.3166667,40.5166667 14.1333333,41.3833333 15.3,42.15 Z" id="Path" fill="#D7BD93"></path>
                            <path d="M41.75,14.35 C41.3166667,11.3833333 39.5833333,8.5 36.55,5.7 C27.319401,-2.88020833 17.2360677,-1.48020833 6.3,9.9 C3.36666667,9.9 1.66666667,11.4166667 1.2,14.45 C0.572395833,18.7679688 0.272395833,22.4846354 0.3,25.6 C2.54869792,31.877474 6.73203125,36.527474 12.85,39.55 L32.05,39.55 C37.3141927,36.8630208 40.8141927,32.5296875 42.55,26.55 C42.6423177,22.5417969 42.375651,18.4751302 41.75,14.35 Z" id="Path" fill="#FFE0B1"></path>
                        </g>
                    </g>
                </g>
                <g id="Group" transform="translate(15.000000, 23.000000)" fill-rule="nonzero">
                    <g id="Symbol_12_0_Layer0_2_FILL-link">
                        <g id="Symbol_12_0_Layer0_2_FILL">
                            <path d="M3.2,1.9 C3.8,1.23333333 4.55,0.866666667 5.45,0.8 L0.1,0.6 L2.15,5.4 C2.11666667,5.13333333 2.1,4.86666667 2.1,4.6 C2.1,3.56666667 2.46666667,2.66666667 3.2,1.9 Z M22.25,0.8 C23.15,0.866666667 23.9,1.23333333 24.5,1.9 C25.2333333,2.66666667 25.6,3.56666667 25.6,4.6 C25.6,4.86666667 25.5833333,5.13333333 25.55,5.4 L27.6,0.6 L22.25,0.8 Z" id="Shape" fill="#BFA984"></path>
                            <path d="M5.75,0.8 C5.65,0.8 5.55,0.8 5.45,0.8 C4.55,0.866666667 3.8,1.23333333 3.2,1.9 C2.46666667,2.66666667 2.1,3.56666667 2.1,4.6 C2.1,4.86666667 2.11666667,5.13333333 2.15,5.4 C2.31666667,6.1 2.66666667,6.71666667 3.2,7.25 C3.86666667,8.01666667 4.71666667,8.4 5.75,8.4 C6.78333333,8.4 7.66666667,8.01666667 8.4,7.25 C9.06666667,6.51666667 9.4,5.63333333 9.4,4.6 C9.4,3.56666667 9.06666667,2.66666667 8.4,1.9 C7.66666667,1.16666667 6.78333333,0.8 5.75,0.8 Z M4.6,4.5 C4.63333333,3.9 4.85,3.38333333 5.25,2.95 C5.65,2.51666667 6.15,2.3 6.75,2.3 C7.35,2.3 7.86666667,2.51666667 8.3,2.95 C8.66666667,3.38333333 8.86666667,3.9 8.9,4.5 L8.9,4.75 C8.86666667,5.31666667 8.66666667,5.8 8.3,6.2 C7.86666667,6.66666667 7.35,6.9 6.75,6.9 C6.15,6.9 5.65,6.66666667 5.25,6.2 C4.85,5.8 4.63333333,5.31666667 4.6,4.75 L4.6,4.5 Z M24.5,1.9 C23.9,1.23333333 23.15,0.866666667 22.25,0.8 C22.15,0.8 22.05,0.8 21.95,0.8 C20.9166667,0.8 20.0333333,1.16666667 19.3,1.9 C18.6333333,2.66666667 18.3,3.56666667 18.3,4.6 C18.3,5.63333333 18.6333333,6.51666667 19.3,7.25 C20.0333333,8.01666667 20.9166667,8.4 21.95,8.4 C22.9833333,8.4 23.8333333,8.01666667 24.5,7.25 C25.0333333,6.71666667 25.3833333,6.1 25.55,5.4 C25.5833333,5.13333333 25.6,4.86666667 25.6,4.6 C25.6,3.56666667 25.2333333,2.66666667 24.5,1.9 Z M23.1,4.5 L23.1,4.75 C23.0666667,5.31666667 22.85,5.8 22.45,6.2 C22.05,6.66666667 21.55,6.9 20.95,6.9 C20.35,6.9 19.8333333,6.66666667 19.4,6.2 C19.0333333,5.8 18.8333333,5.31666667 18.8,4.75 L18.8,4.5 C18.8333333,3.9 19.0333333,3.38333333 19.4,2.95 C19.8333333,2.51666667 20.35,2.3 20.95,2.3 C21.55,2.3 22.05,2.51666667 22.45,2.95 C22.85,3.38333333 23.0666667,3.9 23.1,4.5 Z" id="Shape" fill="#FFFFFF"></path>
                            <path d="M5.25,2.95 C4.85,3.38333333 4.63333333,3.9 4.6,4.5 L4.6,4.75 C4.63333333,5.31666667 4.85,5.8 5.25,6.2 C5.65,6.66666667 6.15,6.9 6.75,6.9 C7.35,6.9 7.86666667,6.66666667 8.3,6.2 C8.66666667,5.8 8.86666667,5.31666667 8.9,4.75 L8.9,4.5 C8.86666667,3.9 8.66666667,3.38333333 8.3,2.95 C7.86666667,2.51666667 7.35,2.3 6.75,2.3 C6.15,2.3 5.65,2.51666667 5.25,2.95 Z M23.1,4.75 L23.1,4.5 C23.0666667,3.9 22.85,3.38333333 22.45,2.95 C22.05,2.51666667 21.55,2.3 20.95,2.3 C20.35,2.3 19.8333333,2.51666667 19.4,2.95 C19.0333333,3.38333333 18.8333333,3.9 18.8,4.5 L18.8,4.75 C18.8333333,5.31666667 19.0333333,5.8 19.4,6.2 C19.8333333,6.66666667 20.35,6.9 20.95,6.9 C21.55,6.9 22.05,6.66666667 22.45,6.2 C22.85,5.8 23.0666667,5.31666667 23.1,4.75 Z" id="Shape" fill="#7F7058"></path>
                        </g>
                    </g>
                </g>
                <g id="Group" transform="translate(37.416148, 21.114012) rotate(-14.999166) translate(-37.416148, -21.114012) translate(32.916160, 19.114017)" fill="#B8824D">
                    <g id="Symbol_12_0_Layer0_2_MEMBER_0_FILL-link">
                        <g id="Symbol_12_0_Layer0_2_MEMBER_0_FILL">
                            <path d="M6.19998415,3.34999143 C7.19998159,3.54999092 8.04997941,3.76665703 8.74997762,3.99998977 C7.08331522,2.16666113 4.88332085,1.01666407 2.1499945,0.549998594 C1.81666202,0.483332097 1.56666266,0.516665345 1.39999642,0.649998338 C1.16666368,0.78333133 1.01666407,0.999997443 0.949997571,1.29999668 C0.916664323,1.56666266 0.966664195,1.83332865 1.09999719,2.09999463 C1.23333018,2.26666087 2.93332583,2.68332647 6.19998415,3.34999143 Z" id="Path"></path>
                        </g>
                    </g>
                </g>
                <g id="Group" transform="translate(21.522292, 21.092107) rotate(14.999166) translate(-21.522292, -21.092107) translate(17.022303, 19.092112)" fill="#B8824D">
                    <g id="Symbol_12_0_Layer0_2_MEMBER_1_FILL-link">
                        <g id="Symbol_12_0_Layer0_2_MEMBER_1_FILL">
                            <path d="M0.249999361,3.54999092 C0.949997571,3.41665793 1.81666202,3.31665819 2.84999271,3.24999169 C6.14998427,2.91665921 7.86664655,2.66665985 7.99997954,2.49999361 C8.19997903,2.26666087 8.28331215,2.01666151 8.2499789,1.74999552 C8.21664566,1.41666304 8.09997929,1.19999693 7.8999798,1.09999719 C7.69998031,0.899997699 7.46664757,0.816664578 7.19998159,0.849997826 C4.39998875,1.01666407 2.08332801,1.91666177 0.249999361,3.54999092 Z" id="Path"></path>
                        </g>
                    </g>
                </g>
                <g id="Group" transform="translate(14.000000, 31.000000)" fill="#FFFFFF" fill-opacity="0.301960784">
                    <g id="Symbol_12_0_Layer0_2_MEMBER_2_FILL-link">
                        <g id="Symbol_12_0_Layer0_2_MEMBER_2_FILL">
                            <path d="M4.3,3.9 C4.83333333,3.46666667 5.1,2.96666667 5.1,2.4 C5.1,1.76666667 4.83333333,1.23333333 4.3,0.8 C3.83333333,0.4 3.26666667,0.2 2.6,0.2 C1.9,0.2 1.3,0.4 0.8,0.8 C0.333333333,1.23333333 0.1,1.76666667 0.1,2.4 C0.1,2.96666667 0.333333333,3.46666667 0.8,3.9 C1.3,4.33333333 1.9,4.55 2.6,4.55 C3.26666667,4.55 3.83333333,4.33333333 4.3,3.9 Z" id="Path"></path>
                        </g>
                    </g>
                </g>
                <g id="Group" transform="translate(38.000000, 31.000000)" fill="#FFFFFF" fill-opacity="0.301960784">
                    <g id="Symbol_12_0_Layer0_2_MEMBER_3_FILL-link">
                        <g id="Symbol_12_0_Layer0_2_MEMBER_3_FILL">
                            <path d="M4.85,3.9 C5.38333333,3.46666667 5.65,2.96666667 5.65,2.4 C5.65,1.76666667 5.38333333,1.23333333 4.85,0.8 C4.38333333,0.4 3.81666667,0.2 3.15,0.2 C2.45,0.2 1.85,0.4 1.35,0.8 C0.883333333,1.23333333 0.65,1.76666667 0.65,2.4 C0.65,2.96666667 0.883333333,3.46666667 1.35,3.9 C1.85,4.33333333 2.45,4.55 3.15,4.55 C3.81666667,4.55 4.38333333,4.33333333 4.85,3.9 Z" id="Path"></path>
                        </g>
                    </g>
                </g>
                <g id="Group" transform="translate(24.800000, 32.950000)">
                    <g id="Symbol_12_0_Layer0_2_MEMBER_4_FILL-link">
                        <g id="Symbol_12_0_Layer0_2_MEMBER_4_FILL">
                            <path d="M0.25,0.75 C0.216666667,0.783333333 0.183333333,0.85 0.15,0.95 C0.0833333333,1.05 0.0833333333,1.18333333 0.15,1.35 C0.183333333,1.58333333 0.266666667,1.8 0.4,2 C0.466666667,2.2 0.566666667,2.36666667 0.7,2.5 L5.5,2.5 L5.5,0.45 L0.8,0.45 C0.666666667,0.45 0.533333333,0.5 0.4,0.6 C0.333333333,0.633333333 0.283333333,0.683333333 0.25,0.75 Z" id="Path" fill="#FFFFFF"></path>
                            <path d="M8.15,1.35 C8.18333333,1.18333333 8.16666667,1.05 8.1,0.95 C8.1,0.916666667 8.1,0.883333333 8.1,0.85 C8.06666667,0.816666667 8.03333333,0.783333333 8,0.75 C7.96666667,0.683333333 7.93333333,0.65 7.9,0.65 L7.85,0.6 C7.71666667,0.5 7.58333333,0.45 7.45,0.45 L5.5,0.45 L5.5,2.5 L0.7,2.5 C0.833333333,2.73333333 1,2.95 1.2,3.15 C1.96666667,3.91666667 2.86666667,4.31666667 3.9,4.35 L4.3,4.35 C5.36666667,4.31666667 6.26666667,3.91666667 7,3.15 L7.05,3.15 C7.38333333,2.78333333 7.65,2.4 7.85,2 C7.98333333,1.8 8.08333333,1.58333333 8.15,1.35 Z" id="Path" fill="#7F7058"></path>
                        </g>
                    </g>
                </g>
                <g id="Group">
                    <g id="Symbol_12_0_Layer0_3_FILL-link">
                        <g id="Symbol_12_0_Layer0_3_FILL">
                            <path d="M33.95,1.55 C31.7833333,0.95 29.95,0.85 28.45,1.25 C26.4166667,0.65 24.4,0.4 22.4,0.5 C22.2333333,0.466666667 22.0666667,0.45 21.9,0.45 C21.5333333,0.45 21.2166667,0.483333333 20.95,0.55 C19.6166667,0.716666667 18.3666667,1.01666667 17.2,1.45 C12,3.18333333 7.86666667,6.8 4.8,12.3 C3.56666667,14.3333333 2.66666667,16.4666667 2.1,18.7 C1.46666667,20.7333333 1.08333333,22.85 0.95,25.05 C0.95,25.2833333 0.95,25.5666667 0.95,25.9 C1.05,24 1.4,22.15 2,20.35 C2.6,18.15 3.51666667,16 4.75,13.9 C8.55,7.16666667 13.95,3.23333333 20.95,2.1 C21.3166667,2.03333333 21.6833333,2.01666667 22.05,2.05 C24.15,1.98333333 26.2833333,2.25 28.45,2.85 C29.9166667,2.38333333 31.7666667,2.46666667 34,3.1 C41.3666667,5.1 45.8333333,10.1833333 47.4,18.35 C47.4666667,19.35 47.5833333,20.3833333 47.75,21.45 C47.7166667,20.8833333 47.6833333,20.35 47.65,19.85 C47.55,18.7166667 47.4166667,17.6333333 47.25,16.6 C45.75,8.53333333 41.3166667,3.51666667 33.95,1.55 Z" id="Path" fill="#C68C53"></path>
                            <path d="M28.95,13.15 C28.6166667,13.9166667 28.3,14.6833333 28,15.45 L41.95,19.6 C44.5251302,20.503125 45.3751302,22.7864583 44.5,26.45 C43.7003906,30.0815104 44.0503906,33.7981771 45.55,37.6 C46.8096354,36.8630208 47.3929688,34.4296875 47.3,30.3 L47.8,22.05 C47.7666667,21.85 47.75,21.65 47.75,21.45 C47.5833333,20.3833333 47.4666667,19.35 47.4,18.35 C45.8333333,10.1833333 41.3666667,5.1 34,3.1 C31.7666667,2.46666667 29.9166667,2.38333333 28.45,2.85 C26.2833333,2.25 24.15,1.98333333 22.05,2.05 C21.6833333,2.01666667 21.3166667,2.03333333 20.95,2.1 C13.95,3.23333333 8.55,7.16666667 4.75,13.9 C3.51666667,16 2.6,18.15 2,20.35 C1.4,22.15 1.05,24 0.95,25.9 C0.95,26.0333333 0.95,26.2 0.95,26.4 C1.37669271,35.840625 4.72669271,40.9572917 11,41.75 C10.3079427,34.9658854 11.991276,30.6825521 16.05,28.9 L14.05,20.95 C19.6833333,19.75 24.9166667,16.25 29.75,10.45 C29.75,10.3833333 29.7833333,10.35 29.85,10.35 C29.5166667,11.2833333 29.2166667,12.2166667 28.95,13.15 Z" id="Path" fill="#B8824D"></path>
                            <path d="M28,15.45 C28.3,14.6833333 28.6166667,13.9166667 28.95,13.15 C29.2166667,12.2166667 29.5166667,11.2833333 29.85,10.35 C29.7833333,10.35 29.75,10.3833333 29.75,10.45 C24.9166667,16.25 19.6833333,19.75 14.05,20.95 L16.05,28.9 L16.05,29 C21.0833333,26.6333333 25.0666667,22.1166667 28,15.45 Z" id="Path" fill="#AD7A48"></path>
                        </g>
                    </g>
                </g>
            </g>
            <g id="handRight_FL_FL_FL_FL_FL_FL_FL_FL_FL_FL_FL_FL_FL_FL_FL_FL_FL_FL_FL_FL_FL" transform="translate(122.500000, 131.000000) scale(-1, 1) translate(-122.500000, -131.000000) translate(114.000000, 123.000000)" fill-rule="nonzero">
                <g id="Group">
                    <g id="Symbol_9_0_Layer0_0_FILL-link">
                        <g id="Symbol_9_0_Layer0_0_FILL">
                            <path d="M15.1,7.95 L15.1,7.9 C17.1666667,5 15.6833333,2.36666667 10.65,0 C12.2833333,1.46666667 13.7,3.85 14.9,7.15 L15.1,7.95 Z M1.85,6 C1.91666667,6.3 2.38333333,6.41666667 3.25,6.35 C4.08333333,6.28333333 5.06666667,6.05 6.2,5.65 C7.36666667,5.25 8.31666667,4.8 9.05,4.3 C9.78333333,3.83333333 10.1166667,3.45 10.05,3.15 C10.0166667,2.88333333 9.56666667,2.78333333 8.7,2.85 C7.9,2.95 6.91666667,3.18333333 5.75,3.55 C4.61666667,3.95 3.68333333,4.38333333 2.95,4.85 C2.18333333,5.31666667 1.81666667,5.7 1.85,6 Z" id="Shape" fill="#E7CBA0"></path>
                            <path d="M15.1,7.9 L15.1,7.95 L14.9,7.15 C13.7,3.85 12.2833333,1.46666667 10.65,0 L1,2.55 C0.2,2.75 -0.116666667,3.21666667 0.05,3.95 L0.2,4.5 C2,12.5666667 5.2,16 9.8,14.8 C11.4333333,14.4 13.05,13.7833333 14.65,12.95 C15.7166667,12.4166667 16.15,11.75 15.95,10.95 L15.9,10.7 C15.6333333,9.73333333 15.3666667,8.8 15.1,7.9 Z M3.25,6.35 C2.38333333,6.41666667 1.91666667,6.3 1.85,6 C1.81666667,5.7 2.18333333,5.31666667 2.95,4.85 C3.68333333,4.38333333 4.61666667,3.95 5.75,3.55 C6.91666667,3.18333333 7.9,2.95 8.7,2.85 C9.56666667,2.78333333 10.0166667,2.88333333 10.05,3.15 C10.1166667,3.45 9.78333333,3.83333333 9.05,4.3 C8.31666667,4.8 7.36666667,5.25 6.2,5.65 C5.06666667,6.05 4.08333333,6.28333333 3.25,6.35 Z" id="Shape" fill="#FFE0B1"></path>
                        </g>
                    </g>
                </g>
            </g>
            <g id="Group" transform="translate(59.600000, 2.650000)">
                <g transform="translate(4.000000, 3.000000)" id="Symbol_16_0_Layer0_0_FILL-link">
                    <g>
                        <g id="Symbol_16_0_Layer0_0_FILL">
                            <path d="M29.6,42.15 C30.7666667,41.3833333 31.5833333,40.5166667 32.05,39.55 L12.85,39.55 C13.3166667,40.5166667 14.1333333,41.3833333 15.3,42.15 C17.2666667,43.45 19.65,44.1 22.45,44.1 C25.25,44.1 27.6333333,43.45 29.6,42.15 Z" id="Path" fill="#D7BD93"></path>
                            <path d="M41.75,14.35 C41.3166667,11.3833333 39.5833333,8.5 36.55,5.7 C27.319401,-2.88020833 17.2360677,-1.48020833 6.3,9.9 C3.36666667,9.9 1.66666667,11.4166667 1.2,14.45 C0.572395833,18.7679688 0.272395833,22.4846354 0.3,25.6 C2.54869792,31.877474 6.73203125,36.527474 12.85,39.55 L32.05,39.55 C37.3141927,36.8630208 40.8141927,32.5296875 42.55,26.55 C42.6423177,22.5417969 42.375651,18.4751302 41.75,14.35 Z" id="Path" fill="#FFE0B1"></path>
                        </g>
                    </g>
                </g>
                <g transform="translate(2.250000, 0.900000)" fill="#9F7042" id="Symbol_16_0_Layer0_1_FILL-link">
                    <g>
                        <g id="Symbol_16_0_Layer0_1_FILL">
                            <path d="M18.25,9.45 C18.25,6.98333333 17.3833333,4.88333333 15.65,3.15 C13.9166667,1.41666667 11.8166667,0.55 9.35,0.55 C6.88333333,0.55 4.78333333,1.41666667 3.05,3.15 C1.31666667,4.88333333 0.45,6.98333333 0.45,9.45 C0.45,11.9166667 1.31666667,14.0166667 3.05,15.75 C4.78333333,17.4833333 6.88333333,18.35 9.35,18.35 C11.8166667,18.35 13.9166667,17.4833333 15.65,15.75 C17.3833333,14.0166667 18.25,11.9166667 18.25,9.45 Z" id="Path"></path>
                        </g>
                    </g>
                </g>
                <g transform="translate(15.000000, 24.000000)" fill-rule="nonzero" id="Symbol_16_0_Layer0_2_FILL-link">
                    <g>
                        <g id="Symbol_16_0_Layer0_2_FILL">
                            <path d="M3.2,1.9 C3.8,1.23333333 4.55,0.866666667 5.45,0.8 L0.1,0.6 L2.15,5.4 C2.11666667,5.13333333 2.1,4.86666667 2.1,4.6 C2.1,3.56666667 2.46666667,2.66666667 3.2,1.9 Z M22.25,0.8 C23.15,0.866666667 23.9,1.23333333 24.5,1.9 C25.2333333,2.66666667 25.6,3.56666667 25.6,4.6 C25.6,4.86666667 25.5833333,5.13333333 25.55,5.4 L27.6,0.6 L22.25,0.8 Z" id="Shape" fill="#BFA984"></path>
                            <path d="M5.75,0.8 C5.65,0.8 5.55,0.8 5.45,0.8 C4.55,0.866666667 3.8,1.23333333 3.2,1.9 C2.46666667,2.66666667 2.1,3.56666667 2.1,4.6 C2.1,4.86666667 2.11666667,5.13333333 2.15,5.4 C2.31666667,6.1 2.66666667,6.71666667 3.2,7.25 C3.86666667,8.01666667 4.71666667,8.4 5.75,8.4 C6.78333333,8.4 7.66666667,8.01666667 8.4,7.25 C9.06666667,6.51666667 9.4,5.63333333 9.4,4.6 C9.4,3.56666667 9.06666667,2.66666667 8.4,1.9 C7.66666667,1.16666667 6.78333333,0.8 5.75,0.8 Z M4.6,4.75 L4.6,4.5 C4.63333333,3.9 4.85,3.38333333 5.25,2.95 C5.65,2.51666667 6.15,2.3 6.75,2.3 C7.35,2.3 7.86666667,2.51666667 8.3,2.95 C8.66666667,3.38333333 8.86666667,3.9 8.9,4.5 L8.9,4.75 C8.86666667,5.31666667 8.66666667,5.8 8.3,6.2 C7.86666667,6.66666667 7.35,6.9 6.75,6.9 C6.15,6.9 5.65,6.66666667 5.25,6.2 C4.85,5.8 4.63333333,5.31666667 4.6,4.75 Z M24.5,1.9 C23.9,1.23333333 23.15,0.866666667 22.25,0.8 C22.15,0.8 22.05,0.8 21.95,0.8 C20.9166667,0.8 20.0333333,1.16666667 19.3,1.9 C18.6333333,2.66666667 18.3,3.56666667 18.3,4.6 C18.3,5.63333333 18.6333333,6.51666667 19.3,7.25 C20.0333333,8.01666667 20.9166667,8.4 21.95,8.4 C22.9833333,8.4 23.8333333,8.01666667 24.5,7.25 C25.0333333,6.71666667 25.3833333,6.1 25.55,5.4 C25.5833333,5.13333333 25.6,4.86666667 25.6,4.6 C25.6,3.56666667 25.2333333,2.66666667 24.5,1.9 Z M23.1,4.5 L23.1,4.75 C23.0666667,5.31666667 22.85,5.8 22.45,6.2 C22.05,6.66666667 21.55,6.9 20.95,6.9 C20.35,6.9 19.8333333,6.66666667 19.4,6.2 C19.0333333,5.8 18.8333333,5.31666667 18.8,4.75 L18.8,4.5 C18.8333333,3.9 19.0333333,3.38333333 19.4,2.95 C19.8333333,2.51666667 20.35,2.3 20.95,2.3 C21.55,2.3 22.05,2.51666667 22.45,2.95 C22.85,3.38333333 23.0666667,3.9 23.1,4.5 Z" id="Shape" fill="#FFFFFF"></path>
                            <path d="M4.6,4.5 L4.6,4.75 C4.63333333,5.31666667 4.85,5.8 5.25,6.2 C5.65,6.66666667 6.15,6.9 6.75,6.9 C7.35,6.9 7.86666667,6.66666667 8.3,6.2 C8.66666667,5.8 8.86666667,5.31666667 8.9,4.75 L8.9,4.5 C8.86666667,3.9 8.66666667,3.38333333 8.3,2.95 C7.86666667,2.51666667 7.35,2.3 6.75,2.3 C6.15,2.3 5.65,2.51666667 5.25,2.95 C4.85,3.38333333 4.63333333,3.9 4.6,4.5 Z M23.1,4.75 L23.1,4.5 C23.0666667,3.9 22.85,3.38333333 22.45,2.95 C22.05,2.51666667 21.55,2.3 20.95,2.3 C20.35,2.3 19.8333333,2.51666667 19.4,2.95 C19.0333333,3.38333333 18.8333333,3.9 18.8,4.5 L18.8,4.75 C18.8333333,5.31666667 19.0333333,5.8 19.4,6.2 C19.8333333,6.66666667 20.35,6.9 20.95,6.9 C21.55,6.9 22.05,6.66666667 22.45,6.2 C22.85,5.8 23.0666667,5.31666667 23.1,4.75 Z" id="Shape" fill="#7F7058"></path>
                        </g>
                    </g>
                </g>
                <g transform="translate(37.950328, 22.528493) rotate(20.970976) translate(-37.950328, -22.528493) translate(32.950329, 21.028493)" fill="#B8824D" id="Symbol_16_0_Layer0_2_MEMBER_0_FILL-link">
                    <g>
                        <g id="Symbol_16_0_Layer0_2_MEMBER_0_FILL">
                            <path d="M9.04999763,1.49999961 C6.88333153,0.399999895 4.41666551,0.116666636 1.64999957,0.64999983 C1.34999965,0.683333155 1.13333304,0.816666453 0.999999739,1.04999973 C0.833333115,1.24999967 0.783333129,1.49999961 0.849999778,1.79999953 C0.883333102,2.06666613 1.0166664,2.28333274 1.24999967,2.44999936 C1.44999962,2.58333266 3.1833325,2.38333271 6.44999831,1.84999952 C7.44999805,1.64999957 8.31666449,1.53333293 9.04999763,1.49999961 Z" id="Path"></path>
                        </g>
                    </g>
                </g>
                <g transform="translate(21.490717, 21.437845) rotate(-14.999166) translate(-21.490717, -21.437845) translate(16.990728, 19.937849)" fill="#B8824D" id="Symbol_16_0_Layer0_2_MEMBER_1_FILL-link">
                    <g>
                        <g id="Symbol_16_0_Layer0_2_MEMBER_1_FILL">
                            <path d="M0.0999997443,1.49999616 C0.833331202,1.53332941 1.69999565,1.64999578 2.6999931,1.84999527 C5.96665141,2.38332724 7.69998031,2.58332673 7.8999798,2.44999373 C8.13331253,2.28332749 8.26664553,2.06666138 8.29997878,1.7999954 C8.36664527,1.49999616 8.3166454,1.2499968 8.14997916,1.04999731 C8.01664617,0.816664578 7.79998005,0.683331586 7.49998082,0.649998338 C4.73332123,0.116666368 2.26666087,0.399998977 0.0999997443,1.49999616 Z" id="Path"></path>
                        </g>
                    </g>
                </g>
                <g transform="translate(23.941455, 33.965820)" id="Symbol_16_0_Layer0_2_MEMBER_2_FILL-link">
                    <g>
                        <g id="Symbol_16_0_Layer0_2_MEMBER_2_FILL">
                            <path d="M5.90426941,0.639315796 C5.45298767,0.48888855 4.96409912,0.413674927 4.43760376,0.413674927 C3.20911458,0.413674927 2.14358826,0.864956665 1.24102478,1.76752014 C1.01538391,1.9680898 0.827349854,2.19373067 0.676922607,2.44444275 L5.94187622,2.44444275 L5.90426941,0.639315796 Z" id="Path" fill="#FFFFFF"></path>
                            <path d="M7.63418274,1.76752014 L7.59657593,1.72991333 C7.09515177,1.22848918 6.5310496,0.864956665 5.90426941,0.639315796 L5.94187622,2.44444275 L0.676922607,2.44444275 C0.551566569,2.6199412 0.438746134,2.80797526 0.338461304,3.00854492 C0.213105265,3.23418579 0.125356038,3.47236226 0.075213623,3.72307434 C0.0250712077,3.89857279 0.0250712077,4.04900004 0.075213623,4.17435608 C0.125356038,4.34985453 0.225640869,4.47521057 0.376068115,4.55042419 C0.501424154,4.65070903 0.639315796,4.70085144 0.789743042,4.70085144 L8.08546448,4.70085144 C8.23589172,4.70085144 8.38631897,4.65070903 8.53674622,4.55042419 C8.66210225,4.47521057 8.74985148,4.34985453 8.7999939,4.17435608 C8.85013631,4.04900004 8.86267192,3.89857279 8.83760071,3.72307434 C8.76238708,3.47236226 8.66210225,3.23418579 8.53674622,3.00854492 C8.31110535,2.55726318 8.01025085,2.14358826 7.63418274,1.76752014 Z" id="Path" fill="#7F7058"></path>
                        </g>
                    </g>
                </g>
                <g transform="translate(13.500000, 32.000000)" fill="#FFFFFF" fill-opacity="0.301960784" id="Symbol_16_0_Layer0_2_MEMBER_3_FILL-link">
                    <g>
                        <g id="Symbol_16_0_Layer0_2_MEMBER_3_FILL">
                            <path d="M1.3,0.8 C0.833333333,1.23333333 0.6,1.76666667 0.6,2.4 C0.6,2.96666667 0.833333333,3.46666667 1.3,3.9 C1.8,4.33333333 2.4,4.55 3.1,4.55 C3.76666667,4.55 4.33333333,4.33333333 4.8,3.9 C5.33333333,3.46666667 5.6,2.96666667 5.6,2.4 C5.6,1.76666667 5.33333333,1.23333333 4.8,0.8 C4.33333333,0.4 3.76666667,0.2 3.1,0.2 C2.4,0.2 1.8,0.4 1.3,0.8 Z" id="Path"></path>
                        </g>
                    </g>
                </g>
                <g transform="translate(38.000000, 32.000000)" fill="#FFFFFF" fill-opacity="0.301960784" id="Symbol_16_0_Layer0_2_MEMBER_4_FILL-link">
                    <g>
                        <g id="Symbol_16_0_Layer0_2_MEMBER_4_FILL">
                            <path d="M4.85,3.9 C5.38333333,3.46666667 5.65,2.96666667 5.65,2.4 C5.65,1.76666667 5.38333333,1.23333333 4.85,0.8 C4.38333333,0.4 3.81666667,0.2 3.15,0.2 C2.45,0.2 1.85,0.4 1.35,0.8 C0.883333333,1.23333333 0.65,1.76666667 0.65,2.4 C0.65,2.96666667 0.883333333,3.46666667 1.35,3.9 C1.85,4.33333333 2.45,4.55 3.15,4.55 C3.81666667,4.55 4.38333333,4.33333333 4.85,3.9 Z" id="Path"></path>
                        </g>
                    </g>
                </g>
                <g transform="translate(0.000000, 1.000000)" id="Symbol_16_0_Layer0_3_FILL-link">
                    <g>
                        <g id="Symbol_16_0_Layer0_3_FILL">
                            <path d="M28.95,13.15 C28.6166667,13.9166667 28.3,14.6833333 28,15.45 L41.95,19.6 C44.5251302,20.503125 45.3751302,22.7864583 44.5,26.45 C43.7003906,30.0815104 44.0503906,33.7981771 45.55,37.6 C46.8096354,36.8630208 47.3929688,34.4296875 47.3,30.3 L47.8,22.05 C47.7666667,21.85 47.75,21.65 47.75,21.45 C47.5833333,20.3833333 47.4666667,19.35 47.4,18.35 C45.8333333,10.1833333 41.3666667,5.1 34,3.1 C31.7666667,2.46666667 29.9166667,2.38333333 28.45,2.85 C26.2833333,2.25 24.15,1.98333333 22.05,2.05 C21.6833333,2.01666667 21.3166667,2.03333333 20.95,2.1 C13.95,3.23333333 8.55,7.16666667 4.75,13.9 C3.51666667,16 2.6,18.15 2,20.35 C1.4,22.15 1.05,24 0.95,25.9 C0.95,26.0333333 0.95,26.2 0.95,26.4 C1.37669271,35.840625 4.72669271,40.9572917 11,41.75 C10.3079427,34.9658854 11.991276,30.6825521 16.05,28.9 L14.05,20.95 C19.6833333,19.75 24.9166667,16.25 29.75,10.45 C29.75,10.3833333 29.7833333,10.35 29.85,10.35 C29.5166667,11.2833333 29.2166667,12.2166667 28.95,13.15 Z" id="Path" fill="#B8824D"></path>
                            <path d="M28,15.45 C28.3,14.6833333 28.6166667,13.9166667 28.95,13.15 C29.2166667,12.2166667 29.5166667,11.2833333 29.85,10.35 C29.7833333,10.35 29.75,10.3833333 29.75,10.45 C24.9166667,16.25 19.6833333,19.75 14.05,20.95 L16.05,28.9 L16.05,29 C21.0833333,26.6333333 25.0666667,22.1166667 28,15.45 Z" id="Path" fill="#AD7A48"></path>
                            <path d="M33.95,1.55 C31.7833333,0.95 29.95,0.85 28.45,1.25 C26.4166667,0.65 24.4,0.4 22.4,0.5 C22.2333333,0.466666667 22.0666667,0.45 21.9,0.45 C21.5333333,0.45 21.2166667,0.483333333 20.95,0.55 C19.6166667,0.716666667 18.3666667,1.01666667 17.2,1.45 C12,3.18333333 7.86666667,6.8 4.8,12.3 C3.56666667,14.3333333 2.66666667,16.4666667 2.1,18.7 C1.46666667,20.7333333 1.08333333,22.85 0.95,25.05 C0.95,25.2833333 0.95,25.5666667 0.95,25.9 C1.05,24 1.4,22.15 2,20.35 C2.6,18.15 3.51666667,16 4.75,13.9 C8.55,7.16666667 13.95,3.23333333 20.95,2.1 C21.3166667,2.03333333 21.6833333,2.01666667 22.05,2.05 C24.15,1.98333333 26.2833333,2.25 28.45,2.85 C29.9166667,2.38333333 31.7666667,2.46666667 34,3.1 C41.3666667,5.1 45.8333333,10.1833333 47.4,18.35 C47.4666667,19.35 47.5833333,20.3833333 47.75,21.45 C47.7166667,20.8833333 47.6833333,20.35 47.65,19.85 C47.55,18.7166667 47.4166667,17.6333333 47.25,16.6 C45.75,8.53333333 41.3166667,3.51666667 33.95,1.55 Z" id="Path" fill="#C68C53"></path>
                        </g>
                    </g>
                </g>
            </g>
            <g id="Group" transform="translate(119.600000, 3.700000)">
                <g transform="translate(4.000000, 2.000000)" id="Symbol_15_0_Layer0_0_FILL-link">
                    <g>
                        <g id="Symbol_15_0_Layer0_0_FILL">
                            <path d="M29.6,42.15 C30.7666667,41.3833333 31.5833333,40.5166667 32.05,39.55 L12.85,39.55 C13.3166667,40.5166667 14.1333333,41.3833333 15.3,42.15 C17.2666667,43.45 19.65,44.1 22.45,44.1 C25.25,44.1 27.6333333,43.45 29.6,42.15 Z" id="Path" fill="#D7BD93"></path>
                            <path d="M41.75,14.35 C41.3166667,11.3833333 39.5833333,8.5 36.55,5.7 C27.319401,-2.88020833 17.2360677,-1.48020833 6.3,9.9 C3.36666667,9.9 1.66666667,11.4166667 1.2,14.45 C0.572395833,18.7679688 0.272395833,22.4846354 0.3,25.6 C2.54869792,31.877474 6.73203125,36.527474 12.85,39.55 L32.05,39.55 C37.3141927,36.8630208 40.8141927,32.5296875 42.55,26.55 C42.6423177,22.5417969 42.375651,18.4751302 41.75,14.35 Z" id="Path" fill="#FFE0B1"></path>
                        </g>
                    </g>
                </g>
                <g transform="translate(2.000000, 0.000000)" fill="#9F7042" id="Symbol_15_0_Layer0_1_FILL-link">
                    <g>
                        <g id="Symbol_15_0_Layer0_1_FILL">
                            <path d="M15.9,15.65 C17.6333333,13.9166667 18.5,11.8166667 18.5,9.35 C18.5,6.88333333 17.6333333,4.78333333 15.9,3.05 C14.1666667,1.31666667 12.0666667,0.45 9.6,0.45 C7.13333333,0.45 5.03333333,1.31666667 3.3,3.05 C1.56666667,4.78333333 0.7,6.88333333 0.7,9.35 C0.7,11.8166667 1.56666667,13.9166667 3.3,15.65 C5.03333333,17.3833333 7.13333333,18.25 9.6,18.25 C12.0666667,18.25 14.1666667,17.3833333 15.9,15.65 Z" id="Path"></path>
                        </g>
                    </g>
                </g>
                <g transform="translate(15.000000, 23.000000)" fill-rule="nonzero" id="Symbol_15_0_Layer0_2_FILL-link">
                    <g>
                        <g id="Symbol_15_0_Layer0_2_FILL">
                            <path d="M3.2,1.9 C3.8,1.23333333 4.55,0.866666667 5.45,0.8 L0.1,0.6 L2.15,5.4 C2.11666667,5.13333333 2.1,4.86666667 2.1,4.6 C2.1,3.56666667 2.46666667,2.66666667 3.2,1.9 Z M22.25,0.8 C23.15,0.866666667 23.9,1.23333333 24.5,1.9 C25.2333333,2.66666667 25.6,3.56666667 25.6,4.6 C25.6,4.86666667 25.5833333,5.13333333 25.55,5.4 L27.6,0.6 L22.25,0.8 Z" id="Shape" fill="#BFA984"></path>
                            <path d="M5.75,0.8 C5.65,0.8 5.55,0.8 5.45,0.8 C4.55,0.866666667 3.8,1.23333333 3.2,1.9 C2.46666667,2.66666667 2.1,3.56666667 2.1,4.6 C2.1,4.86666667 2.11666667,5.13333333 2.15,5.4 C2.31666667,6.1 2.66666667,6.71666667 3.2,7.25 C3.86666667,8.01666667 4.71666667,8.4 5.75,8.4 C6.78333333,8.4 7.66666667,8.01666667 8.4,7.25 C9.06666667,6.51666667 9.4,5.63333333 9.4,4.6 C9.4,3.56666667 9.06666667,2.66666667 8.4,1.9 C7.66666667,1.16666667 6.78333333,0.8 5.75,0.8 Z M4.6,4.5 C4.63333333,3.9 4.85,3.38333333 5.25,2.95 C5.65,2.51666667 6.15,2.3 6.75,2.3 C7.35,2.3 7.86666667,2.51666667 8.3,2.95 C8.66666667,3.38333333 8.86666667,3.9 8.9,4.5 L8.9,4.75 C8.86666667,5.31666667 8.66666667,5.8 8.3,6.2 C7.86666667,6.66666667 7.35,6.9 6.75,6.9 C6.15,6.9 5.65,6.66666667 5.25,6.2 C4.85,5.8 4.63333333,5.31666667 4.6,4.75 L4.6,4.5 Z M24.5,1.9 C23.9,1.23333333 23.15,0.866666667 22.25,0.8 C22.15,0.8 22.05,0.8 21.95,0.8 C20.9166667,0.8 20.0333333,1.16666667 19.3,1.9 C18.6333333,2.66666667 18.3,3.56666667 18.3,4.6 C18.3,5.63333333 18.6333333,6.51666667 19.3,7.25 C20.0333333,8.01666667 20.9166667,8.4 21.95,8.4 C22.9833333,8.4 23.8333333,8.01666667 24.5,7.25 C25.0333333,6.71666667 25.3833333,6.1 25.55,5.4 C25.5833333,5.13333333 25.6,4.86666667 25.6,4.6 C25.6,3.56666667 25.2333333,2.66666667 24.5,1.9 Z M23.1,4.5 L23.1,4.75 C23.0666667,5.31666667 22.85,5.8 22.45,6.2 C22.05,6.66666667 21.55,6.9 20.95,6.9 C20.35,6.9 19.8333333,6.66666667 19.4,6.2 C19.0333333,5.8 18.8333333,5.31666667 18.8,4.75 L18.8,4.5 C18.8333333,3.9 19.0333333,3.38333333 19.4,2.95 C19.8333333,2.51666667 20.35,2.3 20.95,2.3 C21.55,2.3 22.05,2.51666667 22.45,2.95 C22.85,3.38333333 23.0666667,3.9 23.1,4.5 Z" id="Shape" fill="#FFFFFF"></path>
                            <path d="M5.25,2.95 C4.85,3.38333333 4.63333333,3.9 4.6,4.5 L4.6,4.75 C4.63333333,5.31666667 4.85,5.8 5.25,6.2 C5.65,6.66666667 6.15,6.9 6.75,6.9 C7.35,6.9 7.86666667,6.66666667 8.3,6.2 C8.66666667,5.8 8.86666667,5.31666667 8.9,4.75 L8.9,4.5 C8.86666667,3.9 8.66666667,3.38333333 8.3,2.95 C7.86666667,2.51666667 7.35,2.3 6.75,2.3 C6.15,2.3 5.65,2.51666667 5.25,2.95 Z M23.1,4.75 L23.1,4.5 C23.0666667,3.9 22.85,3.38333333 22.45,2.95 C22.05,2.51666667 21.55,2.3 20.95,2.3 C20.35,2.3 19.8333333,2.51666667 19.4,2.95 C19.0333333,3.38333333 18.8333333,3.9 18.8,4.5 L18.8,4.75 C18.8333333,5.31666667 19.0333333,5.8 19.4,6.2 C19.8333333,6.66666667 20.35,6.9 20.95,6.9 C21.55,6.9 22.05,6.66666667 22.45,6.2 C22.85,5.8 23.0666667,5.31666667 23.1,4.75 Z" id="Shape" fill="#7F7058"></path>
                        </g>
                    </g>
                </g>
                <g transform="translate(37.416148, 21.114012) rotate(-14.999166) translate(-37.416148, -21.114012) translate(32.916160, 19.114017)" fill="#B8824D" id="Symbol_15_0_Layer0_2_MEMBER_0_FILL-link">
                    <g>
                        <g id="Symbol_15_0_Layer0_2_MEMBER_0_FILL">
                            <path d="M6.19998415,3.34999143 C7.19998159,3.54999092 8.04997941,3.76665703 8.74997762,3.99998977 C7.08331522,2.16666113 4.88332085,1.01666407 2.1499945,0.549998594 C1.81666202,0.483332097 1.56666266,0.516665345 1.39999642,0.649998338 C1.16666368,0.78333133 1.01666407,0.999997443 0.949997571,1.29999668 C0.916664323,1.56666266 0.966664195,1.83332865 1.09999719,2.09999463 C1.23333018,2.26666087 2.93332583,2.68332647 6.19998415,3.34999143 Z" id="Path"></path>
                        </g>
                    </g>
                </g>
                <g transform="translate(21.522292, 22.092107) rotate(14.999166) translate(-21.522292, -22.092107) translate(17.022303, 20.092112)" fill="#B8824D" id="Symbol_15_0_Layer0_2_MEMBER_1_FILL-link">
                    <g>
                        <g id="Symbol_15_0_Layer0_2_MEMBER_1_FILL">
                            <path d="M0.249999361,3.54999092 C0.949997571,3.41665793 1.81666202,3.31665819 2.84999271,3.24999169 C6.14998427,2.91665921 7.86664655,2.66665985 7.99997954,2.49999361 C8.19997903,2.26666087 8.28331215,2.01666151 8.2499789,1.74999552 C8.21664566,1.41666304 8.09997929,1.19999693 7.8999798,1.09999719 C7.69998031,0.899997699 7.46664757,0.816664578 7.19998159,0.849997826 C4.39998875,1.01666407 2.08332801,1.91666177 0.249999361,3.54999092 Z" id="Path"></path>
                        </g>
                    </g>
                </g>
                <g transform="translate(14.000000, 31.000000)" fill="#FFFFFF" fill-opacity="0.301960784" id="Symbol_15_0_Layer0_2_MEMBER_2_FILL-link">
                    <g>
                        <g id="Symbol_15_0_Layer0_2_MEMBER_2_FILL">
                            <path d="M4.3,3.9 C4.83333333,3.46666667 5.1,2.96666667 5.1,2.4 C5.1,1.76666667 4.83333333,1.23333333 4.3,0.8 C3.83333333,0.4 3.26666667,0.2 2.6,0.2 C1.9,0.2 1.3,0.4 0.8,0.8 C0.333333333,1.23333333 0.1,1.76666667 0.1,2.4 C0.1,2.96666667 0.333333333,3.46666667 0.8,3.9 C1.3,4.33333333 1.9,4.55 2.6,4.55 C3.26666667,4.55 3.83333333,4.33333333 4.3,3.9 Z" id="Path"></path>
                        </g>
                    </g>
                </g>
                <g transform="translate(38.000000, 31.000000)" fill="#FFFFFF" fill-opacity="0.301960784" id="Symbol_15_0_Layer0_2_MEMBER_3_FILL-link">
                    <g>
                        <g id="Symbol_15_0_Layer0_2_MEMBER_3_FILL">
                            <path d="M4.85,3.9 C5.38333333,3.46666667 5.65,2.96666667 5.65,2.4 C5.65,1.76666667 5.38333333,1.23333333 4.85,0.8 C4.38333333,0.4 3.81666667,0.2 3.15,0.2 C2.45,0.2 1.85,0.4 1.35,0.8 C0.883333333,1.23333333 0.65,1.76666667 0.65,2.4 C0.65,2.96666667 0.883333333,3.46666667 1.35,3.9 C1.85,4.33333333 2.45,4.55 3.15,4.55 C3.81666667,4.55 4.38333333,4.33333333 4.85,3.9 Z" id="Path"></path>
                        </g>
                    </g>
                </g>
                <g transform="translate(23.224628, 33.318030)" fill="#7F7058" id="Symbol_15_0_Layer0_2_MEMBER_4_FILL-link">
                    <g>
                        <g id="Symbol_15_0_Layer0_2_MEMBER_4_FILL">
                            <path d="M1.57950974,0.346721649 C1.39972814,0.218306224 1.207105,0.179781596 1.00164032,0.231147766 C0.796175639,0.256830851 0.642077128,0.359563192 0.539344788,0.539344788 C0.410929362,0.719126383 0.372404734,0.911749522 0.423770905,1.1172142 C0.44945399,1.32267888 0.55218633,1.48961894 0.731967926,1.61803436 C3.12049484,3.21038564 5.94563421,3.49289958 9.20738602,2.46557617 C9.4128507,2.38852692 9.56694921,2.26011149 9.66968155,2.0803299 C9.7467308,1.9005483 9.75957235,1.70792516 9.70820618,1.50246048 C9.63115692,1.2969958 9.5027415,1.15573883 9.3229599,1.07868958 C9.1431783,0.975957235 8.95055517,0.95027415 8.74509048,1.00164032 C5.99700038,1.87486521 3.60847346,1.65655899 1.57950974,0.346721649 Z" id="Path"></path>
                        </g>
                    </g>
                </g>
                <g id="Symbol_15_0_Layer0_3_FILL-link">
                    <g>
                        <g id="Symbol_15_0_Layer0_3_FILL">
                            <path d="M33.95,1.55 C31.7833333,0.95 29.95,0.85 28.45,1.25 C26.4166667,0.65 24.4,0.4 22.4,0.5 C22.2333333,0.466666667 22.0666667,0.45 21.9,0.45 C21.5333333,0.45 21.2166667,0.483333333 20.95,0.55 C19.6166667,0.716666667 18.3666667,1.01666667 17.2,1.45 C12,3.18333333 7.86666667,6.8 4.8,12.3 C3.56666667,14.3333333 2.66666667,16.4666667 2.1,18.7 C1.46666667,20.7333333 1.08333333,22.85 0.95,25.05 C0.95,25.2833333 0.95,25.5666667 0.95,25.9 C1.05,24 1.4,22.15 2,20.35 C2.6,18.15 3.51666667,16 4.75,13.9 C8.55,7.16666667 13.95,3.23333333 20.95,2.1 C21.3166667,2.03333333 21.6833333,2.01666667 22.05,2.05 C24.15,1.98333333 26.2833333,2.25 28.45,2.85 C29.9166667,2.38333333 31.7666667,2.46666667 34,3.1 C41.3666667,5.1 45.8333333,10.1833333 47.4,18.35 C47.4666667,19.35 47.5833333,20.3833333 47.75,21.45 C47.7166667,20.8833333 47.6833333,20.35 47.65,19.85 C47.55,18.7166667 47.4166667,17.6333333 47.25,16.6 C45.75,8.53333333 41.3166667,3.51666667 33.95,1.55 Z" id="Path" fill="#C68C53"></path>
                            <path d="M28.95,13.15 C28.6166667,13.9166667 28.3,14.6833333 28,15.45 L41.95,19.6 C44.5251302,20.503125 45.3751302,22.7864583 44.5,26.45 C43.7003906,30.0815104 44.0503906,33.7981771 45.55,37.6 C46.8096354,36.8630208 47.3929688,34.4296875 47.3,30.3 L47.8,22.05 C47.7666667,21.85 47.75,21.65 47.75,21.45 C47.5833333,20.3833333 47.4666667,19.35 47.4,18.35 C45.8333333,10.1833333 41.3666667,5.1 34,3.1 C31.7666667,2.46666667 29.9166667,2.38333333 28.45,2.85 C26.2833333,2.25 24.15,1.98333333 22.05,2.05 C21.6833333,2.01666667 21.3166667,2.03333333 20.95,2.1 C13.95,3.23333333 8.55,7.16666667 4.75,13.9 C3.51666667,16 2.6,18.15 2,20.35 C1.4,22.15 1.05,24 0.95,25.9 C0.95,26.0333333 0.95,26.2 0.95,26.4 C1.37669271,35.840625 4.72669271,40.9572917 11,41.75 C10.3079427,34.9658854 11.991276,30.6825521 16.05,28.9 L14.05,20.95 C19.6833333,19.75 24.9166667,16.25 29.75,10.45 C29.75,10.3833333 29.7833333,10.35 29.85,10.35 C29.5166667,11.2833333 29.2166667,12.2166667 28.95,13.15 Z" id="Path" fill="#B8824D"></path>
                            <path d="M28,15.45 C28.3,14.6833333 28.6166667,13.9166667 28.95,13.15 C29.2166667,12.2166667 29.5166667,11.2833333 29.85,10.35 C29.7833333,10.35 29.75,10.3833333 29.75,10.45 C24.9166667,16.25 19.6833333,19.75 14.05,20.95 L16.05,28.9 L16.05,29 C21.0833333,26.6333333 25.0666667,22.1166667 28,15.45 Z" id="Path" fill="#AD7A48"></path>
                        </g>
                    </g>
                </g>
            </g>
            <g id="armRight_FL_FL_FL_FL_FL_FL_FL_FL_FL_FL_FL_FL_FL_FL_FL_FL_FL_FL_FL_FL_FL_FL" transform="translate(125.000000, 91.500000) scale(-1, 1) translate(-125.000000, -91.500000) translate(116.000000, 74.000000)">
                <g id="Group">
                    <g id="Symbol_8_0_Layer0_0_FILL-link">
                        <g id="Symbol_8_0_Layer0_0_FILL">
                            <path d="M2.75,18.25 L2.85,30.95 C4.74479167,32.491276 6.99479167,33.5079427 9.6,34 C10.5799479,28.559375 12.4299479,23.3927083 15.15,18.5 L2.75,18.25 Z" id="Path" fill="#FFE0B1"></path>
                            <path d="M15.15,18.5 C15.491276,17.9197917 15.841276,17.3364583 16.2,16.75 L2.7,14.3 L2.75,18.25 L15.15,18.5 Z" id="Path" fill="#FCF7EE"></path>
                            <path d="M16.2,16.75 L16.7,16.85 L17.2,13.9 L1.8,11.05 C0.933333333,11.45 0.766666667,12.45 1.3,14.05 L2.7,14.3 L16.2,16.75 Z" id="Path" fill="#2E88C4"></path>
                            <path d="M16.6,4.35 C15.3666667,2.55 13.6833333,1.46666667 11.55,1.1 L11.5,1.1 C11.1,1.03333333 10.7166667,1 10.35,1 C6.98333333,0.9 4.13333333,4.25 1.8,11.05 L17.2,13.9 L17.85,10.3 C18.25,8.16666667 17.8333333,6.18333333 16.6,4.35 Z" id="Path" fill="#3498DB"></path>
                        </g>
                    </g>
                </g>
            </g>
            <g id="Group" transform="translate(59.000000, 69.000000)">
                <g id="Symbol_18_0_Layer0_0_FILL-link">
                    <g>
                        <g id="Symbol_18_0_Layer0_0_FILL">
                            <path d="M1.95,26.9 C2.57460938,28.6463542 3.74127604,30.0130208 5.45,31 C14.95,29.4188802 24.45,29.4188802 33.95,31 C35.2165365,29.8915365 36.1332031,28.5248698 36.7,26.9 C25.2630208,25.7018229 13.6796875,25.7018229 1.95,26.9 Z" id="Path" fill="#D9D6BF"></path>
                            <path d="M37.35,20.3 C36.4221354,14.1713542 36.9721354,7.4046875 39,0 L0,0 C2.56861979,7.16744792 3.13528646,14.1841146 1.7,21.05 C1.32513021,23.3277344 1.40846354,25.2777344 1.95,26.9 C13.6796875,25.7018229 25.2630208,25.7018229 36.7,26.9 C37.3710938,25.0450521 37.5877604,22.8450521 37.35,20.3 Z" id="Path" fill="#3498DB"></path>
                        </g>
                    </g>
                </g>
            </g>
            <g id="body_FL_FL_FL_FL_FL_FL_FL_FL_FL_FL_FL_FL_FL_FL_FL_FL_FL_FL_FL_FL" transform="translate(9.000000, 69.000000)">
                <g id="Group">
                    <g id="Symbol_10_0_Layer0_0_FILL-link">
                        <g id="Symbol_10_0_Layer0_0_FILL">
                            <path d="M1.95,26.9 C2.57460938,28.6463542 3.74127604,30.0130208 5.45,31 C14.95,29.4188802 24.45,29.4188802 33.95,31 C35.2165365,29.8915365 36.1332031,28.5248698 36.7,26.9 C25.2630208,25.7018229 13.6796875,25.7018229 1.95,26.9 Z" id="Path" fill="#D9D6BF"></path>
                            <path d="M37.35,20.3 C36.4221354,14.1713542 36.9721354,7.4046875 39,0 L0,0 C2.56861979,7.16744792 3.13528646,14.1841146 1.7,21.05 C1.32513021,23.3277344 1.40846354,25.2777344 1.95,26.9 C13.6796875,25.7018229 25.2630208,25.7018229 36.7,26.9 C37.3710938,25.0450521 37.5877604,22.8450521 37.35,20.3 Z" id="Path" fill="#3498DB"></path>
                        </g>
                    </g>
                </g>
                <g id="Group" transform="translate(4.200000, 4.000000)" fill="#2E88C4" fill-rule="nonzero">
                    <g id="Symbol_10_0_Layer0_1_FILL-link">
                        <g id="Symbol_10_0_Layer0_1_FILL">
                            <path d="M29.05,1.4 C28.8166667,1.13333333 28.5833333,0.866666667 28.35,0.6 C28.2833333,0.5 28.1833333,0.45 28.05,0.45 C27.95,0.45 27.85,0.483333333 27.75,0.55 C27.65,0.616666667 27.6,0.716666667 27.6,0.85 C27.5333333,0.95 27.5333333,1.06666667 27.6,1.2 C28.0333333,2.16666667 28.0666667,3.16666667 27.7,4.2 L27.7,4.15 C27.1333333,5.61666667 25.95,6.66666667 24.15,7.3 C22.35,7.9 20.4333333,7.93333333 18.4,7.4 C18.2333333,7.3 18.05,7.23333333 17.85,7.2 C17.75,7.16666667 17.6666667,7.18333333 17.6,7.25 C17.4666667,7.31666667 17.3833333,7.4 17.35,7.5 C17.3166667,7.6 17.3166667,7.71666667 17.35,7.85 C17.35,7.95 17.4,8.03333333 17.5,8.1 C18.3666667,8.8 19.45,9.35 20.75,9.75 L20.7,9.75 C22.7333333,10.4166667 24.6666667,10.45 26.5,9.85 C28.3666667,9.18333333 29.5666667,8 30.1,6.3 L30.1,6.35 C30.6,4.75 30.25,3.1 29.05,1.4 Z M2.95,1.75 C2.85,1.75 2.76666667,1.8 2.7,1.9 C2.4,2.2 2.18333333,2.5 2.05,2.8 C0.783333333,4.56666667 0.433333333,6.23333333 1,7.8 L1,7.75 C1.46666667,9.45 2.65,10.5166667 4.55,10.95 C6.38333333,11.3833333 8.33333333,11.15 10.4,10.25 C11.6,9.71666667 12.65,9.06666667 13.55,8.3 C13.65,8.23333333 13.7166667,8.15 13.75,8.05 C13.75,7.91666667 13.7333333,7.8 13.7,7.7 C13.6666667,7.6 13.6,7.51666667 13.5,7.45 C13.3666667,7.38333333 13.2666667,7.36666667 13.2,7.4 C13,7.43333333 12.8333333,7.5 12.7,7.6 C10.6333333,8.4 8.68333333,8.58333333 6.85,8.15 C5.08333333,7.71666667 3.91666667,6.81666667 3.35,5.45 C2.98333333,4.48333333 3,3.48333333 3.4,2.45 C3.43333333,2.35 3.45,2.25 3.45,2.15 C3.41666667,2.01666667 3.36666667,1.91666667 3.3,1.85 C3.2,1.78333333 3.08333333,1.75 2.95,1.75 Z" id="Shape"></path>
                        </g>
                    </g>
                </g>
            </g>
            <g id="Group" transform="translate(181.000000, 0.700000)">
                <g transform="translate(3.000000, 5.000000)" id="Symbol_17_0_Layer0_0_FILL-link">
                    <g>
                        <g id="Symbol_17_0_Layer0_0_FILL">
                            <path d="M29.6,42.15 C30.7666667,41.3833333 31.5833333,40.5166667 32.05,39.55 L12.85,39.55 C13.3166667,40.5166667 14.1333333,41.3833333 15.3,42.15 C17.2666667,43.45 19.65,44.1 22.45,44.1 C25.25,44.1 27.6333333,43.45 29.6,42.15 Z" id="Path" fill="#D7BD93"></path>
                            <path d="M41.75,14.35 C41.3166667,11.3833333 39.5833333,8.5 36.55,5.7 C27.319401,-2.88020833 17.2360677,-1.48020833 6.3,9.9 C3.36666667,9.9 1.66666667,11.4166667 1.2,14.45 C0.572395833,18.7679688 0.272395833,22.4846354 0.3,25.6 C2.54869792,31.877474 6.73203125,36.527474 12.85,39.55 L32.05,39.55 C37.3141927,36.8630208 40.8141927,32.5296875 42.55,26.55 C42.6423177,22.5417969 42.375651,18.4751302 41.75,14.35 Z" id="Path" fill="#FFE0B1"></path>
                        </g>
                    </g>
                </g>
                <g id="Symbol_17_0_Layer0_1_FILL-link">
                    <g>
                        <g id="Symbol_17_0_Layer0_1_FILL">
                            <path d="M33.1,3.35 C30.8666667,2.71666667 29.0166667,2.63333333 27.55,3.1 C25.3833333,2.5 23.25,2.23333333 21.15,2.3 C20.7833333,2.26666667 20.4166667,2.28333333 20.05,2.35 C13.05,3.48333333 7.65,7.41666667 3.85,14.15 C2.61666667,16.25 1.7,18.4 1.1,20.6 C0.5,22.4 0.15,24.25 0.05,26.15 C0.05,26.2833333 0.05,26.45 0.05,26.65 C0.483333333,36.0833333 3.83333333,41.2 10.1,42 C27.9904948,44.9911458 39.5071615,43.6078125 44.65,37.85 C45.9166667,37.1166667 46.5166667,34.6833333 46.45,30.55 L46.9,22.3 C46.8666667,22.1 46.85,21.9 46.85,21.7 C46.6833333,20.6333333 46.5666667,19.6 46.5,18.6 C44.9333333,10.4333333 40.4666667,5.35 33.1,3.35 Z M33.1,12.35 C34.090625,13.3576823 34.8239583,14.474349 35.3,15.7 C35.7666667,16.8510417 36,18.1010417 36,19.45 C36,20.7615885 35.7833333,21.9782552 35.35,23.1 C34.8667969,24.3498698 34.1167969,25.4832031 33.1,26.5 C31.1333333,28.4666667 28.7666667,29.45 26,29.45 C23.2333333,29.45 20.8666667,28.4666667 18.9,26.5 C17.8832031,25.4832031 17.1332031,24.3498698 16.65,23.1 C16.2166667,21.9782552 16,20.7615885 16,19.45 C16,18.1010417 16.2333333,16.8510417 16.7,15.7 C17.1760417,14.474349 17.909375,13.3576823 18.9,12.35 C20.8666667,10.4166667 23.2333333,9.45 26,9.45 C28.7666667,9.45 31.1333333,10.4166667 33.1,12.35 Z" id="Shape" fill="#B8824D" fill-rule="nonzero"></path>
                            <path d="M34.15,14.95 C31.8833333,13.75 29.1666667,13.15 26,13.15 C22.8333333,13.15 20.1166667,13.75 17.85,14.95 C17.4221354,15.1863281 17.0388021,15.4363281 16.7,15.7 C16.2333333,16.8510417 16,18.1010417 16,19.45 C16,20.7615885 16.2166667,21.9782552 16.65,23.1 C17.1332031,24.3498698 17.8832031,25.4832031 18.9,26.5 C20.8666667,28.4666667 23.2333333,29.45 26,29.45 C28.7666667,29.45 31.1333333,28.4666667 33.1,26.5 C34.1167969,25.4832031 34.8667969,24.3498698 35.35,23.1 C35.7833333,21.9782552 36,20.7615885 36,19.45 C36,18.1010417 35.7666667,16.8510417 35.3,15.7 C34.9611979,15.4363281 34.5778646,15.1863281 34.15,14.95 Z" id="Path" fill="#A67545"></path>
                            <path d="M26,13.15 C29.1666667,13.15 31.8833333,13.75 34.15,14.95 C34.5778646,15.1863281 34.9611979,15.4363281 35.3,15.7 C34.8239583,14.474349 34.090625,13.3576823 33.1,12.35 C31.1333333,10.4166667 28.7666667,9.45 26,9.45 C23.2333333,9.45 20.8666667,10.4166667 18.9,12.35 C17.909375,13.3576823 17.1760417,14.474349 16.7,15.7 C17.0388021,15.4363281 17.4221354,15.1863281 17.85,14.95 C20.1166667,13.75 22.8333333,13.15 26,13.15 Z M27.55,3.1 C29.0166667,2.63333333 30.8666667,2.71666667 33.1,3.35 C40.4666667,5.35 44.9333333,10.4333333 46.5,18.6 C46.5666667,19.6 46.6833333,20.6333333 46.85,21.7 C46.8166667,21.1333333 46.7833333,20.6 46.75,20.1 C46.65,18.9666667 46.5166667,17.8833333 46.35,16.85 C44.85,8.78333333 40.4166667,3.76666667 33.05,1.8 C30.8833333,1.2 29.05,1.1 27.55,1.5 C25.5166667,0.9 23.5,0.65 21.5,0.75 C21.3333333,0.716666667 21.1666667,0.7 21,0.7 C20.6333333,0.7 20.3166667,0.733333333 20.05,0.8 C18.7166667,0.966666667 17.4666667,1.26666667 16.3,1.7 C11.1,3.43333333 6.96666667,7.05 3.9,12.55 C2.66666667,14.5833333 1.76666667,16.7166667 1.2,18.95 C0.566666667,20.9833333 0.183333333,23.1 0.05,25.3 C0.05,25.5333333 0.05,25.8166667 0.05,26.15 C0.15,24.25 0.5,22.4 1.1,20.6 C1.7,18.4 2.61666667,16.25 3.85,14.15 C7.65,7.41666667 13.05,3.48333333 20.05,2.35 C20.4166667,2.28333333 20.7833333,2.26666667 21.15,2.3 C23.25,2.23333333 25.3833333,2.5 27.55,3.1 Z" id="Shape" fill="#C68C53" fill-rule="nonzero"></path>
                        </g>
                    </g>
                </g>
            </g>
        </g>
    </g>
</svg>