<?xml version="1.0" encoding="UTF-8"?>
<svg width="230px" height="150px" viewBox="0 0 230 150" version="1.1" xmlns="http://www.w3.org/2000/svg" xmlns:xlink="http://www.w3.org/1999/xlink">
    <!-- Generator: Sketch 52.5 (67469) - http://www.bohemiancoding.com/sketch -->
    <title>Desktop</title>
    <desc>Created with Sketch.</desc>
    <g id="Desktop" stroke="none" stroke-width="1" fill="none" fill-rule="evenodd">
        <g id="Group-2">
            <g id="leg" transform="translate(85.500000, 138.500000) scale(-1, 1) translate(-85.500000, -138.500000) translate(74.000000, 126.000000)">
                <g id="Group" transform="translate(0.913757, 0.086060)">
                    <g id="Symbol_11_0_Layer0_0_FILL-link">
                        <g id="Symbol_11_0_Layer0_0_FILL">
                            <path d="M21.050206,23.8902077 L21.050206,18.9439949 L3.32371674,18.9439949 L3.32371674,18.8945328 C2.14866536,19.5210531 1.07433268,20.4773209 0.100718689,21.7633362 L0.100718689,23.8902077 L21.050206,23.8902077 Z" id="Path" fill="#B8824D"></path>
                            <polygon id="Path" fill="#2A7DB4" points="21.050206 18.9439949 21.1005653 18.9439949 21.1005653 15.5805702 3.32371674 15.5805702 3.32371674 18.8945328 3.32371674 18.9439949"></polygon>
                            <path d="M18.5322388,3.41288681 C16.7864482,1.73117447 14.6881421,0.890318298 12.2373207,0.890318298 L12.1869614,0.890318298 C9.73613993,0.890318298 7.65462036,1.73117447 5.94240265,3.41288681 C4.19661204,5.1275739 3.32371674,7.18849589 3.32371674,9.59565277 L3.32371674,15.5805702 L21.1005653,15.5805702 L21.1005653,9.59565277 C21.1005653,7.18849589 20.2444565,5.1275739 18.5322388,3.41288681 Z" id="Path" fill="#3498DB"></path>
                        </g>
                    </g>
                </g>
            </g>
            <g id="hand" transform="translate(120.500000, 141.000000) scale(-1, 1) translate(-120.500000, -141.000000) translate(112.000000, 133.000000)" fill-rule="nonzero">
                <g id="Group">
                    <g id="Symbol_9_0_Layer0_0_FILL-link">
                        <g id="Symbol_9_0_Layer0_0_FILL">
                            <path d="M10.65,0 C12.2833333,1.46666667 13.7,3.85 14.9,7.15 L15.1,7.95 L15.1,7.9 C17.1666667,5 15.6833333,2.36666667 10.65,0 Z M3.25,6.35 C4.08333333,6.28333333 5.06666667,6.05 6.2,5.65 C7.36666667,5.25 8.31666667,4.8 9.05,4.3 C9.78333333,3.83333333 10.1166667,3.45 10.05,3.15 C10.0166667,2.88333333 9.56666667,2.78333333 8.7,2.85 C7.9,2.95 6.91666667,3.18333333 5.75,3.55 C4.61666667,3.95 3.68333333,4.38333333 2.95,4.85 C2.18333333,5.31666667 1.81666667,5.7 1.85,6 C1.91666667,6.3 2.38333333,6.41666667 3.25,6.35 Z" id="Shape" fill="#E7CBA0"></path>
                            <path d="M14.9,7.15 C13.7,3.85 12.2833333,1.46666667 10.65,0 L1,2.55 C0.2,2.75 -0.116666667,3.21666667 0.05,3.95 L0.2,4.5 C2,12.5666667 5.2,16 9.8,14.8 C11.4333333,14.4 13.05,13.7833333 14.65,12.95 C15.7166667,12.4166667 16.15,11.75 15.95,10.95 L15.9,10.7 C15.6333333,9.73333333 15.3666667,8.8 15.1,7.9 L15.1,7.95 L14.9,7.15 Z M6.2,5.65 C5.06666667,6.05 4.08333333,6.28333333 3.25,6.35 C2.38333333,6.41666667 1.91666667,6.3 1.85,6 C1.81666667,5.7 2.18333333,5.31666667 2.95,4.85 C3.68333333,4.38333333 4.61666667,3.95 5.75,3.55 C6.91666667,3.18333333 7.9,2.95 8.7,2.85 C9.56666667,2.78333333 10.0166667,2.88333333 10.05,3.15 C10.1166667,3.45 9.78333333,3.83333333 9.05,4.3 C8.31666667,4.8 7.36666667,5.25 6.2,5.65 Z" id="Shape" fill="#FFE0B1"></path>
                        </g>
                    </g>
                </g>
            </g>
            <g id="arm" transform="translate(122.500000, 101.500000) scale(-1, 1) translate(-122.500000, -101.500000) translate(113.000000, 84.000000)">
                <g id="Group" transform="translate(0.629297, 0.907275)">
                    <g id="Symbol_8_0_Layer0_0_FILL-link">
                        <g id="Symbol_8_0_Layer0_0_FILL">
                            <path d="M1.39589844,29.3279175 C3.45819817,31.276195 5.98410962,32.5338244 8.97363281,33.1008057 C12.1389416,27.8068409 14.3324963,22.0552825 15.5542969,15.8461304 L2.09384766,13.3811768 C1.29398435,18.696757 1.06133461,24.0123372 1.39589844,29.3279175 Z" id="Path" fill="#FFE0B1"></path>
                            <path d="M16.052832,15.9467407 L16.5513672,12.9787354 L1.14663086,10.1616455 C0.282503255,10.5640869 0.11632487,11.553422 0.648095703,13.1296509 L2.09384766,13.3811768 L15.5542969,15.8461304 L16.052832,15.9467407 Z" id="Path" fill="#25A85C"></path>
                            <path d="M10.9179199,0.201220703 L10.8680664,0.201220703 C10.4810525,0.127989992 10.0988422,0.0776848157 9.72143555,0.0503051758 C6.34931259,-0.0082531929 3.49104436,3.36219358 1.14663086,10.1616455 L16.5513672,12.9787354 L17.1994629,9.40706787 C17.598291,7.2607137 17.1828451,5.26527507 15.953125,3.42075195 C14.7234049,1.64330241 13.0450033,0.570125326 10.9179199,0.201220703 Z" id="Path" fill="#2ECC71"></path>
                        </g>
                    </g>
                </g>
            </g>
            <g id="body_front" transform="translate(6.000000, 78.000000)">
                <g id="Group" transform="translate(0.240295, 0.321075)">
                    <g id="Symbol_10_0_Layer0_0_FILL-link">
                        <g id="Symbol_10_0_Layer0_0_FILL">
                            <polygon id="Path" fill="#B8824D" points="39.7596703 31.6553741 39.7596703 27.5724358 0.759738922 27.5724358 0.759738922 31.6553741"></polygon>
                            <polygon id="Path" fill="#2ECC71" points="39.7596703 0.655286407 0.759738922 0.655286407 0.759738922 27.5724358 39.7596703 27.5724358"></polygon>
                        </g>
                    </g>
                </g>
            </g>
            <g id="body_back" transform="translate(57.000000, 79.000000)">
                <polygon id="Path" fill="#B8824D" points="39 31 39 26.9 0 26.9 0 31"></polygon>
                <polygon id="Path" fill="#2ECC71" points="39 0 0 0 0 26.9 39 26.9"></polygon>
            </g>
            <g id="head_back" transform="translate(180.000000, 0.700000)">
                <g id="Group" transform="translate(2.000000, 23.000000)">
                    <g id="Symbol_17_0_Layer0_0_FILL-link">
                        <g id="Symbol_17_0_Layer0_0_FILL">
                            <path d="M15.65,32.7 C17.6166667,34 20,34.65 22.8,34.65 C25.6,34.65 27.9833333,34 29.95,32.7 C31.1166667,31.9333333 31.9333333,31.0666667 32.4,30.1 L13.2,30.1 C13.6666667,31.0666667 14.4833333,31.9333333 15.65,32.7 Z" id="Path" fill="#D7BD93"></path>
                            <path d="M42.15,25.55 C43.1833333,18.8166667 43.1666667,11.9333333 42.1,4.9 C41.6666667,1.93333333 39.9666667,0.45 37,0.45 L6.65,0.45 C3.71666667,0.45 2.01666667,1.96666667 1.55,5 C0.55,11.8666667 0.55,18.7333333 1.55,25.6 C2.01666667,28.6 3.71666667,30.1 6.65,30.1 L13.2,30.1 L32.4,30.1 L37,30.1 C39.9666667,30.1 41.6833333,28.5833333 42.15,25.55 Z" id="Path" fill="#FFE0B1"></path>
                        </g>
                    </g>
                </g>
                <g id="Group">
                    <g id="Symbol_17_0_Layer0_1_FILL-link">
                        <g id="Symbol_17_0_Layer0_1_FILL">
                            <path d="M9.3,12.55 L6.4,17.3 C20.9,16.3 34.8166667,10.6333333 48.15,0.3 C31.3166667,3.86666667 18.3666667,7.95 9.3,12.55 Z M25.7,51.3 C33.9,51.1 40.7166667,47.15 46.15,39.45 C48.25,36.45 49.25,31.9666667 49.15,26 C49.1166667,23.8 48.95,22.25 48.65,21.35 C48.5833333,21.15 48.5166667,20.9666667 48.45,20.8 C47.9696615,19.3592448 47.6863281,18.4592448 47.6,18.1 C47.7985677,19.0455729 47.8485677,19.9289063 47.75,20.75 C45.45,38.8166667 37.6333333,48.9666667 24.3,51.2 C11.5333333,48.6 4.03333333,38.4666667 1.8,20.8 C0.2,29.4666667 0.733333333,35.7 3.4,39.5 C8.83333333,47.2 15.65,51.15 23.85,51.35 C24.0833333,51.3833333 24.4333333,51.3666667 24.9,51.3 C25.2333333,51.3333333 25.5,51.3333333 25.7,51.3 Z" id="Shape" fill="#C48A51" fill-rule="nonzero"></path>
                            <path d="M47.75,20.75 C47.8485677,19.9289063 47.7985677,19.0455729 47.6,18.1 L47.6,18 C46.4,13.1 46.5833333,7.2 48.15,0.3 C34.8166667,10.6333333 20.9,16.3 6.4,17.3 L1.8,20.8 C4.03333333,38.4666667 11.5333333,48.6 24.3,51.2 C37.6333333,48.9666667 45.45,38.8166667 47.75,20.75 Z" id="Path" fill="#B8824D"></path>
                        </g>
                    </g>
                </g>
            </g>
            <g id="head_focus" transform="translate(120.600000, 0.700000)">
                <g id="Group" transform="translate(2.000000, 23.000000)">
                    <g id="Symbol_15_0_Layer0_0_FILL-link">
                        <g id="Symbol_15_0_Layer0_0_FILL">
                            <path d="M22.25,34.65 C25.05,34.65 27.4333333,34 29.4,32.7 C30.5666667,31.9333333 31.3833333,31.0666667 31.85,30.1 L12.65,30.1 C13.1166667,31.0666667 13.9333333,31.9333333 15.1,32.7 C17.0666667,34 19.45,34.65 22.25,34.65 Z" id="Path" fill="#D7BD93"></path>
                            <path d="M41.55,4.9 C41.1166667,1.93333333 39.4166667,0.45 36.45,0.45 L6.1,0.45 C3.16666667,0.45 1.46666667,1.96666667 1,5 C5.55111512e-17,11.8666667 5.55111512e-17,18.7333333 1,25.6 C1.46666667,28.6 3.16666667,30.1 6.1,30.1 L12.65,30.1 L31.85,30.1 L36.45,30.1 C39.4166667,30.1 41.1333333,28.5833333 41.6,25.55 C42.6333333,18.8166667 42.6166667,11.9333333 41.55,4.9 Z" id="Path" fill="#FFE0B1"></path>
                        </g>
                    </g>
                </g>
                <g id="Group" transform="translate(13.000000, 29.000000)">
                    <g id="Symbol_15_0_Layer0_1_FILL-link">
                        <g id="Symbol_15_0_Layer0_1_FILL">
                            <path d="M7.8,10.15 C7.8,9.11666667 7.43333333,8.21666667 6.7,7.45 C6.03333333,6.71666667 5.18333333,6.35 4.15,6.35 C3.11666667,6.35 2.23333333,6.71666667 1.5,7.45 C0.833333333,8.21666667 0.5,9.11666667 0.5,10.15 C0.5,11.1833333 0.833333333,12.0666667 1.5,12.8 C2.23333333,13.5666667 3.11666667,13.95 4.15,13.95 C5.18333333,13.95 6.03333333,13.5666667 6.7,12.8 C7.43333333,12.0666667 7.8,11.1833333 7.8,10.15 Z M25.3,7.45 C24.6333333,6.71666667 23.7833333,6.35 22.75,6.35 C21.7166667,6.35 20.8333333,6.71666667 20.1,7.45 C19.4333333,8.21666667 19.1,9.11666667 19.1,10.15 C19.1,11.1833333 19.4333333,12.0666667 20.1,12.8 C20.8333333,13.5666667 21.7166667,13.95 22.75,13.95 C23.7833333,13.95 24.6333333,13.5666667 25.3,12.8 C26.0333333,12.0666667 26.4,11.1833333 26.4,10.15 C26.4,9.11666667 26.0333333,8.21666667 25.3,7.45 Z" id="Shape" fill="#FFFFFF" fill-rule="nonzero"></path>
                            <path d="M7.6,4.1 C7.73333333,4.3 7.95,4.41666667 8.25,4.45 C8.51666667,4.48333333 8.76666667,4.41666667 9,4.25 C9.2,4.08333333 9.33333333,3.86666667 9.4,3.6 C9.4,3.33333333 9.31666667,3.08333333 9.15,2.85 C8.18333333,1.55 6.88333333,0.816666667 5.25,0.65 C4.15,0.516666667 3.11666667,0.65 2.15,1.05 C1.91666667,1.15 1.73333333,1.33333333 1.6,1.6 C1.46666667,1.86666667 1.48333333,2.11666667 1.65,2.35 C1.71666667,2.58333333 1.9,2.76666667 2.2,2.9 C2.4,3.03333333 2.65,3.01666667 2.95,2.85 C3.58333333,2.61666667 4.26666667,2.55 5,2.65 C6.1,2.78333333 6.96666667,3.26666667 7.6,4.1 Z M24.45,2.3 C23.5166667,1.9 22.4833333,1.76666667 21.35,1.9 C19.6833333,2.06666667 18.4,2.8 17.5,4.1 C17.3,4.33333333 17.2166667,4.56666667 17.25,4.8 C17.2833333,5.06666667 17.4166667,5.28333333 17.65,5.45 C17.85,5.61666667 18.1,5.7 18.4,5.7 C18.6666667,5.66666667 18.8833333,5.53333333 19.05,5.3 C19.65,4.5 20.5,4.03333333 21.6,3.9 C22.3333333,3.8 23.0166667,3.86666667 23.65,4.1 C23.95,4.26666667 24.2166667,4.26666667 24.45,4.1 C24.7166667,4 24.9,3.83333333 25,3.6 C25.1333333,3.36666667 25.1333333,3.11666667 25,2.85 C24.8666667,2.58333333 24.6833333,2.4 24.45,2.3 Z" id="Shape" fill="#B8824D" fill-rule="nonzero"></path>
                            <path d="M18.65,18.3 C18.9166667,18.2 19.1166667,18.0333333 19.25,17.8 C19.35,17.5666667 19.3666667,17.3166667 19.3,17.05 C19.2,16.7833333 19.0333333,16.6 18.8,16.5 C18.5666667,16.3666667 18.3166667,16.3333333 18.05,16.4 C14.4833333,17.5333333 11.3833333,17.25 8.75,15.55 C8.51666667,15.3833333 8.26666667,15.3333333 8,15.4 C7.73333333,15.4333333 7.53333333,15.5666667 7.4,15.8 C7.23333333,16.0333333 7.18333333,16.2833333 7.25,16.55 C7.28333333,16.8166667 7.41666667,17.0333333 7.65,17.2 C10.75,19.2666667 14.4166667,19.6333333 18.65,18.3 Z" id="Path" fill="#7F7058"></path>
                        </g>
                    </g>
                </g>
                <g id="Group" transform="translate(15.000000, 36.000000)" fill="#7F7058" fill-rule="nonzero">
                    <g id="Symbol_15_0_Layer0_1_MEMBER_0_FILL-link">
                        <g id="Symbol_15_0_Layer0_1_MEMBER_0_FILL">
                            <path d="M2.9,6.3 C3.5,6.3 4,5.98333333 4.4,5.35 C4.83333333,4.75 5.05,4.01666667 5.05,3.15 C5.05,2.28333333 4.83333333,1.53333333 4.4,0.9 C4,0.3 3.5,0 2.9,0 C2.3,0 1.78333333,0.3 1.35,0.9 C0.95,1.53333333 0.75,2.28333333 0.75,3.15 C0.75,4.01666667 0.95,4.75 1.35,5.35 C1.78333333,5.98333333 2.3,6.3 2.9,6.3 Z M18.2,0.9 C17.8,1.53333333 17.6,2.28333333 17.6,3.15 C17.6,4.01666667 17.8,4.75 18.2,5.35 C18.6333333,5.98333333 19.15,6.3 19.75,6.3 C20.35,6.3 20.85,5.98333333 21.25,5.35 C21.6833333,4.75 21.9,4.01666667 21.9,3.15 C21.9,2.28333333 21.6833333,1.53333333 21.25,0.9 C20.85,0.3 20.35,0 19.75,0 C19.15,0 18.6333333,0.3 18.2,0.9 Z" id="Shape"></path>
                        </g>
                    </g>
                </g>
                <g id="Group">
                    <g id="Symbol_15_0_Layer0_2_FILL-link">
                        <g id="Symbol_15_0_Layer0_2_FILL">
                            <path d="M8.75,12.55 L5.85,17.3 L1.25,20.8 C-0.35,29.4666667 0.0666666667,37.8833333 2.5,46.05 C5.8,42.95 7.66666667,37.45 8.1,29.55 C11.2666667,17.8166667 24.4333333,8.06666667 47.6,0.3 C30.7666667,3.86666667 17.8166667,7.95 8.75,12.55 Z" id="Path" fill="#B8824D"></path>
                            <path d="M25.6,27.8 C31.1666667,29.4 37.0833333,30.1166667 43.35,29.95 L44.35,38.05 C47.3833333,29.05 48.3666667,22.7166667 47.3,19.05 C45.8333333,13.95 45.9333333,7.7 47.6,0.3 C24.4333333,8.06666667 11.2666667,17.8166667 8.1,29.55 C12.9,26.2833333 18.7333333,25.7 25.6,27.8 Z" id="Path" fill="#C48A51"></path>
                        </g>
                    </g>
                </g>
            </g>
            <g id="head_hurt" transform="translate(60.600000, 0.650000)">
                <g id="Group" transform="translate(2.000000, 23.000000)">
                    <g id="Symbol_16_0_Layer0_0_FILL-link">
                        <g id="Symbol_16_0_Layer0_0_FILL">
                            <path d="M22.25,34.7 C25.05,34.7 27.4333333,34.05 29.4,32.75 C30.5666667,31.9833333 31.3833333,31.1166667 31.85,30.15 L12.65,30.15 C13.1166667,31.1166667 13.9333333,31.9833333 15.1,32.75 C17.0666667,34.05 19.45,34.7 22.25,34.7 Z" id="Path" fill="#D7BD93"></path>
                            <path d="M41.55,4.95 C41.1166667,1.98333333 39.4166667,0.5 36.45,0.5 L6.1,0.5 C3.16666667,0.5 1.46666667,2.01666667 1,5.05 C5.55111512e-17,11.9166667 5.55111512e-17,18.7833333 1,25.65 C1.46666667,28.65 3.16666667,30.15 6.1,30.15 L12.65,30.15 L31.85,30.15 L36.45,30.15 C39.4166667,30.15 41.1333333,28.6333333 41.6,25.6 C42.6333333,18.8666667 42.6166667,11.9833333 41.55,4.95 Z" id="Path" fill="#FFE0B1"></path>
                        </g>
                    </g>
                </g>
                <g id="Group" transform="translate(12.000000, 29.000000)">
                    <g id="Symbol_16_0_Layer0_1_FILL-link">
                        <g id="Symbol_16_0_Layer0_1_FILL">
                            <path d="M8.8,10.2 C8.8,9.16666667 8.43333333,8.26666667 7.7,7.5 C7.03333333,6.76666667 6.18333333,6.4 5.15,6.4 C4.11666667,6.4 3.23333333,6.76666667 2.5,7.5 C1.83333333,8.26666667 1.5,9.16666667 1.5,10.2 C1.5,11.2333333 1.83333333,12.1166667 2.5,12.85 C3.23333333,13.6166667 4.11666667,14 5.15,14 C6.18333333,14 7.03333333,13.6166667 7.7,12.85 C8.43333333,12.1166667 8.8,11.2333333 8.8,10.2 Z M15.9,16.05 L15.85,13.65 C15.25,13.45 14.6,13.35 13.9,13.35 C12.2666667,13.35 10.85,13.95 9.65,15.15 C9.35,15.4166667 9.1,15.7166667 8.9,16.05 L15.9,16.05 Z M27.4,10.2 C27.4,9.16666667 27.0333333,8.26666667 26.3,7.5 C25.6333333,6.76666667 24.7833333,6.4 23.75,6.4 C22.7166667,6.4 21.8333333,6.76666667 21.1,7.5 C20.4333333,8.26666667 20.1,9.16666667 20.1,10.2 C20.1,11.2333333 20.4333333,12.1166667 21.1,12.85 C21.8333333,13.6166667 22.7166667,14 23.75,14 C24.7833333,14 25.6333333,13.6166667 26.3,12.85 C27.0333333,12.1166667 27.4,11.2333333 27.4,10.2 Z" id="Shape" fill="#FFFFFF" fill-rule="nonzero"></path>
                            <path d="M7.95,1.4 C7.75,1.2 7.51666667,1.08333333 7.25,1.05 C5.68333333,0.783333333 4.23333333,1.18333333 2.9,2.25 C2.03333333,2.91666667 1.4,3.73333333 1,4.7 C0.9,4.96666667 0.9,5.23333333 1,5.5 C1.1,5.76666667 1.28333333,5.93333333 1.55,6 C1.81666667,6.13333333 2.06666667,6.13333333 2.3,6 C2.56666667,5.9 2.75,5.73333333 2.85,5.5 C3.11666667,4.83333333 3.56666667,4.26666667 4.2,3.8 C5.06666667,3.13333333 6.01666667,2.86666667 7.05,3 C7.25,3.03333333 7.48333333,2.96666667 7.75,2.8 C7.95,2.63333333 8.08333333,2.41666667 8.15,2.15 C8.18333333,1.85 8.11666667,1.6 7.95,1.4 Z M25.85,6.55 C26.1166667,6.65 26.3666667,6.63333333 26.6,6.5 C26.8333333,6.43333333 27,6.26666667 27.1,6 C27.2333333,5.7 27.25,5.43333333 27.15,5.2 C26.75,4.23333333 26.1,3.41666667 25.2,2.75 C23.9,1.68333333 22.4666667,1.28333333 20.9,1.55 C20.6333333,1.58333333 20.4166667,1.7 20.25,1.9 C20.0833333,2.1 20.0166667,2.35 20.05,2.65 C20.1166667,2.91666667 20.25,3.13333333 20.45,3.3 C20.65,3.46666667 20.9,3.53333333 21.2,3.5 C22.2,3.36666667 23.1166667,3.63333333 23.95,4.3 C24.55,4.76666667 25,5.33333333 25.3,6 C25.3666667,6.23333333 25.55,6.41666667 25.85,6.55 Z" id="Shape" fill="#B8824D" fill-rule="nonzero"></path>
                            <path d="M19.35,16.8 C19.05,16.2 18.65,15.65 18.15,15.15 L18.1,15.1 C17.4333333,14.4333333 16.6833333,13.95 15.85,13.65 L15.9,16.05 L8.9,16.05 C8.73333333,16.2833333 8.58333333,16.5333333 8.45,16.8 C8.28333333,17.1 8.16666667,17.4166667 8.1,17.75 C8.03333333,17.9833333 8.03333333,18.1833333 8.1,18.35 C8.16666667,18.5833333 8.3,18.75 8.5,18.85 C8.66666667,18.9833333 8.85,19.05 9.05,19.05 L18.75,19.05 C18.95,19.05 19.15,18.9833333 19.35,18.85 C19.5166667,18.75 19.6333333,18.5833333 19.7,18.35 C19.7666667,18.1833333 19.7833333,17.9833333 19.75,17.75 C19.65,17.4166667 19.5166667,17.1 19.35,16.8 Z" id="Path" fill="#7F7058"></path>
                        </g>
                    </g>
                </g>
                <g id="Group" transform="translate(15.000000, 36.000000)" fill="#7F7058" fill-rule="nonzero">
                    <g id="Symbol_16_0_Layer0_1_MEMBER_0_FILL-link">
                        <g id="Symbol_16_0_Layer0_1_MEMBER_0_FILL">
                            <path d="M5.05,3.2 C5.05,2.33333333 4.83333333,1.58333333 4.4,0.95 C4,0.35 3.5,0.05 2.9,0.05 C2.3,0.05 1.78333333,0.35 1.35,0.95 C0.95,1.58333333 0.75,2.33333333 0.75,3.2 C0.75,4.06666667 0.95,4.8 1.35,5.4 C1.78333333,6.03333333 2.3,6.35 2.9,6.35 C3.5,6.35 4,6.03333333 4.4,5.4 C4.83333333,4.8 5.05,4.06666667 5.05,3.2 Z M21.25,5.4 C21.6833333,4.8 21.9,4.06666667 21.9,3.2 C21.9,2.33333333 21.6833333,1.58333333 21.25,0.95 C20.85,0.35 20.35,0.05 19.75,0.05 C19.15,0.05 18.6333333,0.35 18.2,0.95 C17.8,1.58333333 17.6,2.33333333 17.6,3.2 C17.6,4.06666667 17.8,4.8 18.2,5.4 C18.6333333,6.03333333 19.15,6.35 19.75,6.35 C20.35,6.35 20.85,6.03333333 21.25,5.4 Z" id="Shape"></path>
                        </g>
                    </g>
                </g>
                <g id="Group">
                    <g id="Symbol_16_0_Layer0_2_FILL-link">
                        <g id="Symbol_16_0_Layer0_2_FILL">
                            <path d="M8.75,12.6 L5.85,17.35 L1.25,20.85 C-0.35,29.5166667 0.0666666667,37.9333333 2.5,46.1 C5.8,43 7.66666667,37.5 8.1,29.6 C11.2666667,17.8666667 24.4333333,8.11666667 47.6,0.35 C30.7666667,3.91666667 17.8166667,8 8.75,12.6 Z" id="Path" fill="#B8824D"></path>
                            <path d="M25.6,27.85 C31.1666667,29.45 37.0833333,30.1666667 43.35,30 L44.35,38.1 C47.3833333,29.1 48.3666667,22.7666667 47.3,19.1 C45.8333333,14 45.9333333,7.75 47.6,0.35 C24.4333333,8.11666667 11.2666667,17.8666667 8.1,29.6 C12.9,26.3333333 18.7333333,25.75 25.6,27.85 Z" id="Path" fill="#C48A51"></path>
                        </g>
                    </g>
                </g>
            </g>
            <g id="head" transform="translate(0.400000, 0.250000)">
                <g id="Group" transform="translate(2.000000, 23.000000)">
                    <g id="Symbol_12_0_Layer0_0_FILL-link">
                        <g id="Symbol_12_0_Layer0_0_FILL">
                            <path d="M15.3,33.15 C17.2666667,34.45 19.65,35.1 22.45,35.1 C25.25,35.1 27.6333333,34.45 29.6,33.15 C30.7666667,32.3833333 31.5833333,31.5166667 32.05,30.55 L12.85,30.55 C13.3166667,31.5166667 14.1333333,32.3833333 15.3,33.15 Z" id="Path" fill="#D7BD93"></path>
                            <path d="M41.8,26 C42.8333333,19.2666667 42.8166667,12.3833333 41.75,5.35 C41.3166667,2.38333333 39.6166667,0.9 36.65,0.9 L6.3,0.9 C3.36666667,0.9 1.66666667,2.41666667 1.2,5.45 C0.2,12.3166667 0.2,19.1833333 1.2,26.05 C1.66666667,29.05 3.36666667,30.55 6.3,30.55 L12.85,30.55 L32.05,30.55 L36.65,30.55 C39.6166667,30.55 41.3333333,29.0333333 41.8,26 Z" id="Path" fill="#FFE0B1"></path>
                        </g>
                    </g>
                </g>
                <g id="Group" transform="translate(13.000000, 29.000000)">
                    <g id="Symbol_12_0_Layer0_1_FILL-link">
                        <g id="Symbol_12_0_Layer0_1_FILL">
                            <path d="M6.9,7.9 C6.23333333,7.16666667 5.38333333,6.8 4.35,6.8 C3.31666667,6.8 2.43333333,7.16666667 1.7,7.9 C1.03333333,8.66666667 0.7,9.56666667 0.7,10.6 C0.7,11.6333333 1.03333333,12.5166667 1.7,13.25 C2.43333333,14.0166667 3.31666667,14.4 4.35,14.4 C5.38333333,14.4 6.23333333,14.0166667 6.9,13.25 C7.63333333,12.5166667 8,11.6333333 8,10.6 C8,9.56666667 7.63333333,8.66666667 6.9,7.9 Z M15.05,18.35 L15.05,15.35 L8.2,15.35 C8,15.35 7.81666667,15.4166667 7.65,15.55 C7.45,15.65 7.31666667,15.8166667 7.25,16.05 C7.18333333,16.2166667 7.18333333,16.4166667 7.25,16.65 C7.31666667,16.9833333 7.43333333,17.3 7.6,17.6 C7.73333333,17.8666667 7.88333333,18.1166667 8.05,18.35 L15.05,18.35 Z M25.5,7.9 C24.8333333,7.16666667 23.9833333,6.8 22.95,6.8 C21.9166667,6.8 21.0333333,7.16666667 20.3,7.9 C19.6333333,8.66666667 19.3,9.56666667 19.3,10.6 C19.3,11.6333333 19.6333333,12.5166667 20.3,13.25 C21.0333333,14.0166667 21.9166667,14.4 22.95,14.4 C23.9833333,14.4 24.8333333,14.0166667 25.5,13.25 C26.2333333,12.5166667 26.6,11.6333333 26.6,10.6 C26.6,9.56666667 26.2333333,8.66666667 25.5,7.9 Z" id="Shape" fill="#FFFFFF" fill-rule="nonzero"></path>
                            <path d="M7.35,2.7 C7.58333333,2.8 7.83333333,2.8 8.1,2.7 C8.33333333,2.56666667 8.51666667,2.38333333 8.65,2.15 C8.75,1.88333333 8.75,1.63333333 8.65,1.4 C8.51666667,1.13333333 8.33333333,0.95 8.1,0.85 C6.63333333,0.216666667 5.13333333,0.233333333 3.6,0.9 C2.56666667,1.33333333 1.73333333,1.96666667 1.1,2.8 C0.933333333,3 0.866666667,3.25 0.9,3.55 C0.933333333,3.81666667 1.06666667,4.03333333 1.3,4.2 C1.5,4.36666667 1.75,4.43333333 2.05,4.4 C2.31666667,4.36666667 2.53333333,4.23333333 2.7,4 C3.13333333,3.43333333 3.7,3.01666667 4.4,2.75 C5.4,2.31666667 6.38333333,2.3 7.35,2.7 Z M23.2,4.25 C23.9,4.51666667 24.4666667,4.93333333 24.9,5.5 C25.0666667,5.73333333 25.3,5.86666667 25.6,5.9 C25.8666667,5.93333333 26.1,5.86666667 26.3,5.7 C26.5333333,5.53333333 26.6666667,5.31666667 26.7,5.05 C26.7333333,4.75 26.6666667,4.5 26.5,4.3 C25.8666667,3.46666667 25.0333333,2.83333333 24,2.4 C22.4666667,1.73333333 20.9833333,1.71666667 19.55,2.35 C19.2833333,2.45 19.1,2.63333333 19,2.9 C18.8666667,3.13333333 18.8666667,3.38333333 19,3.65 C19.1,3.88333333 19.2833333,4.06666667 19.55,4.2 C19.7833333,4.3 20.0333333,4.3 20.3,4.2 C21.2333333,3.8 22.2,3.81666667 23.2,4.25 Z" id="Shape" fill="#B8824D" fill-rule="nonzero"></path>
                            <path d="M18.5,17.6 C18.6666667,17.3 18.8,16.9833333 18.9,16.65 C18.9333333,16.4166667 18.9166667,16.2166667 18.85,16.05 C18.7833333,15.8166667 18.6666667,15.65 18.5,15.55 C18.3,15.4166667 18.1,15.35 17.9,15.35 L15.05,15.35 L15.05,18.35 L8.05,18.35 C8.25,18.6833333 8.5,18.9833333 8.8,19.25 C10,20.45 11.4166667,21.05 13.05,21.05 C14.6833333,21.05 16.0833333,20.4666667 17.25,19.3 L17.3,19.25 C17.8,18.75 18.2,18.2 18.5,17.6 Z" id="Path" fill="#7F7058"></path>
                        </g>
                    </g>
                </g>
                <g id="Group" transform="translate(32.000000, 36.000000)" fill="#7F7058">
                    <g id="Symbol_12_0_Layer0_1_MEMBER_0_FILL-link">
                        <g id="Symbol_12_0_Layer0_1_MEMBER_0_FILL">
                            <path d="M4.45,5.8 C4.88333333,5.2 5.1,4.46666667 5.1,3.6 C5.1,2.73333333 4.88333333,1.98333333 4.45,1.35 C4.05,0.75 3.55,0.45 2.95,0.45 C2.35,0.45 1.83333333,0.75 1.4,1.35 C1,1.98333333 0.8,2.73333333 0.8,3.6 C0.8,4.46666667 1,5.2 1.4,5.8 C1.83333333,6.43333333 2.35,6.75 2.95,6.75 C3.55,6.75 4.05,6.43333333 4.45,5.8 Z" id="Path"></path>
                        </g>
                    </g>
                </g>
                <g id="Group" transform="translate(15.000000, 36.000000)" fill="#7F7058">
                    <g id="Symbol_12_0_Layer0_1_MEMBER_1_FILL-link">
                        <g id="Symbol_12_0_Layer0_1_MEMBER_1_FILL">
                            <path d="M4.6,5.8 C5.03333333,5.2 5.25,4.46666667 5.25,3.6 C5.25,2.73333333 5.03333333,1.98333333 4.6,1.35 C4.2,0.75 3.7,0.45 3.1,0.45 C2.5,0.45 1.98333333,0.75 1.55,1.35 C1.15,1.98333333 0.95,2.73333333 0.95,3.6 C0.95,4.46666667 1.15,5.2 1.55,5.8 C1.98333333,6.43333333 2.5,6.75 3.1,6.75 C3.7,6.75 4.2,6.43333333 4.6,5.8 Z" id="Path"></path>
                        </g>
                    </g>
                </g>
                <g id="Group">
                    <g id="Symbol_12_0_Layer0_2_FILL-link">
                        <g id="Symbol_12_0_Layer0_2_FILL">
                            <path d="M1.45,21.25 C-0.15,29.9166667 0.266666667,38.3333333 2.7,46.5 C6,43.4 7.86666667,37.9 8.3,30 C11.4666667,18.2666667 24.6333333,8.51666667 47.8,0.75 C30.9666667,4.31666667 18.0166667,8.4 8.95,13 L6.05,17.75 L1.45,21.25 Z" id="Path" fill="#B8824D"></path>
                            <path d="M25.8,28.25 C31.3666667,29.85 37.2833333,30.5666667 43.55,30.4 L44.55,38.5 C47.5833333,29.5 48.5666667,23.1666667 47.5,19.5 C46.0333333,14.4 46.1333333,8.15 47.8,0.75 C24.6333333,8.51666667 11.4666667,18.2666667 8.3,30 C13.1,26.7333333 18.9333333,26.15 25.8,28.25 Z" id="Path" fill="#C48A51"></path>
                        </g>
                    </g>
                </g>
            </g>
        </g>
    </g>
</svg>