<?xml version="1.0" encoding="UTF-8"?>
<svg width="160px" height="16px" viewBox="0 0 160 16" version="1.1" xmlns="http://www.w3.org/2000/svg" xmlns:xlink="http://www.w3.org/1999/xlink">
    <!-- Generator: Sketch 52.5 (67469) - http://www.bohemiancoding.com/sketch -->
    <title>icons</title>
    <desc>Created with Sketch.</desc>
    <g id="icons" stroke="none" stroke-width="1" fill="none" fill-rule="evenodd">
        <g id="Sword-Weapon" transform="translate(81.000000, 1.000000)" fill="#000000" fill-rule="nonzero">
            <g id="Group" transform="translate(7.000000, 7.000000) scale(-1, 1) rotate(-180.000000) translate(-7.000000, -7.000000) ">
                <path d="M11.5371429,13.6579302 C10.4057143,13.467177 9.50557143,13.3015717 9.47742857,13.2765666 C9.44928571,13.254705 8.246,11.7604001 6.802,9.95345989 C5.35785714,8.1496632 4.17014286,6.66464585 4.164,6.65850174 C4.15771429,6.64907124 3.92328571,6.87111655 3.64514286,7.14931619 C3.15442857,7.63698714 3.12942857,7.65570525 3.00757143,7.65570525 C2.77942857,7.65570525 2.61057143,7.43380282 2.68571429,7.23047561 C2.70442857,7.1804654 2.93571429,6.92098387 3.20142857,6.65521535 L3.68571429,6.17083078 L2.16985714,4.65452133 L0.657142857,3.14149826 L0.585285714,3.20722596 C0.410285714,3.36983058 0.169571429,3.35725658 0.0601428571,3.17593386 C-0.0148571429,3.05719535 -0.018,2.96331904 0.0414285714,2.84772403 C0.119571429,2.70083691 2.81685714,0.0341498265 2.91071429,0.0122882221 C3.03257143,-0.0190038783 3.14828571,0.0154317208 3.23257143,0.109165136 C3.36071429,0.249765258 3.35128571,0.431230863 3.20757143,0.584404981 L3.14185714,0.656276791 L4.65457143,2.16929986 L6.17042857,3.68546642 L6.65485714,3.20093897 C6.92057143,2.93517044 7.18,2.70383752 7.23,2.68511941 C7.43314286,2.6101041 7.655,2.77885283 7.655,3.00718514 C7.655,3.12906716 7.63628571,3.15407226 7.14871429,3.64488671 C6.84242857,3.95123495 6.65485714,4.16384977 6.67057143,4.18256787 C6.68928571,4.19499898 8.18014286,5.3923862 9.98985714,6.83668096 C12.9904286,9.23759951 13.2811429,9.47822004 13.3124286,9.58452745 C13.353,9.72841396 14,13.614207 14,13.7173709 C14,13.7579506 13.9531429,13.8361094 13.8937143,13.8955501 C13.8061429,13.9831394 13.7655714,14.0018575 13.6687143,13.998714 C13.6,13.9955705 12.6435714,13.8423964 11.5371429,13.6579302 Z M13.2498571,13.2139824 C13.2498571,13.1921208 13.1248571,12.4293938 12.9717143,11.5227802 C12.7467143,10.1785058 12.6872857,9.85958359 12.6372857,9.81271688 C12.606,9.78142478 11.137,8.59975505 9.37428571,7.1898959 L6.17057143,4.62637273 L5.90485714,4.89214125 L5.63914286,5.15476628 L7.97714286,7.49310063 C9.72114286,9.24060012 10.312,9.85029598 10.3181429,9.9064503 C10.3275714,10.0690549 10.3055714,10.1440702 10.2244286,10.2253725 C10.1431429,10.3066748 10.0681429,10.3285364 9.90557143,10.3191059 C9.84928571,10.3128189 9.23985714,9.72198408 7.49257143,7.97762809 L5.15471429,5.63929373 L4.89214286,5.90506226 L4.62642857,6.17083078 L7.18942857,9.37519902 C8.599,11.138416 9.78042857,12.6077159 9.81171429,12.6388651 C9.85857143,12.6888753 10.1711429,12.748316 11.4901429,12.9733619 C12.3808571,13.1233925 13.1404286,13.2452745 13.181,13.248418 C13.2185714,13.2515615 13.2498571,13.2328434 13.2498571,13.2139824 Z M4.34214286,5.51426822 L4.51085714,5.342376 L4.17014286,5.342376 L3.82942857,5.342376 L3.99814286,5.51426822 C4.09185714,5.60800163 4.17,5.68616044 4.17,5.68616044 C4.17,5.68616044 4.24828571,5.60800163 4.34214286,5.51426822 Z M5.44542857,4.4107573 L5.68614286,4.16685038 L5.59857143,4.08240457 L5.511,3.99795877 L3.99828571,3.99795877 L2.48242857,3.99795877 L2.81057143,4.32616861 L3.13871429,4.65437844 L4.17014286,4.65437844 L5.20157143,4.65437844 L5.44542857,4.4107573 Z M4.514,2.99775464 L4.17014286,2.65382731 L2.65428571,2.65382731 L1.13842857,2.65382731 L1.48228571,2.99775464 L1.82614286,3.34168198 L3.342,3.34168198 L4.85785714,3.34168198 L4.514,2.99775464 Z M3.08257143,1.5690345 L2.65428571,1.13766075 L2.22614286,1.5690345 L1.79485714,1.99726475 L2.65428571,1.99726475 L3.51385714,1.99726475 L3.08257143,1.5690345 Z" id="Shape"></path>
            </g>
        </g>
        <g id="Move" transform="translate(39.000000, 8.000000) scale(-1, 1) rotate(-180.000000) translate(-39.000000, -8.000000) translate(1.000000, -0.000000)" fill="#000000" fill-rule="nonzero">
            <path d="M38.4461007,14.7837033 C38.2382987,14.6026408 33.0203935,6.60407686 31.3367183,3.87772754 C30.9003871,3.18760771 30.8897578,2.76879233 31.2952642,2.32799492 L31.5966038,2 L39.0280529,2 L46.459502,2 L46.7300167,2.35055542 C46.8857354,2.55417837 47,2.83705229 47,3.02910576 C47,3.2778497 46.1374353,4.69221934 43.4035889,8.95731026 C41.4286719,12.034215 39.6929133,14.6593313 39.5478238,14.7837033 C39.2044986,15.0665772 38.7888945,15.0775682 38.4461007,14.7837033 Z M41.5104846,8.09096169 C42.8631434,5.93800692 43.9795321,4.13673233 43.9999635,4.09096176 C44.0104411,4.04577057 41.7666621,4 39.0000506,4 C36.2339631,4 33.9797065,4.03418308 34.0001378,4.09096176 C34.0514781,4.26071842 38.9487104,11.9999999 39.0000506,11.9999999 C39.0309596,12.0005792 40.1578259,10.2439165 41.5104846,8.09096169 Z" id="Shape"></path>
            <path d="M11.0295475,15.6741129 C8.89925862,14.3515252 0.389054376,8.80134223 0.219599581,8.62457124 C-0.0731998604,8.32214377 -0.0731998604,7.64540907 0.219599581,7.38504457 C0.343520605,7.27056939 2.92511253,5.58379083 5.95685478,3.62599893 C9.57534866,1.29336735 11.5817165,0.0543731255 11.8295585,0.0128425929 C12.122358,-0.0286879398 12.2693341,0.0234914474 12.5736611,0.273207086 L12.9569517,0.585750966 L12.9909579,7.70823731 C13.0134366,11.6232887 12.9909579,14.976613 12.9569517,15.1741492 C12.7880732,16.0383038 11.9540559,16.2571377 11.0295475,15.6741129 Z M11,8 L11,3 L10.689229,3.18329515 C9.20423779,4.03832535 3,7.94896896 3,8.03020204 C3,8.12184961 10.7469099,12.9895855 10.9193643,13 C10.9652737,13 11,10.7494272 11,8 Z" id="Shape"></path>
            <path d="M17.3807019,15.751564 C17.2345631,15.616463 17.0884243,15.3457291 17.0429716,15.1585025 C17.009026,14.9606381 16.9865873,11.6113034 17.009026,7.70028903 L17.0429716,0.585146974 L17.4255792,0.272925371 C17.7293639,0.0234672244 17.8755027,-0.0286583585 18.1683557,0.0128293503 C18.6861705,0.0963366616 29.6678711,7.20084085 29.8928328,7.60667574 C30.0953559,7.97049103 30.0056014,8.40770766 29.6678711,8.69918541 C29.386525,8.93853757 18.9669412,15.6999703 18.5958406,15.876559 C18.1907944,16.0839976 17.6729796,16.021766 17.3807019,15.751564 Z M23.0804625,10.5463444 C25.2581155,9.19193907 27.02321,8.05155167 26.9997692,8.00052063 C26.9769144,7.93959583 20.3982455,3.81493437 19.2637093,3.14267861 L19,3 L19,7.99999991 C19,10.7494271 19.0345752,12.9999998 19.0685644,12.9999998 C19.1037257,13.0005205 20.9145298,11.8903352 23.0804625,10.5463444 Z" id="Shape"></path>
            <path d="M71.0359351,11.2279013 C69.8576064,11.0555986 68.7850627,10.2415664 68.2487909,9.12159902 C68.0284053,8.66196206 68,8.47056904 68,7.58996533 C68,6.68048134 68.028895,6.52726902 68.2683808,6.03924128 C68.6420569,5.28296961 69.264524,4.67012033 70.0402816,4.30642464 C70.6245485,4.02888028 70.7680441,4 71.5917968,4 C72.4057545,4 72.5688399,4.02888028 73.1242118,4.29663471 C73.8710744,4.65054049 74.5224365,5.29227004 74.9059076,6.03875178 C75.1644934,6.53656945 75.1835935,6.67069141 75.1835935,7.58947583 C75.1835935,8.43189884 75.1453933,8.67126249 74.9632078,9.06383847 C74.2540557,10.6057516 72.7025406,11.457475 71.0359351,11.2279013 Z M72.0991736,9.39914338 C72.9229262,9.17887008 73.5933884,8.15484397 73.4400979,7.36969203 C73.2486073,6.3740567 72.5492501,5.77099735 71.5917968,5.77099735 C69.5040098,5.77099735 69.0152433,8.66196206 70.9786348,9.36096268 C71.4380165,9.52396492 71.6295072,9.53326535 72.0991736,9.39914338 Z" id="Shape"></path>
            <path d="M47.4984699,13.8318738 C47.1864085,13.6516564 46.9477107,13.1000644 47.0099104,12.7281141 C47.0620092,12.4580759 54.1214015,1.43372126 54.4228304,1.16368302 C54.6928938,0.916099977 55.3691154,0.961010389 55.6078131,1.22010892 C55.7221116,1.34390044 57.4270194,3.94524969 59.4025222,7.00779432 C61.7001872,10.5545653 63,12.6716882 63,12.8403901 C63,13.2797061 62.7193042,13.7414772 62.3657764,13.8762085 C62.1371795,13.9660293 59.8602477,14 54.9007575,14 C48.9434151,13.9896361 47.7270668,13.9671809 47.4984699,13.8318738 Z M60,11.9540799 C60,11.816352 55.0819159,4 55,4 C54.9186059,4 50,11.8157634 50,11.9540799 C50,11.9770345 52.255035,11.9999892 55,11.9999892 C57.7554002,12.0005778 60,11.9770345 60,11.9540799 Z" id="Shape"></path>
        </g>
    </g>
</svg>