<?xml version="1.0" encoding="UTF-8"?>
<svg width="230px" height="150px" viewBox="0 0 230 150" version="1.1" xmlns="http://www.w3.org/2000/svg" xmlns:xlink="http://www.w3.org/1999/xlink">
    <!-- Generator: Sketch 52.5 (67469) - http://www.bohemiancoding.com/sketch -->
    <title>man</title>
    <desc>Created with Sketch.</desc>
    <g id="man" stroke="none" stroke-width="1" fill="none" fill-rule="evenodd">
        <g id="Group-2" transform="translate(-2.000000, 3.000000)">
            <g id="handRight_FL_FL_FL_FL_FL_FL_FL_FL_FL_FL_FL_FL_FL_FL_FL_FL_FL_FL_FL_FL_FL" transform="translate(122.500000, 137.000000) scale(-1, 1) translate(-122.500000, -137.000000) translate(114.000000, 129.000000)" fill-rule="nonzero">
                <g id="Group">
                    <g id="Symbol_9_0_Layer0_0_FILL-link">
                        <g id="Symbol_9_0_Layer0_0_FILL">
                            <path d="M14.9,7.15 C13.7,3.85 12.2833333,1.46666667 10.65,0 L1,2.55 C0.2,2.75 -0.116666667,3.21666667 0.05,3.95 L0.2,4.5 C2,12.5666667 5.2,16 9.8,14.8 C11.4333333,14.4 13.05,13.7833333 14.65,12.95 C15.7166667,12.4166667 16.15,11.75 15.95,10.95 L15.9,10.7 C15.6333333,9.73333333 15.3666667,8.8 15.1,7.9 L15.1,7.95 L14.9,7.15 Z M1.85,6 C1.81666667,5.7 2.18333333,5.31666667 2.95,4.85 C3.68333333,4.38333333 4.61666667,3.95 5.75,3.55 C6.91666667,3.18333333 7.9,2.95 8.7,2.85 C9.56666667,2.78333333 10.0166667,2.88333333 10.05,3.15 C10.1166667,3.45 9.78333333,3.83333333 9.05,4.3 C8.31666667,4.8 7.36666667,5.25 6.2,5.65 C5.06666667,6.05 4.08333333,6.28333333 3.25,6.35 C2.38333333,6.41666667 1.91666667,6.3 1.85,6 Z" id="Shape" fill="#FFE0B1"></path>
                            <path d="M2.95,4.85 C2.18333333,5.31666667 1.81666667,5.7 1.85,6 C1.91666667,6.3 2.38333333,6.41666667 3.25,6.35 C4.08333333,6.28333333 5.06666667,6.05 6.2,5.65 C7.36666667,5.25 8.31666667,4.8 9.05,4.3 C9.78333333,3.83333333 10.1166667,3.45 10.05,3.15 C10.0166667,2.88333333 9.56666667,2.78333333 8.7,2.85 C7.9,2.95 6.91666667,3.18333333 5.75,3.55 C4.61666667,3.95 3.68333333,4.38333333 2.95,4.85 Z M15.1,7.9 C17.1666667,5 15.6833333,2.36666667 10.65,0 C12.2833333,1.46666667 13.7,3.85 14.9,7.15 L15.1,7.95 L15.1,7.9 Z" id="Shape" fill="#E7CBA0"></path>
                        </g>
                    </g>
                </g>
            </g>
            <g id="legRight_FL_FL_FL_FL_FL_FL_FL_FL_FL_FL_FL_FL_FL_FL_FL_FL_FL_FL_FL" transform="translate(87.500000, 134.500000) scale(-1, 1) translate(-87.500000, -134.500000) translate(77.000000, 123.000000)">
                <g id="Group">
                    <g id="Symbol_11_0_Layer0_0_FILL-link">
                        <g id="Symbol_11_0_Layer0_0_FILL">
                            <polygon id="Path" fill="#916B4E" points="20.95 16.25 21 13.35 3.25 13.35 3.25 15.35"></polygon>
                            <path d="M20.95,23 L20.95,16.25 L3.25,15.35 L4.8,18 L3.25,18 C2.05,18.6 0.966666667,19.55 0,20.85 L0,23 L20.95,23 Z" id="Path" fill="#AA7E5C"></path>
                            <polygon id="Path" fill="#E0C1A2" points="21 13.35 21 9.95 3.25 9.95 3.25 13.35"></polygon>
                            <path d="M18.45,2.5 C16.7166667,0.833333333 14.6166667,0 12.15,0 L12.1,0 C9.63333333,0 7.55,0.833333333 5.85,2.5 C4.11666667,4.2 3.25,6.26666667 3.25,8.7 L3.25,9.95 L21,9.95 L21,8.7 C21,6.26666667 20.15,4.2 18.45,2.5 Z" id="Path" fill="#ECCFB1"></path>
                        </g>
                    </g>
                </g>
            </g>
            <g id="armRight_FL_FL_FL_FL_FL_FL_FL_FL_FL_FL_FL_FL_FL_FL_FL_FL_FL_FL_FL_FL_FL_FL" transform="translate(125.000000, 97.500000) scale(-1, 1) translate(-125.000000, -97.500000) translate(116.000000, 80.000000)">
                <g id="Group">
                    <g id="Symbol_8_0_Layer0_0_FILL-link">
                        <g id="Symbol_8_0_Layer0_0_FILL">
                            <path d="M16.15,16.95 C16.1701823,16.8825521 16.186849,16.8158854 16.2,16.75 L1.3,14.05 C0.157682292,15.6135417 0.0743489583,17.4802083 1.05,19.65 L2.1,19.45 L16.15,16.95 Z" id="Path" fill="#E7E2DA"></path>
                            <path d="M16.7,16.85 L17.2,13.9 L1.8,11.05 C0.933333333,11.45 0.766666667,12.45 1.3,14.05 L16.2,16.75 L16.7,16.85 Z" id="Path" fill="#637480"></path>
                            <path d="M2.1,19.45 C1.84127604,23.0654948 1.82460937,26.6654948 2.05,30.25 C4.08333333,32.1833333 6.6,33.4333333 9.6,34 C12.7330729,28.75625 14.9164062,23.0729167 16.15,16.95 L2.1,19.45 Z" id="Path" fill="#FFE0B1"></path>
                            <path d="M16.6,4.35 C15.3666667,2.55 13.6833333,1.46666667 11.55,1.1 L11.5,1.1 C11.1,1.03333333 10.7166667,1 10.35,1 C6.98333333,0.9 4.13333333,4.25 1.8,11.05 L17.2,13.9 L17.85,10.3 C18.25,8.16666667 17.8333333,6.18333333 16.6,4.35 Z" id="Path" fill="#7E95A3"></path>
                        </g>
                    </g>
                </g>
            </g>
            <g id="Group" transform="translate(59.000000, 75.000000)">
                <g id="Symbol_18_0_Layer0_0_FILL-link">
                    <g>
                        <g id="Symbol_18_0_Layer0_0_FILL">
                            <path d="M0,26.95 L0,31 L39,31 L39,26.95 L0,26.95 Z M0,14.45 C4.46666667,13.3166667 6.3,10.7 5.5,6.6 C4.96666667,4.3 5.16666667,2.1 6.1,0 L0,0 L0,14.45 Z M32.9,0 C33.8333333,2.1 34.0333333,4.3 33.5,6.6 C32.7,10.7 34.5333333,13.3166667 39,14.45 L39,0 L32.9,0 Z" id="Shape" fill="#B8824D" fill-rule="nonzero"></path>
                            <path d="M33.5,6.6 C34.0333333,4.3 33.8333333,2.1 32.9,0 L6.1,0 C5.16666667,2.1 4.96666667,4.3 5.5,6.6 C6.3,10.7 4.46666667,13.3166667 0,14.45 L0,26.95 L39,26.95 L39,14.45 C34.5333333,13.3166667 32.7,10.7 33.5,6.6 Z" id="Path" fill="#7E95A3"></path>
                        </g>
                    </g>
                </g>
                <g transform="translate(10.593982, 6.980414)" id="Symbol_18_0_Layer0_1_FILL-link">
                    <g>
                        <g id="Symbol_18_0_Layer0_1_FILL">
                            <path d="M14.8566818,17.8064346 L12.3026276,17.8064346 L4.42462921,17.8064346 L1.90654755,17.8064346 C6.22325897,18.9095942 10.5399704,18.9095942 14.8566818,17.8064346 Z" id="Path" fill-opacity="0.101960784" fill="#000000"></path>
                            <path d="M11.0795593,12.5184631 L5.68367004,12.5184631 L3.84906769,14.2091751 L4.42462921,17.8064346 L12.3026276,17.8064346 L12.9141617,14.2091751 L11.0795593,12.5184631 Z M7.62619019,5.93547821 C7.62619019,6.15131378 7.69813538,6.33117676 7.84202576,6.47506714 C7.98591614,6.64293925 8.16577911,6.72687531 8.38161469,6.72687531 C8.59745026,6.72687531 8.77731323,6.64293925 8.92120361,6.47506714 C9.06509399,6.33117676 9.13703918,6.15131378 9.13703918,5.93547821 C9.13703918,5.74362437 9.06509399,5.56376139 8.92120361,5.39588928 C8.77731323,5.2519989 8.59745026,5.18005371 8.38161469,5.18005371 C8.16577911,5.18005371 7.98591614,5.2519989 7.84202576,5.39588928 C7.69813538,5.56376139 7.62619019,5.74362437 7.62619019,5.93547821 Z M0.431671143,6.22325897 L0.431671143,7.66216278 L8.38161469,8.81328583 L16.3315582,7.66216278 L16.3315582,6.22325897 L8.38161469,7.37438202 L0.431671143,6.22325897 Z" id="Shape" fill="#9C6E41" fill-rule="nonzero"></path>
                            <path d="M5.68367004,12.5184631 L11.0795593,12.5184631 L12.9141617,14.2091751 L12.3026276,17.8064346 L14.8566818,17.8064346 L15.5761337,17.8064346 C16.0797501,17.8064346 16.3315582,17.5546265 16.3315582,17.0510101 L16.3315582,7.66216278 L8.38161469,8.81328583 L0.431671143,7.66216278 L0.431671143,17.0510101 C0.431671143,17.5546265 0.683479309,17.8064346 1.18709564,17.8064346 L1.90654755,17.8064346 L4.42462921,17.8064346 L3.84906769,14.2091751 L5.68367004,12.5184631 Z M0.431671143,1.29501343 L0.431671143,6.22325897 L8.38161469,7.37438202 L16.3315582,6.22325897 L16.3315582,1.29501343 C16.3315582,0.791397095 16.0797501,0.539588928 15.5761337,0.539588928 L1.18709564,0.539588928 C0.683479309,0.539588928 0.431671143,0.791397095 0.431671143,1.29501343 Z M7.84202576,6.47506714 C7.69813538,6.33117676 7.62619019,6.15131378 7.62619019,5.93547821 C7.62619019,5.74362437 7.69813538,5.56376139 7.84202576,5.39588928 C7.98591614,5.2519989 8.16577911,5.18005371 8.38161469,5.18005371 C8.59745026,5.18005371 8.77731323,5.2519989 8.92120361,5.39588928 C9.06509399,5.56376139 9.13703918,5.74362437 9.13703918,5.93547821 C9.13703918,6.15131378 9.06509399,6.33117676 8.92120361,6.47506714 C8.77731323,6.64293925 8.59745026,6.72687531 8.38161469,6.72687531 C8.16577911,6.72687531 7.98591614,6.64293925 7.84202576,6.47506714 Z" id="Shape" fill="#B8824D" fill-rule="nonzero"></path>
                        </g>
                    </g>
                </g>
            </g>
            <g id="body_FL_FL_FL_FL_FL_FL_FL_FL_FL_FL_FL_FL_FL_FL_FL_FL_FL_FL_FL_FL" transform="translate(9.000000, 75.000000)">
                <g id="Group">
                    <g id="Symbol_10_0_Layer0_0_FILL-link">
                        <g id="Symbol_10_0_Layer0_0_FILL">
                            <path d="M39,31 L39,26.95 L13.4,26.95 L2.45,26.95 L0,26.95 L0,31 L39,31 Z M7.9,2.4 C7.46666667,1.63333333 6.96666667,0.833333333 6.4,0 L0,0 L0,17.45 C8.6,15.9833333 11.7666667,12.1 9.5,5.8 L7.2,4.6 C7.3,3.83333333 7.53333333,3.1 7.9,2.4 Z M39,0 L32.9,0 C33.8333333,2.1 34.0333333,4.3 33.5,6.6 C32.7,10.7 34.5333333,13.3166667 39,14.45 L39,0 Z" id="Shape" fill="#B8824D" fill-rule="nonzero"></path>
                            <polygon id="Path" fill="#E0C79A" points="21.6 11.9 32.9 0 9.7 0"></polygon>
                            <path d="M33.5,6.6 C34.0333333,4.3 33.8333333,2.1 32.9,0 L21.6,11.9 L33.5,6.6 Z M7.9,2.4 C7.53333333,3.1 7.3,3.83333333 7.2,4.6 L9.5,5.8 L21.6,11.9 L9.7,0 C8.93333333,0.733333333 8.33333333,1.53333333 7.9,2.4 Z" id="Shape" fill="#637480" fill-rule="nonzero"></path>
                            <path d="M9.5,5.8 C11.7666667,12.1 8.6,15.9833333 0,17.45 L0,26.95 L2.45,26.95 L9.7,21.9 L13.4,26.95 L39,26.95 L39,14.45 C34.5333333,13.3166667 32.7,10.7 33.5,6.6 L21.6,11.9 L9.5,5.8 Z M22.75,15.5 C22.4166667,15.2 22.25,14.85 22.25,14.45 C22.25,14.05 22.4166667,13.6833333 22.75,13.35 C23.05,13.05 23.4,12.9 23.8,12.9 C24.2,12.9 24.55,13.05 24.85,13.35 C25.15,13.6833333 25.3,14.05 25.3,14.45 C25.3,14.85 25.15,15.2 24.85,15.5 C24.55,15.8 24.2,15.95 23.8,15.95 C23.4,15.95 23.05,15.8 22.75,15.5 Z M21.4,19.8 C23.8,19.8 25.85,20.0166667 27.55,20.45 C29.0833333,20.8833333 29.9333333,21.3666667 30.1,21.9 L12.75,21.9 C12.8833333,21.3666667 13.7166667,20.8833333 15.25,20.45 C16.95,20.0166667 19,19.8 21.4,19.8 Z M6.4,0 C6.96666667,0.833333333 7.46666667,1.63333333 7.9,2.4 C8.33333333,1.53333333 8.93333333,0.733333333 9.7,0 L6.4,0 Z" id="Shape" fill="#7E95A3" fill-rule="nonzero"></path>
                            <path d="M27.55,20.45 C25.85,20.0166667 23.8,19.8 21.4,19.8 C19,19.8 16.95,20.0166667 15.25,20.45 C13.7166667,20.8833333 12.8833333,21.3666667 12.75,21.9 L30.1,21.9 C29.9333333,21.3666667 29.0833333,20.8833333 27.55,20.45 Z" id="Path" fill="#738895"></path>
                            <path d="M22.25,14.45 C22.25,14.85 22.4166667,15.2 22.75,15.5 C23.05,15.8 23.4,15.95 23.8,15.95 C24.2,15.95 24.55,15.8 24.85,15.5 C25.15,15.2 25.3,14.85 25.3,14.45 C25.3,14.05 25.15,13.6833333 24.85,13.35 C24.55,13.05 24.2,12.9 23.8,12.9 C23.4,12.9 23.05,13.05 22.75,13.35 C22.4166667,13.6833333 22.25,14.05 22.25,14.45 Z M9.7,21.9 L2.45,26.95 L13.4,26.95 L9.7,21.9 Z" id="Shape" fill="#E7E2DA" fill-rule="nonzero"></path>
                        </g>
                    </g>
                </g>
            </g>
            <g id="Group" transform="translate(180.000000, 1.700000)">
                <g transform="translate(4.000000, 18.000000)" id="Symbol_17_0_Layer0_0_FILL-link">
                    <g>
                        <g id="Symbol_17_0_Layer0_0_FILL">
                            <path d="M15.65,32.7 C17.6166667,34 20,34.65 22.8,34.65 C25.6,34.65 27.9833333,34 29.95,32.7 C31.1166667,31.9333333 31.9333333,31.0666667 32.4,30.1 L13.2,30.1 C13.6666667,31.0666667 14.4833333,31.9333333 15.65,32.7 Z" id="Path" fill="#D7BD93"></path>
                            <path d="M42.15,25.55 C43.1833333,18.8166667 43.1666667,11.9333333 42.1,4.9 C41.6666667,1.93333333 39.9666667,0.45 37,0.45 L6.65,0.45 C3.71666667,0.45 2.01666667,1.96666667 1.55,5 C0.55,11.8666667 0.55,18.7333333 1.55,25.6 C2.01666667,28.6 3.71666667,30.1 6.65,30.1 L13.2,30.1 L32.4,30.1 L37,30.1 C39.9666667,30.1 41.6833333,28.5833333 42.15,25.55 Z" id="Path" fill="#FFE0B1"></path>
                        </g>
                    </g>
                </g>
                <g id="Symbol_17_0_Layer0_1_FILL-link">
                    <g>
                        <g id="Symbol_17_0_Layer0_1_FILL">
                            <path d="M27,42.65 L46.8,35.8 C32.9333333,39.5165365 19.0666667,39.8165365 5.2,36.7 L27,42.65 Z M41.15,1.45 C41.553125,1.02278646 42.053125,0.756119792 42.65,0.65 C36.9166667,-0.183333333 30.2666667,0.833333333 22.7,3.7 C22.5333333,3.73333333 22.3666667,3.78333333 22.2,3.85 C18.4,4.98333333 14.05,6.68333333 9.15,8.95 L7.9,12.05 L4.8,10.7 L1.8,17.45 C0.00755208333,22.2513021 0.857552083,28.5846354 4.35,36.45 C4.49635417,36.7855469 4.64635417,37.1188802 4.8,37.45 L5.1,36.65 L10.8,22.55 C16.6950521,12.1020833 26.8117188,5.06875 41.15,1.45 Z M40.05,4.55 L44.15,23.3 L47.65,29.7 L47.65,14.7 L40.05,4.55 Z" id="Shape" fill="#5D5454" fill-rule="nonzero"></path>
                            <path d="M40.05,4.55 C40.1904948,3.14518229 40.5571615,2.11184896 41.15,1.45 C26.8117188,5.06875 16.6950521,12.1020833 10.8,22.55 L5.1,36.65 L5.2,36.7 C19.0666667,39.8165365 32.9333333,39.5165365 46.8,35.8 L47.65,29.7 L44.15,23.3 L40.05,4.55 Z" id="Path" fill="#544B4B"></path>
                        </g>
                    </g>
                </g>
            </g>
            <g id="Group" transform="translate(119.600000, 1.700000)">
                <g transform="translate(4.000000, 19.000000)" id="Symbol_15_0_Layer0_0_MEMBER_0_FILL-link">
                    <g>
                        <g id="Symbol_15_0_Layer0_0_MEMBER_0_FILL">
                            <path d="M29.6,33.15 C30.7666667,32.3833333 31.5833333,31.5166667 32.05,30.55 L12.85,30.55 C13.3166667,31.5166667 14.1333333,32.3833333 15.3,33.15 C17.2666667,34.45 19.65,35.1 22.45,35.1 C25.25,35.1 27.6333333,34.45 29.6,33.15 Z" id="Path" fill="#D7BD93"></path>
                            <path d="M36.75,22.5 C39.85,23.5666667 41.7833333,22.0333333 42.55,17.9 C42.5833333,16.1 42.5666667,14.2833333 42.5,12.45 C42.3666667,10.1166667 42.1166667,7.75 41.75,5.35 C41.3166667,2.38333333 39.6166667,0.9 36.65,0.9 L6.3,0.9 C3.36666667,0.9 1.66666667,2.41666667 1.2,5.45 C0.833333333,8.05 0.6,10.6666667 0.5,13.3 C2.66666667,20.8 5.48333333,23.75 8.95,22.15 C9.71666667,21.85 10.5,21.5833333 11.3,21.35 C14.6,20.35 18.3,19.85 22.4,19.85 C27.8666667,19.85 32.65,20.7333333 36.75,22.5 Z" id="Path" fill="#FFE0B1"></path>
                            <path d="M41.9,25.55 C42.2666667,23.0166667 42.4833333,20.4666667 42.55,17.9 C41.7833333,22.0333333 39.85,23.5666667 36.75,22.5 C32.65,20.7333333 27.8666667,19.85 22.4,19.85 C18.3,19.85 14.6,20.35 11.3,21.35 C10.5,21.5833333 9.71666667,21.85 8.95,22.15 C5.48333333,23.75 2.66666667,20.8 0.5,13.3 C0.333333333,17.5333333 0.566666667,21.7833333 1.2,26.05 C1.26666667,26.4166667 1.35,26.75 1.45,27.05 C1.55,27.5166667 1.71666667,27.9333333 1.95,28.3 C2.78333333,29.8 4.23333333,30.55 6.3,30.55 L12.85,30.55 L32.05,30.55 L36.65,30.55 C39.45,30.55 41.1333333,29.2166667 41.7,26.55 C41.7333333,26.35 41.7666667,26.1666667 41.8,26 C41.8333333,25.8333333 41.8666667,25.6833333 41.9,25.55 Z" id="Path" fill="#E7E2DA"></path>
                        </g>
                    </g>
                </g>
                <g transform="translate(15.000000, 24.000000)" id="Symbol_15_0_Layer0_1_FILL-link">
                    <g>
                        <g id="Symbol_15_0_Layer0_1_FILL">
                            <path d="M18.3,3.4 L18.5,6.65 L27,4.4 C24.6333333,2.66666667 21.7333333,2.33333333 18.3,3.4 Z M8.5,4.8 L8.7,1.5 C5.26666667,0.4 2.36666667,0.733333333 0,2.5 L8.5,4.8 Z" id="Shape" fill="#544B4B" fill-rule="nonzero"></path>
                            <path d="M19.65,19.3 C19.9166667,19.2 20.1166667,19.0333333 20.25,18.8 C20.35,18.5666667 20.3666667,18.3166667 20.3,18.05 C20.2,17.7833333 20.0333333,17.6 19.8,17.5 C19.5666667,17.3666667 19.3166667,17.3333333 19.05,17.4 C15.4833333,18.5333333 12.3833333,18.25 9.75,16.55 C9.51666667,16.3833333 9.26666667,16.3333333 9,16.4 C8.73333333,16.4333333 8.53333333,16.5666667 8.4,16.8 C8.23333333,17.0333333 8.18333333,17.2833333 8.25,17.55 C8.28333333,17.8166667 8.41666667,18.0333333 8.65,18.2 C11.75,20.2666667 15.4166667,20.6333333 19.65,19.3 Z" id="Path" fill="#7F7058"></path>
                            <path d="M6.9,7.45 C6.23333333,6.71666667 5.38333333,6.35 4.35,6.35 C3.31666667,6.35 2.43333333,6.71666667 1.7,7.45 C1.03333333,8.21666667 0.7,9.11666667 0.7,10.15 C0.7,11.1833333 1.03333333,12.0666667 1.7,12.8 C2.43333333,13.5666667 3.31666667,13.95 4.35,13.95 C5.38333333,13.95 6.23333333,13.5666667 6.9,12.8 C7.63333333,12.0666667 8,11.1833333 8,10.15 C8,9.11666667 7.63333333,8.21666667 6.9,7.45 Z M25.5,7.45 C24.8333333,6.71666667 23.9833333,6.35 22.95,6.35 C21.9166667,6.35 21.0333333,6.71666667 20.3,7.45 C19.6333333,8.21666667 19.3,9.11666667 19.3,10.15 C19.3,11.1833333 19.6333333,12.0666667 20.3,12.8 C21.0333333,13.5666667 21.9166667,13.95 22.95,13.95 C23.9833333,13.95 24.8333333,13.5666667 25.5,12.8 C26.2333333,12.0666667 26.6,11.1833333 26.6,10.15 C26.6,9.11666667 26.2333333,8.21666667 25.5,7.45 Z" id="Shape" fill="#FFFFFF" fill-rule="nonzero"></path>
                        </g>
                    </g>
                </g>
                <g transform="translate(17.000000, 31.000000)" fill="#7F7058" fill-rule="nonzero" id="Symbol_15_0_Layer0_1_MEMBER_0_FILL-link">
                    <g>
                        <g id="Symbol_15_0_Layer0_1_MEMBER_0_FILL">
                            <path d="M4.6,5.35 C5.03333333,4.75 5.25,4.01666667 5.25,3.15 C5.25,2.28333333 5.03333333,1.53333333 4.6,0.9 C4.2,0.3 3.7,0 3.1,0 C2.5,0 1.98333333,0.3 1.55,0.9 C1.15,1.53333333 0.95,2.28333333 0.95,3.15 C0.95,4.01666667 1.15,4.75 1.55,5.35 C1.98333333,5.98333333 2.5,6.3 3.1,6.3 C3.7,6.3 4.2,5.98333333 4.6,5.35 Z M21.45,5.35 C21.8833333,4.75 22.1,4.01666667 22.1,3.15 C22.1,2.28333333 21.8833333,1.53333333 21.45,0.9 C21.05,0.3 20.55,0 19.95,0 C19.35,0 18.8333333,0.3 18.4,0.9 C18,1.53333333 17.8,2.28333333 17.8,3.15 C17.8,4.01666667 18,4.75 18.4,5.35 C18.8333333,5.98333333 19.35,6.3 19.95,6.3 C20.55,6.3 21.05,5.98333333 21.45,5.35 Z" id="Shape"></path>
                        </g>
                    </g>
                </g>
                <g id="Symbol_15_0_Layer0_2_FILL-link">
                    <g>
                        <g id="Symbol_15_0_Layer0_2_FILL">
                            <path d="M41.15,1.45 C41.553125,1.02278646 42.053125,0.756119792 42.65,0.65 C36.9166667,-0.183333333 30.2666667,0.833333333 22.7,3.7 C22.5333333,3.73333333 22.3666667,3.78333333 22.2,3.85 C18.4,4.98333333 14.05,6.68333333 9.15,8.95 L7.9,12.05 L4.8,10.7 L1.8,17.45 C-0.0666666667,22.45 0.933333333,29.1166667 4.8,37.45 L10.8,22.55 C16.6950521,12.1020833 26.8117188,5.06875 41.15,1.45 Z M40.05,4.55 L44.15,23.3 L46.55,31.45 L47.65,14.7 L40.05,4.55 Z" id="Shape" fill="#5D5454" fill-rule="nonzero"></path>
                            <path d="M28.7,23.1 C33.5066406,24.1574219 38.6566406,24.2240885 44.15,23.3 L40.05,4.55 C40.1904948,3.14518229 40.5571615,2.11184896 41.15,1.45 C26.8117187,5.06875 16.6950521,12.1020833 10.8,22.55 C14.3553385,20.7177083 18.0553385,20.234375 21.9,21.1 C23.913151,21.6820313 25.613151,22.8653646 27,24.65 L28.7,23.1 Z" id="Path" fill="#544B4B"></path>
                        </g>
                    </g>
                </g>
            </g>
            <g id="Group" transform="translate(59.600000, 1.650000)">
                <g transform="translate(4.000000, 19.000000)" id="Symbol_16_0_Layer0_0_MEMBER_0_FILL-link">
                    <g>
                        <g id="Symbol_16_0_Layer0_0_MEMBER_0_FILL">
                            <path d="M29.6,33.15 C30.7666667,32.3833333 31.5833333,31.5166667 32.05,30.55 L12.85,30.55 C13.3166667,31.5166667 14.1333333,32.3833333 15.3,33.15 C17.2666667,34.45 19.65,35.1 22.45,35.1 C25.25,35.1 27.6333333,34.45 29.6,33.15 Z" id="Path" fill="#D7BD93"></path>
                            <path d="M36.75,22.5 C39.85,23.5666667 41.7833333,22.0333333 42.55,17.9 C42.5833333,16.1 42.5666667,14.2833333 42.5,12.45 C42.3666667,10.1166667 42.1166667,7.75 41.75,5.35 C41.3166667,2.38333333 39.6166667,0.9 36.65,0.9 L6.3,0.9 C3.36666667,0.9 1.66666667,2.41666667 1.2,5.45 C0.833333333,8.05 0.6,10.6666667 0.5,13.3 C2.66666667,20.8 5.48333333,23.75 8.95,22.15 C9.71666667,21.85 10.5,21.5833333 11.3,21.35 C14.6,20.35 18.3,19.85 22.4,19.85 C27.8666667,19.85 32.65,20.7333333 36.75,22.5 Z" id="Path" fill="#FFE0B1"></path>
                            <path d="M41.9,25.55 C42.2666667,23.0166667 42.4833333,20.4666667 42.55,17.9 C41.7833333,22.0333333 39.85,23.5666667 36.75,22.5 C32.65,20.7333333 27.8666667,19.85 22.4,19.85 C18.3,19.85 14.6,20.35 11.3,21.35 C10.5,21.5833333 9.71666667,21.85 8.95,22.15 C5.48333333,23.75 2.66666667,20.8 0.5,13.3 C0.333333333,17.5333333 0.566666667,21.7833333 1.2,26.05 C1.26666667,26.4166667 1.35,26.75 1.45,27.05 C1.55,27.5166667 1.71666667,27.9333333 1.95,28.3 C2.78333333,29.8 4.23333333,30.55 6.3,30.55 L12.85,30.55 L32.05,30.55 L36.65,30.55 C39.45,30.55 41.1333333,29.2166667 41.7,26.55 C41.7333333,26.35 41.7666667,26.1666667 41.8,26 C41.8333333,25.8333333 41.8666667,25.6833333 41.9,25.55 Z" id="Path" fill="#E7E2DA"></path>
                        </g>
                    </g>
                </g>
                <g transform="translate(14.000000, 25.000000)" fill-rule="nonzero" id="Symbol_16_0_Layer0_1_FILL-link">
                    <g>
                        <g id="Symbol_16_0_Layer0_1_FILL">
                            <path d="M7.9,6.45 C7.23333333,5.71666667 6.38333333,5.35 5.35,5.35 C4.31666667,5.35 3.43333333,5.71666667 2.7,6.45 C2.03333333,7.21666667 1.7,8.11666667 1.7,9.15 C1.7,10.1833333 2.03333333,11.0666667 2.7,11.8 C3.43333333,12.5666667 4.31666667,12.95 5.35,12.95 C6.38333333,12.95 7.23333333,12.5666667 7.9,11.8 C8.63333333,11.0666667 9,10.1833333 9,9.15 C9,8.11666667 8.63333333,7.21666667 7.9,6.45 Z M27.6,9.15 C27.6,8.11666667 27.2333333,7.21666667 26.5,6.45 C25.8333333,5.71666667 24.9833333,5.35 23.95,5.35 C22.9166667,5.35 22.0333333,5.71666667 21.3,6.45 C20.6333333,7.21666667 20.3,8.11666667 20.3,9.15 C20.3,10.1833333 20.6333333,11.0666667 21.3,11.8 C22.0333333,12.5666667 22.9166667,12.95 23.95,12.95 C24.9833333,12.95 25.8333333,12.5666667 26.5,11.8 C27.2333333,11.0666667 27.6,10.1833333 27.6,9.15 Z" id="Shape" fill="#FFFFFF"></path>
                            <path d="M20.55,1.4 L19.9,4.6 L28.7,4.6 C26.8666667,2.3 24.15,1.23333333 20.55,1.4 Z M9.05,3.7 L8.4,0.5 C4.8,0.333333333 2.08333333,1.4 0.25,3.7 L9.05,3.7 Z" id="Shape" fill="#544B4B"></path>
                        </g>
                    </g>
                </g>
                <g transform="translate(22.850000, 39.900000)" id="Symbol_16_0_Layer0_1_MEMBER_0_FILL-link">
                    <g>
                        <g id="Symbol_16_0_Layer0_1_MEMBER_0_FILL">
                            <path d="M8.45,3.05 L1.45,3.05 C1.28333333,3.28333333 1.13333333,3.53333333 1,3.8 C0.833333333,4.1 0.716666667,4.41666667 0.65,4.75 C0.583333333,4.98333333 0.583333333,5.18333333 0.65,5.35 C0.716666667,5.58333333 0.85,5.75 1.05,5.85 C1.21666667,5.98333333 1.4,6.05 1.6,6.05 L11.3,6.05 C11.5,6.05 11.7,5.98333333 11.9,5.85 C12.0666667,5.75 12.1833333,5.58333333 12.25,5.35 C12.3166667,5.18333333 12.3333333,4.98333333 12.3,4.75 C12.2,4.41666667 12.0666667,4.1 11.9,3.8 C11.6,3.2 11.2,2.65 10.7,2.15 L10.65,2.1 C9.98333333,1.43333333 9.23333333,0.95 8.4,0.65 L8.45,3.05 Z" id="Path" fill="#7F7058"></path>
                            <path d="M8.4,0.65 C7.8,0.45 7.15,0.35 6.45,0.35 C4.81666667,0.35 3.4,0.95 2.2,2.15 C1.9,2.41666667 1.65,2.71666667 1.45,3.05 L8.45,3.05 L8.4,0.65 Z" id="Path" fill="#FFFFFF"></path>
                        </g>
                    </g>
                </g>
                <g transform="translate(17.200000, 31.000000)" fill="#7F7058" fill-rule="nonzero" id="Symbol_16_0_Layer0_1_MEMBER_1_FILL-link">
                    <g>
                        <g id="Symbol_16_0_Layer0_1_MEMBER_1_FILL">
                            <path d="M4.4,5.35 C4.83333333,4.75 5.05,4.01666667 5.05,3.15 C5.05,2.28333333 4.83333333,1.53333333 4.4,0.9 C4,0.3 3.5,0 2.9,0 C2.3,0 1.78333333,0.3 1.35,0.9 C0.95,1.53333333 0.75,2.28333333 0.75,3.15 C0.75,4.01666667 0.95,4.75 1.35,5.35 C1.78333333,5.98333333 2.3,6.3 2.9,6.3 C3.5,6.3 4,5.98333333 4.4,5.35 Z M21.25,5.35 C21.6833333,4.75 21.9,4.01666667 21.9,3.15 C21.9,2.28333333 21.6833333,1.53333333 21.25,0.9 C20.85,0.3 20.35,0 19.75,0 C19.15,0 18.6333333,0.3 18.2,0.9 C17.8,1.53333333 17.6,2.28333333 17.6,3.15 C17.6,4.01666667 17.8,4.75 18.2,5.35 C18.6333333,5.98333333 19.15,6.3 19.75,6.3 C20.35,6.3 20.85,5.98333333 21.25,5.35 Z" id="Shape"></path>
                        </g>
                    </g>
                </g>
                <g id="Symbol_16_0_Layer0_2_FILL-link">
                    <g>
                        <g id="Symbol_16_0_Layer0_2_FILL">
                            <path d="M41.15,1.45 C41.553125,1.02278646 42.053125,0.756119792 42.65,0.65 C36.9166667,-0.183333333 30.2666667,0.833333333 22.7,3.7 C22.5333333,3.73333333 22.3666667,3.78333333 22.2,3.85 C18.4,4.98333333 14.05,6.68333333 9.15,8.95 L7.9,12.05 L4.8,10.7 L1.8,17.45 C-0.0666666667,22.45 0.933333333,29.1166667 4.8,37.45 L10.8,22.55 C16.6950521,12.1020833 26.8117188,5.06875 41.15,1.45 Z M40.05,4.55 L44.15,23.3 L46.55,31.45 L47.65,14.7 L40.05,4.55 Z" id="Shape" fill="#5D5454" fill-rule="nonzero"></path>
                            <path d="M28.7,23.1 C33.5066406,24.1574219 38.6566406,24.2240885 44.15,23.3 L40.05,4.55 C40.1904948,3.14518229 40.5571615,2.11184896 41.15,1.45 C26.8117187,5.06875 16.6950521,12.1020833 10.8,22.55 C14.3553385,20.7177083 18.0553385,20.234375 21.9,21.1 C23.913151,21.6820313 25.613151,22.8653646 27,24.65 L28.7,23.1 Z" id="Path" fill="#544B4B"></path>
                        </g>
                    </g>
                </g>
            </g>
            <g id="head_FL_FL_FL_FL_FL_FL_FL_FL_FL" transform="translate(0.400000, 0.250000)">
                <g id="Group" transform="translate(3.650000, 19.900000)">
                    <g id="Symbol_12_0_Layer0_0_MEMBER_0_FILL-link">
                        <g id="Symbol_12_0_Layer0_0_MEMBER_0_FILL">
                            <path d="M22.8,34.2 C25.6,34.2 27.9833333,33.55 29.95,32.25 C31.1166667,31.4833333 31.9333333,30.6166667 32.4,29.65 L13.2,29.65 C13.6666667,30.6166667 14.4833333,31.4833333 15.65,32.25 C17.6166667,33.55 20,34.2 22.8,34.2 Z" id="Path" fill="#D7BD93"></path>
                            <path d="M42.15,25.1 C42.1833333,24.9333333 42.2166667,24.7833333 42.25,24.65 C42.6166667,22.1166667 42.8333333,19.5666667 42.9,17 C42.1333333,21.1333333 40.2,22.6666667 37.1,21.6 C33,19.8333333 28.2166667,18.95 22.75,18.95 C18.65,18.95 14.95,19.45 11.65,20.45 C10.85,20.6833333 10.0666667,20.95 9.3,21.25 C5.83333333,22.85 3.01666667,19.9 0.85,12.4 C0.683333333,16.6333333 0.916666667,20.8833333 1.55,25.15 C1.61666667,25.5166667 1.7,25.85 1.8,26.15 C1.9,26.6166667 2.06666667,27.0333333 2.3,27.4 C3.13333333,28.9 4.58333333,29.65 6.65,29.65 L13.2,29.65 L32.4,29.65 L37,29.65 C39.8,29.65 41.4833333,28.3166667 42.05,25.65 C42.0833333,25.45 42.1166667,25.2666667 42.15,25.1 Z" id="Path" fill="#E7E2DA"></path>
                            <path d="M1.55,4.55 C1.18333333,7.15 0.95,9.76666667 0.85,12.4 C3.01666667,19.9 5.83333333,22.85 9.3,21.25 C10.0666667,20.95 10.85,20.6833333 11.65,20.45 C14.95,19.45 18.65,18.95 22.75,18.95 C28.2166667,18.95 33,19.8333333 37.1,21.6 C40.2,22.6666667 42.1333333,21.1333333 42.9,17 C42.9333333,15.2 42.9166667,13.3833333 42.85,11.55 C42.7166667,9.21666667 42.4666667,6.85 42.1,4.45 C41.6666667,1.48333333 39.9666667,0 37,0 L6.65,0 C3.71666667,0 2.01666667,1.51666667 1.55,4.55 Z" id="Path" fill="#FFE0B1"></path>
                        </g>
                    </g>
                </g>
                <g id="Group" transform="translate(14.000000, 27.000000)" fill-rule="nonzero">
                    <g id="Symbol_12_0_Layer0_1_FILL-link">
                        <g id="Symbol_12_0_Layer0_1_FILL">
                            <path d="M20.55,0.4 L19.9,3.6 L28.7,3.6 C26.8666667,1.3 24.15,0.233333333 20.55,0.4 Z M9.05,4.7 L8.4,1.5 C4.8,1.33333333 2.08333333,2.4 0.25,4.7 L9.05,4.7 Z" id="Shape" fill="#544B4B"></path>
                            <path d="M4.05,6.85 C3.98333333,7.15 3.95,7.46666667 3.95,7.8 C3.95,8.66666667 4.15,9.4 4.55,10 C4.65,10.1333333 4.75,10.25 4.85,10.35 C5.21666667,10.75 5.63333333,10.95 6.1,10.95 C6.56666667,10.95 6.98333333,10.75 7.35,10.35 C7.45,10.25 7.53333333,10.1333333 7.6,10 C8.03333333,9.4 8.25,8.66666667 8.25,7.8 C8.25,7.46666667 8.21666667,7.15 8.15,6.85 L4.05,6.85 Z M25.1,7.8 C25.1,7.46666667 25.0666667,7.15 25,6.85 L20.9,6.85 C20.8333333,7.15 20.8,7.46666667 20.8,7.8 C20.8,8.66666667 21,9.4 21.4,10 C21.5,10.1333333 21.6,10.25 21.7,10.35 C22.0666667,10.75 22.4833333,10.95 22.95,10.95 C23.4166667,10.95 23.8333333,10.75 24.2,10.35 C24.3,10.25 24.3833333,10.1333333 24.45,10 C24.8833333,9.4 25.1,8.66666667 25.1,7.8 Z M19.5,13.55 C19.3,13.4166667 19.1,13.35 18.9,13.35 L16.05,13.35 L16.05,16.35 L9.05,16.35 C9.25,16.6833333 9.5,16.9833333 9.8,17.25 C11,18.45 12.4166667,19.05 14.05,19.05 C15.6833333,19.05 17.0833333,18.4666667 18.25,17.3 L18.3,17.25 C18.8,16.75 19.2,16.2 19.5,15.6 C19.6666667,15.3 19.8,14.9833333 19.9,14.65 C19.9333333,14.4166667 19.9166667,14.2166667 19.85,14.05 C19.7833333,13.8166667 19.6666667,13.65 19.5,13.55 Z" id="Shape" fill="#7F7058"></path>
                            <path d="M3.95,7.8 C3.95,7.46666667 3.98333333,7.15 4.05,6.85 L1.8,6.85 C1.73333333,7.15 1.7,7.46666667 1.7,7.8 C1.7,8.8 2,9.65 2.6,10.35 C2.63333333,10.3833333 2.66666667,10.4166667 2.7,10.45 C3.43333333,11.2166667 4.31666667,11.6 5.35,11.6 C6.38333333,11.6 7.23333333,11.2166667 7.9,10.45 C7.93333333,10.4166667 7.96666667,10.3833333 8,10.35 C8.66666667,9.65 9,8.8 9,7.8 C9,7.46666667 8.96666667,7.15 8.9,6.85 L8.15,6.85 C8.21666667,7.15 8.25,7.46666667 8.25,7.8 C8.25,8.66666667 8.03333333,9.4 7.6,10 C7.53333333,10.1333333 7.45,10.25 7.35,10.35 C6.98333333,10.75 6.56666667,10.95 6.1,10.95 C5.63333333,10.95 5.21666667,10.75 4.85,10.35 C4.75,10.25 4.65,10.1333333 4.55,10 C4.15,9.4 3.95,8.66666667 3.95,7.8 Z M25,6.85 C25.0666667,7.15 25.1,7.46666667 25.1,7.8 C25.1,8.66666667 24.8833333,9.4 24.45,10 C24.3833333,10.1333333 24.3,10.25 24.2,10.35 C23.8333333,10.75 23.4166667,10.95 22.95,10.95 C22.4833333,10.95 22.0666667,10.75 21.7,10.35 C21.6,10.25 21.5,10.1333333 21.4,10 C21,9.4 20.8,8.66666667 20.8,7.8 C20.8,7.46666667 20.8333333,7.15 20.9,6.85 L20.4,6.85 C20.3333333,7.15 20.3,7.46666667 20.3,7.8 C20.3,8.8 20.6,9.65 21.2,10.35 C21.2333333,10.3833333 21.2666667,10.4166667 21.3,10.45 C22.0333333,11.2166667 22.9166667,11.6 23.95,11.6 C24.9833333,11.6 25.8333333,11.2166667 26.5,10.45 C26.5333333,10.4166667 26.5666667,10.3833333 26.6,10.35 C27.2666667,9.65 27.6,8.8 27.6,7.8 C27.6,7.46666667 27.5666667,7.15 27.5,6.85 L25,6.85 Z M16.05,16.35 L16.05,13.35 L9.2,13.35 C9,13.35 8.81666667,13.4166667 8.65,13.55 C8.45,13.65 8.31666667,13.8166667 8.25,14.05 C8.18333333,14.2166667 8.18333333,14.4166667 8.25,14.65 C8.31666667,14.9833333 8.43333333,15.3 8.6,15.6 C8.73333333,15.8666667 8.88333333,16.1166667 9.05,16.35 L16.05,16.35 Z" id="Shape" fill="#FFFFFF"></path>
                        </g>
                    </g>
                </g>
                <g id="Group">
                    <g id="Symbol_12_0_Layer0_2_FILL-link">
                        <g id="Symbol_12_0_Layer0_2_FILL">
                            <path d="M28.7,23.1 C33.5066406,24.1574219 38.6566406,24.2240885 44.15,23.3 L40.05,4.55 C40.1904948,3.14518229 40.5571615,2.11184896 41.15,1.45 C26.8117187,5.06875 16.6950521,12.1020833 10.8,22.55 C14.3553385,20.7177083 18.0553385,20.234375 21.9,21.1 C23.913151,21.6820313 25.613151,22.8653646 27,24.65 L28.7,23.1 Z" id="Path" fill="#544B4B"></path>
                            <path d="M40.05,4.55 L44.15,23.3 L46.55,31.45 L47.65,14.7 L40.05,4.55 Z M41.15,1.45 C41.553125,1.02278646 42.053125,0.756119792 42.65,0.65 C36.9166667,-0.183333333 30.2666667,0.833333333 22.7,3.7 C22.5333333,3.73333333 22.3666667,3.78333333 22.2,3.85 C18.4,4.98333333 14.05,6.68333333 9.15,8.95 L7.9,12.05 L4.8,10.7 L1.8,17.45 C-0.0666666667,22.45 0.933333333,29.1166667 4.8,37.45 L10.8,22.55 C16.6950521,12.1020833 26.8117188,5.06875 41.15,1.45 Z" id="Shape" fill="#5D5454" fill-rule="nonzero"></path>
                        </g>
                    </g>
                </g>
            </g>
        </g>
    </g>
</svg>