<?xml version="1.0" encoding="UTF-8"?>
<svg width="230px" height="150px" viewBox="0 0 230 150" version="1.1" xmlns="http://www.w3.org/2000/svg" xmlns:xlink="http://www.w3.org/1999/xlink">
    <!-- Generator: Sketch 52.5 (67469) - http://www.bohemiancoding.com/sketch -->
    <title>niga</title>
    <desc>Created with Sketch.</desc>
    <g id="niga" stroke="none" stroke-width="1" fill="none" fill-rule="evenodd">
        <g id="Group-2" transform="translate(-3.000000, 4.000000)">
            <g id="handRight_FL_FL_FL_FL_FL_FL_FL_FL_FL_FL_FL_FL_FL_FL_FL_FL_FL_FL_FL_FL_FL" transform="translate(123.500000, 137.000000) scale(-1, 1) translate(-123.500000, -137.000000) translate(115.000000, 129.000000)" fill-rule="nonzero">
                <g id="Group">
                    <g id="Symbol_9_0_Layer0_0_FILL-link">
                        <g id="Symbol_9_0_Layer0_0_FILL">
                            <path d="M14.9,7.15 C13.7,3.85 12.2833333,1.46666667 10.65,0 L1,2.55 C0.2,2.75 -0.116666667,3.21666667 0.05,3.95 L0.2,4.5 C2,12.5666667 5.2,16 9.8,14.8 C11.4333333,14.4 13.05,13.7833333 14.65,12.95 C15.7166667,12.4166667 16.15,11.75 15.95,10.95 L15.9,10.7 C15.6333333,9.73333333 15.3666667,8.8 15.1,7.9 L15.1,7.95 L14.9,7.15 Z M1.85,6 C1.81666667,5.7 2.18333333,5.31666667 2.95,4.85 C3.68333333,4.38333333 4.61666667,3.95 5.75,3.55 C6.91666667,3.18333333 7.9,2.95 8.7,2.85 C9.56666667,2.78333333 10.0166667,2.88333333 10.05,3.15 C10.1166667,3.45 9.78333333,3.83333333 9.05,4.3 C8.31666667,4.8 7.36666667,5.25 6.2,5.65 C5.06666667,6.05 4.08333333,6.28333333 3.25,6.35 C2.38333333,6.41666667 1.91666667,6.3 1.85,6 Z" id="Shape" fill="#957544"></path>
                            <path d="M2.95,4.85 C2.18333333,5.31666667 1.81666667,5.7 1.85,6 C1.91666667,6.3 2.38333333,6.41666667 3.25,6.35 C4.08333333,6.28333333 5.06666667,6.05 6.2,5.65 C7.36666667,5.25 8.31666667,4.8 9.05,4.3 C9.78333333,3.83333333 10.1166667,3.45 10.05,3.15 C10.0166667,2.88333333 9.56666667,2.78333333 8.7,2.85 C7.9,2.95 6.91666667,3.18333333 5.75,3.55 C4.61666667,3.95 3.68333333,4.38333333 2.95,4.85 Z M15.1,7.9 C17.1666667,5 15.6833333,2.36666667 10.65,0 C12.2833333,1.46666667 13.7,3.85 14.9,7.15 L15.1,7.95 L15.1,7.9 Z" id="Shape" fill="#85683B"></path>
                        </g>
                    </g>
                </g>
            </g>
            <g id="legRight_FL_FL_FL_FL_FL_FL_FL_FL_FL_FL_FL_FL_FL_FL_FL_FL_FL_FL_FL" transform="translate(88.500000, 134.500000) scale(-1, 1) translate(-88.500000, -134.500000) translate(78.000000, 123.000000)">
                <g id="Group">
                    <g id="Symbol_11_0_Layer0_0_FILL-link">
                        <g id="Symbol_11_0_Layer0_0_FILL">
                            <polygon id="Path" fill="#AA7847" points="21 14.65 21 12.35 3.25 10.7 3.25 14.65"></polygon>
                            <path d="M12.15,0 L12.1,0 C9.63333333,0 7.55,0.833333333 5.85,2.5 C4.11666667,4.2 3.25,6.26666667 3.25,8.7 L3.25,10.7 L21,12.35 L21,8.7 C21,6.26666667 20.15,4.2 18.45,2.5 C16.7166667,0.833333333 14.6166667,0 12.15,0 Z" id="Path" fill="#B8824D"></path>
                            <polygon id="Path" fill="#484848" points="21 18.05 21 14.65 3.25 14.65 3.25 18 3.25 18.05 20.95 18.05"></polygon>
                            <path d="M20.95,23 L20.95,18.05 L3.25,18.05 L3.25,18 C2.05,18.6 0.966666667,19.55 0,20.85 L0,23 L20.95,23 Z" id="Path" fill="#545454"></path>
                        </g>
                    </g>
                </g>
            </g>
            <g id="armRight_FL_FL_FL_FL_FL_FL_FL_FL_FL_FL_FL_FL_FL_FL_FL_FL_FL_FL_FL_FL_FL_FL" transform="translate(126.000000, 97.500000) scale(-1, 1) translate(-126.000000, -97.500000) translate(117.000000, 80.000000)">
                <g id="Group">
                    <g id="Symbol_8_0_Layer0_0_FILL-link">
                        <g id="Symbol_8_0_Layer0_0_FILL">
                            <path d="M2.2,18.4 C1.85208333,22.3579427 1.80208333,26.3079427 2.05,30.25 C4.08333333,32.1833333 6.6,33.4333333 9.6,34 C12.4016927,29.3108073 14.435026,24.2608073 15.7,18.85 L2.2,18.4 Z" id="Path" fill="#957544"></path>
                            <path d="M15.7,18.85 C15.8911458,18.1645833 16.0578125,17.4645833 16.2,16.75 L2.7,14.3 C2.50351562,15.6665365 2.33684896,17.0332031 2.2,18.4 L15.7,18.85 Z" id="Path" fill="#8C6E40"></path>
                            <path d="M16.7,16.85 L17.2,13.9 L1.8,11.05 C0.933333333,11.45 0.766666667,12.45 1.3,14.05 L2.7,14.3 L16.2,16.75 L16.7,16.85 Z" id="Path" fill="#747B64"></path>
                            <path d="M11.55,1.1 L11.5,1.1 C11.1,1.03333333 10.7166667,1 10.35,1 C6.98333333,0.9 4.13333333,4.25 1.8,11.05 L17.2,13.9 L17.85,10.3 C18.25,8.16666667 17.8333333,6.18333333 16.6,4.35 C15.3666667,2.55 13.6833333,1.46666667 11.55,1.1 Z" id="Path" fill="#889176"></path>
                        </g>
                    </g>
                </g>
            </g>
            <g id="Group" transform="translate(60.000000, 75.000000)">
                <g id="Symbol_18_0_Layer0_0_FILL-link">
                    <g>
                        <g id="Symbol_18_0_Layer0_0_FILL">
                            <polygon id="Path" fill="#B8824D" points="0 26.9 0 31 39 31 39 26.9 12.5 26.9"></polygon>
                            <path d="M17.75,22.45 L15.75,24.1 L16.45,25.5 L18.7,24.35 L17.75,22.45 Z M12.95,12.55 C12.25,12.15 11.4833333,12.5333333 10.65,13.7 L12.1,16.65 L14.1,14.95 L12.95,12.55 Z M16.25,13.15 L18.6,11.15 L16,8.15 C15.0666667,7.91666667 14.3,8.6 13.7,10.2 L16.25,13.15 Z M23.9,17.25 L21.55,19.2 L24,22 L26.25,20 L23.9,17.25 Z" id="Shape" fill="#747B64" fill-rule="nonzero"></path>
                            <path d="M10.65,13.7 C11.4833333,12.5333333 12.25,12.15 12.95,12.55 L14.1,14.95 L16.25,13.15 L13.7,10.2 C14.3,8.6 15.0666667,7.91666667 16,8.15 L18.6,11.15 L31.85,0 L0,0 L0,26.9 L12.1,16.65 L10.65,13.7 Z M23.9,17.25 L26.25,20 L24,22 L21.55,19.2 L17.75,22.45 L18.7,24.35 L16.45,25.5 L15.75,24.1 L12.5,26.9 L39,26.9 L39,4.55 L23.9,17.25 Z" id="Shape" fill="#889176" fill-rule="nonzero"></path>
                            <polygon id="Path" fill="#91663C" points="39 0 31.85 0 18.6 11.15 16.25 13.15 14.1 14.95 12.1 16.65 0 26.9 12.5 26.9 15.75 24.1 17.75 22.45 21.55 19.2 23.9 17.25 39 4.55"></polygon>
                        </g>
                    </g>
                </g>
            </g>
            <g id="body_FL_FL_FL_FL_FL_FL_FL_FL_FL_FL_FL_FL_FL_FL_FL_FL_FL_FL_FL_FL" transform="translate(10.000000, 75.000000)">
                <g id="Group">
                    <g id="Symbol_10_0_Layer0_0_FILL-link">
                        <g id="Symbol_10_0_Layer0_0_FILL">
                            <path d="M26.5,26.9 L22.6,26.9 L22.6,31 L39,31 L39,26.9 L26.5,26.9 Z M15.4,26.9 L0,26.9 L0,31 L15.4,31 L15.4,26.9 Z" id="Shape" fill="#B8824D" fill-rule="nonzero"></path>
                            <polygon id="Path" fill="#C3DAE2" points="15.4 25.4 15.4 26.9 15.4 31 22.6 31 22.6 26.9 22.6 25.4"></polygon>
                            <path d="M10.5,13.4 L10.5,13.45 C10.1333333,14.4166667 10.15,15.3666667 10.55,16.3 C10.95,17.2666667 11.6333333,17.9333333 12.6,18.3 C13.5666667,18.7 14.5166667,18.6833333 15.45,18.25 C15.6294271,18.1782552 15.7960937,18.0949219 15.95,18 L10.5,13.4 Z M19.7,10.6 L20,9.95 C20.4,8.98333333 20.3833333,8.01666667 19.95,7.05 C19.55,6.11666667 18.8666667,5.45 17.9,5.05 C16.9333333,4.68333333 15.9833333,4.7 15.05,5.1 C14.6441406,5.28190104 14.277474,5.49856771 13.95,5.75 L19.7,10.6 Z M27.2,13.95 C27.2,14.35 27.4,14.55 27.8,14.55 L33.9,14.55 C34.3,14.55 34.5,14.35 34.5,13.95 L34.5,11.95 C34.5,11.55 34.3,11.35 33.9,11.35 L27.8,11.35 C27.4,11.35 27.2,11.55 27.2,11.95 L27.2,13.95 Z" id="Shape" fill="#D9C195" fill-rule="nonzero"></path>
                            <path d="M10.5,13.45 L10.5,13.4 L0,4.55 L0,26.9 L15.4,26.9 L15.4,25.4 L22.6,25.4 L22.6,26.9 L26.5,26.9 L15.95,18 C15.7960938,18.0949219 15.6294271,18.1782552 15.45,18.25 C14.5166667,18.6833333 13.5666667,18.7 12.6,18.3 C11.6333333,17.9333333 10.95,17.2666667 10.55,16.3 C10.15,15.3666667 10.1333333,14.4166667 10.5,13.45 Z M20,9.95 L19.7,10.6 L39,26.9 L39,0 L7.1,0 L13.95,5.75 C14.277474,5.49856771 14.6441406,5.28190104 15.05,5.1 C15.9833333,4.7 16.9333333,4.68333333 17.9,5.05 C18.8666667,5.45 19.55,6.11666667 19.95,7.05 C20.3833333,8.01666667 20.4,8.98333333 20,9.95 Z M33.95,7.3 C34.05,7.4 34.1,7.5 34.1,7.6 L34.1,9.25 C34.1,9.35 34.0666667,9.43333333 34,9.5 C33.9666667,9.56666667 33.9,9.61666667 33.8,9.65 L30.85,10.5 C30.7833333,10.5333333 30.7166667,10.5333333 30.65,10.5 L27.65,9.65 C27.5833333,9.61666667 27.5166667,9.56666667 27.45,9.5 C27.3833333,9.43333333 27.35,9.35 27.35,9.25 L27.35,7.6 C27.35,7.5 27.4,7.4 27.5,7.3 C27.5666667,7.23333333 27.65,7.2 27.75,7.2 L33.7,7.2 C33.8,7.2 33.8833333,7.23333333 33.95,7.3 Z M27.8,14.55 C27.4,14.55 27.2,14.35 27.2,13.95 L27.2,11.95 C27.2,11.55 27.4,11.35 27.8,11.35 L33.9,11.35 C34.3,11.35 34.5,11.55 34.5,11.95 L34.5,13.95 C34.5,14.35 34.3,14.55 33.9,14.55 L27.8,14.55 Z M31.4,9.4 C31.4,9.23333333 31.3333333,9.08333333 31.2,8.95 C31.0666667,8.81666667 30.9166667,8.75 30.75,8.75 C30.5833333,8.75 30.4333333,8.81666667 30.3,8.95 C30.1666667,9.08333333 30.1,9.23333333 30.1,9.4 C30.1,9.56666667 30.1666667,9.71666667 30.3,9.85 C30.4333333,9.98333333 30.5833333,10.05 30.75,10.05 C30.9166667,10.05 31.0666667,9.98333333 31.2,9.85 C31.3333333,9.71666667 31.4,9.56666667 31.4,9.4 Z" id="Shape" fill="#889176" fill-rule="nonzero"></path>
                            <polygon id="Path" fill="#91663C" points="0 0 0 4.55 10.5 13.4 15.95 18 26.5 26.9 39 26.9 19.7 10.6 13.95 5.75 7.1 0"></polygon>
                            <path d="M34.1,7.6 C34.1,7.5 34.05,7.4 33.95,7.3 C33.8833333,7.23333333 33.8,7.2 33.7,7.2 L27.75,7.2 C27.65,7.2 27.5666667,7.23333333 27.5,7.3 C27.4,7.4 27.35,7.5 27.35,7.6 L27.35,9.25 C27.35,9.35 27.3833333,9.43333333 27.45,9.5 C27.5166667,9.56666667 27.5833333,9.61666667 27.65,9.65 L30.65,10.5 C30.7166667,10.5333333 30.7833333,10.5333333 30.85,10.5 L33.8,9.65 C33.9,9.61666667 33.9666667,9.56666667 34,9.5 C34.0666667,9.43333333 34.1,9.35 34.1,9.25 L34.1,7.6 Z M31.2,8.95 C31.3333333,9.08333333 31.4,9.23333333 31.4,9.4 C31.4,9.56666667 31.3333333,9.71666667 31.2,9.85 C31.0666667,9.98333333 30.9166667,10.05 30.75,10.05 C30.5833333,10.05 30.4333333,9.98333333 30.3,9.85 C30.1666667,9.71666667 30.1,9.56666667 30.1,9.4 C30.1,9.23333333 30.1666667,9.08333333 30.3,8.95 C30.4333333,8.81666667 30.5833333,8.75 30.75,8.75 C30.9166667,8.75 31.0666667,8.81666667 31.2,8.95 Z" id="Shape" fill="#747B64" fill-rule="nonzero"></path>
                        </g>
                    </g>
                </g>
            </g>
            <g id="Group" transform="translate(180.000000, 1.700000)">
                <g transform="translate(5.000000, 19.000000)" id="Symbol_17_0_Layer0_0_FILL-link">
                    <g>
                        <g id="Symbol_17_0_Layer0_0_FILL">
                            <path d="M41.75,5.35 C41.3166667,2.38333333 39.6166667,0.9 36.65,0.9 L6.3,0.9 C3.36666667,0.9 1.66666667,2.41666667 1.2,5.45 C0.833333333,8.05 0.6,10.6666667 0.5,13.3 C0.333333333,17.5333333 0.566666667,21.7833333 1.2,26.05 C1.26666667,26.4166667 1.35,26.75 1.45,27.05 C1.55,27.5166667 1.71666667,27.9333333 1.95,28.3 C2.78333333,29.8 4.23333333,30.55 6.3,30.55 L12.85,30.55 L32.05,30.55 L36.65,30.55 C39.45,30.55 41.1333333,29.2166667 41.7,26.55 C41.7333333,26.35 41.7666667,26.1666667 41.8,26 C41.8333333,25.8333333 41.8666667,25.6833333 41.9,25.55 C42.2666667,23.0166667 42.4833333,20.4666667 42.55,17.9 C42.5833333,16.1 42.5666667,14.2833333 42.5,12.45 C42.3666667,10.1166667 42.1166667,7.75 41.75,5.35 Z" id="Path" fill="#957544"></path>
                            <path d="M29.6,33.15 C30.7666667,32.3833333 31.5833333,31.5166667 32.05,30.55 L12.85,30.55 C13.3166667,31.5166667 14.1333333,32.3833333 15.3,33.15 C17.2666667,34.45 19.65,35.1 22.45,35.1 C25.25,35.1 27.6333333,34.45 29.6,33.15 Z" id="Path" fill="#85683B"></path>
                        </g>
                    </g>
                </g>
                <g id="Symbol_17_0_Layer0_1_FILL-link">
                    <g>
                        <g id="Symbol_17_0_Layer0_1_FILL">
                            <path d="M47.85,33.95 L28,40.3 L5.35,36.25 L28,44.45 L47.85,33.95 Z M27.2,4.7 L20.05,5.05 L15.4,8.55 L12.45,7.5 L11.5,10.55 L6.55,12.05 L3.75,17.9 L0.3,18.9 L1.85,21.75 L0.6,24.45 L3.8,30.35 L8.8,13.5 L27.2,4.7 Z M37.5,5.85 L47.85,22.75 L51.3,20.5 L42.95,6.95 L37.5,5.85 Z" id="Shape" fill="#5D5353" fill-rule="nonzero"></path>
                            <polygon id="Path" fill="#544B4B" points="47.85 22.75 37.5 5.85 37.45 5.85 34.2 0.9 27.2 4.7 8.8 13.5 3.8 30.35 5.35 36.25 28 40.3 47.85 33.95"></polygon>
                        </g>
                    </g>
                </g>
            </g>
            <g id="Group" transform="translate(119.600000, 1.700000)">
                <g transform="translate(5.000000, 19.000000)" id="Symbol_15_0_Layer0_0_FILL-link">
                    <g>
                        <g id="Symbol_15_0_Layer0_0_FILL">
                            <path d="M29.6,33.15 C30.7666667,32.3833333 31.5833333,31.5166667 32.05,30.55 L12.85,30.55 C13.3166667,31.5166667 14.1333333,32.3833333 15.3,33.15 C17.2666667,34.45 19.65,35.1 22.45,35.1 C25.25,35.1 27.6333333,34.45 29.6,33.15 Z" id="Path" fill="#795E36"></path>
                            <path d="M42.55,17.9 C41.7833333,22.0333333 39.85,23.5666667 36.75,22.5 C32.65,20.7333333 27.8666667,19.85 22.4,19.85 C18.3,19.85 14.6,20.35 11.3,21.35 C10.5,21.5833333 9.71666667,21.85 8.95,22.15 C5.48333333,23.75 2.66666667,20.8 0.5,13.3 C0.333333333,17.5333333 0.566666667,21.7833333 1.2,26.05 C1.26666667,26.4166667 1.35,26.75 1.45,27.05 C1.55,27.5166667 1.71666667,27.9333333 1.95,28.3 C2.78333333,29.8 4.23333333,30.55 6.3,30.55 L12.85,30.55 L32.05,30.55 L36.65,30.55 C39.45,30.55 41.1333333,29.2166667 41.7,26.55 C41.7333333,26.35 41.7666667,26.1666667 41.8,26 C41.8333333,25.8333333 41.8666667,25.6833333 41.9,25.55 C42.2666667,23.0166667 42.4833333,20.4666667 42.55,17.9 Z" id="Path" fill="#85683B"></path>
                            <path d="M41.75,5.35 C41.3166667,2.38333333 39.6166667,0.9 36.65,0.9 L6.3,0.9 C3.36666667,0.9 1.66666667,2.41666667 1.2,5.45 C0.833333333,8.05 0.6,10.6666667 0.5,13.3 C2.66666667,20.8 5.48333333,23.75 8.95,22.15 C9.71666667,21.85 10.5,21.5833333 11.3,21.35 C14.6,20.35 18.3,19.85 22.4,19.85 C27.8666667,19.85 32.65,20.7333333 36.75,22.5 C39.85,23.5666667 41.7833333,22.0333333 42.55,17.9 C42.5833333,16.1 42.5666667,14.2833333 42.5,12.45 C42.3666667,10.1166667 42.1166667,7.75 41.75,5.35 Z" id="Path" fill="#957544"></path>
                        </g>
                    </g>
                </g>
                <g transform="translate(8.000000, 31.000000)" fill="#85683B" id="Symbol_15_0_Layer0_0_MEMBER_0_FILL-link">
                    <g>
                        <g id="Symbol_15_0_Layer0_0_MEMBER_0_FILL">
                            <path d="M0.8,1.15 L2.6,5 C2.63333333,5.03333333 2.65,5.06666667 2.65,5.1 L5.25,8.05 C5.31666667,8.11666667 5.41666667,8.15 5.55,8.15 C5.65,8.18333333 5.75,8.16666667 5.85,8.1 L6.4,7.7 C6.46666667,7.63333333 6.51666667,7.55 6.55,7.45 C6.58333333,7.35 6.58333333,7.25 6.55,7.15 L4.85,3.45 C4.85,3.41666667 4.83333333,3.38333333 4.8,3.35 L2.1,0.25 C2.06666667,0.183333333 1.98333333,0.15 1.85,0.15 C1.75,0.116666667 1.65,0.133333333 1.55,0.2 L0.9,0.65 C0.833333333,0.683333333 0.783333333,0.75 0.75,0.85 C0.75,0.95 0.766666667,1.05 0.8,1.15 Z" id="Path"></path>
                        </g>
                    </g>
                </g>
                <g transform="translate(16.000000, 28.000000)" fill="#544B4B" fill-rule="nonzero" id="Symbol_15_0_Layer0_1_FILL-link">
                    <g>
                        <g id="Symbol_15_0_Layer0_1_FILL">
                            <path d="M7.85,3.5 C8.11666667,3.46666667 8.35,3.35 8.55,3.15 C8.71666667,2.98333333 8.8,2.76666667 8.8,2.5 C8.73333333,2.2 8.61666667,1.95 8.45,1.75 C8.28333333,1.58333333 8.05,1.51666667 7.75,1.55 C5.68333333,1.61666667 3.71666667,1.35 1.85,0.75 C1.55,0.716666667 1.28333333,0.75 1.05,0.85 C0.783333333,0.983333333 0.633333333,1.2 0.6,1.5 C0.5,1.76666667 0.533333333,2 0.7,2.2 C0.8,2.46666667 0.983333333,2.63333333 1.25,2.7 C3.31666667,3.36666667 5.51666667,3.63333333 7.85,3.5 Z M26.35,0.65 C26.1166667,0.55 25.85,0.516666667 25.55,0.55 C23.6833333,1.11666667 21.7166667,1.36666667 19.65,1.3 C19.35,1.26666667 19.1,1.35 18.9,1.55 C18.7333333,1.71666667 18.6166667,1.95 18.55,2.25 C18.55,2.55 18.65,2.8 18.85,3 C19.05,3.16666667 19.2833333,3.28333333 19.55,3.35 C21.85,3.41666667 24.0333333,3.13333333 26.1,2.5 C26.4,2.43333333 26.6166667,2.28333333 26.75,2.05 C26.8833333,1.78333333 26.9,1.51666667 26.8,1.25 C26.7333333,0.95 26.5833333,0.75 26.35,0.65 Z" id="Shape"></path>
                        </g>
                    </g>
                </g>
                <g transform="translate(16.000000, 32.000000)" fill-rule="nonzero" id="Symbol_15_0_Layer0_1_MEMBER_0_FILL-link">
                    <g>
                        <g id="Symbol_15_0_Layer0_1_MEMBER_0_FILL">
                            <path d="M7.25,2.6 C7.25,2.13333333 7.18333333,1.7 7.05,1.3 L3.4,0.65 C3.1,1.21666667 2.95,1.86666667 2.95,2.6 C2.95,3.46666667 3.15,4.2 3.55,4.8 C3.98333333,5.43333333 4.5,5.75 5.1,5.75 C5.7,5.75 6.2,5.43333333 6.6,4.8 C7.03333333,4.2 7.25,3.46666667 7.25,2.6 Z M24.1,2.6 C24.1,1.96666667 23.9833333,1.38333333 23.75,0.85 L19.95,1.4 C19.85,1.76666667 19.8,2.16666667 19.8,2.6 C19.8,3.46666667 20,4.2 20.4,4.8 C20.8333333,5.43333333 21.35,5.75 21.95,5.75 C22.55,5.75 23.05,5.43333333 23.45,4.8 C23.8833333,4.2 24.1,3.46666667 24.1,2.6 Z" id="Shape" fill="#544B4B"></path>
                            <path d="M7.05,1.3 C7.18333333,1.7 7.25,2.13333333 7.25,2.6 C7.25,3.46666667 7.03333333,4.2 6.6,4.8 C6.2,5.43333333 5.7,5.75 5.1,5.75 C4.5,5.75 3.98333333,5.43333333 3.55,4.8 C3.15,4.2 2.95,3.46666667 2.95,2.6 C2.95,1.86666667 3.1,1.21666667 3.4,0.65 L1.4,0.3 C0.933333333,0.966666667 0.7,1.73333333 0.7,2.6 C0.7,3.63333333 1.03333333,4.51666667 1.7,5.25 C2.43333333,6.01666667 3.31666667,6.4 4.35,6.4 C5.38333333,6.4 6.23333333,6.01666667 6.9,5.25 C7.63333333,4.51666667 8,3.63333333 8,2.6 C8,2.16666667 7.95,1.76666667 7.85,1.4 L7.05,1.3 Z M26,0.55 L23.75,0.85 C23.9833333,1.38333333 24.1,1.96666667 24.1,2.6 C24.1,3.46666667 23.8833333,4.2 23.45,4.8 C23.05,5.43333333 22.55,5.75 21.95,5.75 C21.35,5.75 20.8333333,5.43333333 20.4,4.8 C20,4.2 19.8,3.46666667 19.8,2.6 C19.8,2.16666667 19.85,1.76666667 19.95,1.4 L19.45,1.45 C19.35,1.81666667 19.3,2.2 19.3,2.6 C19.3,3.63333333 19.6333333,4.51666667 20.3,5.25 C21.0333333,6.01666667 21.9166667,6.4 22.95,6.4 C23.9833333,6.4 24.8333333,6.01666667 25.5,5.25 C26.2333333,4.51666667 26.6,3.63333333 26.6,2.6 C26.6,1.83333333 26.4,1.15 26,0.55 Z" id="Shape" fill="#FFFFFF"></path>
                        </g>
                    </g>
                </g>
                <g transform="translate(19.000000, 37.000000)" fill="#544B4B" fill-rule="nonzero" id="Symbol_15_0_Layer0_2_FILL-link">
                    <g>
                        <g id="Symbol_15_0_Layer0_2_FILL">
                            <path d="M9.45,3.05 C9.75,2.51666667 9.6,1.86666667 9,1.1 C8.96666667,1.06666667 8.93333333,1.03333333 8.9,1 C8.23333333,0.4 7.4,0.216666667 6.4,0.45 C4.6,0.95 2.83333333,2.48333333 1.1,5.05 C1,5.18333333 0.95,5.33333333 0.95,5.5 C0.916666667,5.7 0.95,5.85 1.05,5.95 L1.3,6.6 C1.36666667,6.76666667 1.45,6.86666667 1.55,6.9 C1.71666667,6.96666667 1.85,6.96666667 1.95,6.9 C4.11666667,5.46666667 6.15,4.5 8.05,4 C8.85,3.83333333 9.31666667,3.51666667 9.45,3.05 Z M18.75,5.5 C18.7166667,5.33333333 18.65,5.18333333 18.55,5.05 C16.8166667,2.48333333 15.05,0.95 13.25,0.45 C12.25,0.216666667 11.4166667,0.4 10.75,1 C10.7166667,1.03333333 10.7,1.06666667 10.7,1.1 C10.0666667,1.86666667 9.9,2.51666667 10.2,3.05 C10.3333333,3.51666667 10.8,3.83333333 11.6,4 C13.5,4.5 15.5333333,5.46666667 17.7,6.9 C17.8333333,6.96666667 17.9666667,6.96666667 18.1,6.9 C18.2,6.86666667 18.2833333,6.76666667 18.35,6.6 L18.65,5.95 C18.7166667,5.85 18.75,5.7 18.75,5.5 Z" id="Shape"></path>
                        </g>
                    </g>
                </g>
                <g id="Symbol_15_0_Layer0_3_MEMBER_0_FILL-link">
                    <g>
                        <g id="Symbol_15_0_Layer0_3_MEMBER_0_FILL">
                            <path d="M8.8,13.5 L27.2,4.7 L20.05,5.05 L15.4,8.55 L12.45,7.5 L11.5,10.55 L6.55,12.05 L3.75,17.9 L0.3,18.9 L1.85,21.75 L0.6,24.45 L3.8,30.35 L8.8,13.5 Z M42.95,6.95 L37.5,5.85 L47.85,22.75 L51.3,20.5 L42.95,6.95 Z" id="Shape" fill="#5D5353" fill-rule="nonzero"></path>
                            <polygon id="Path" fill="#544B4B" points="37.45 5.85 34.2 0.9 27.2 4.7 8.8 13.5 3.8 30.35 2.6 34.1 5.75 37.5 7.5 32.7 9.3 33 11.1 22.75 24.75 26.3 28 22.1 29.2 22.2 39.55 24.4 39.85 23.15 43.55 23.5 48 32.35 47.85 22.75 37.5 5.85"></polygon>
                        </g>
                    </g>
                </g>
            </g>
            <g id="Group" transform="translate(59.600000, 1.650000)">
                <g transform="translate(5.000000, 19.000000)" id="Symbol_16_0_Layer0_0_FILL-link">
                    <g>
                        <g id="Symbol_16_0_Layer0_0_FILL">
                            <path d="M29.6,33.15 C30.7666667,32.3833333 31.5833333,31.5166667 32.05,30.55 L12.85,30.55 C13.3166667,31.5166667 14.1333333,32.3833333 15.3,33.15 C17.2666667,34.45 19.65,35.1 22.45,35.1 C25.25,35.1 27.6333333,34.45 29.6,33.15 Z" id="Path" fill="#795E36"></path>
                            <path d="M42.55,17.9 C41.7833333,22.0333333 39.85,23.5666667 36.75,22.5 C32.65,20.7333333 27.8666667,19.85 22.4,19.85 C18.3,19.85 14.6,20.35 11.3,21.35 C10.5,21.5833333 9.71666667,21.85 8.95,22.15 C5.48333333,23.75 2.66666667,20.8 0.5,13.3 C0.333333333,17.5333333 0.566666667,21.7833333 1.2,26.05 C1.26666667,26.4166667 1.35,26.75 1.45,27.05 C1.55,27.5166667 1.71666667,27.9333333 1.95,28.3 C2.78333333,29.8 4.23333333,30.55 6.3,30.55 L12.85,30.55 L32.05,30.55 L36.65,30.55 C39.45,30.55 41.1333333,29.2166667 41.7,26.55 C41.7333333,26.35 41.7666667,26.1666667 41.8,26 C41.8333333,25.8333333 41.8666667,25.6833333 41.9,25.55 C42.2666667,23.0166667 42.4833333,20.4666667 42.55,17.9 Z" id="Path" fill="#85683B"></path>
                            <path d="M41.75,5.35 C41.3166667,2.38333333 39.6166667,0.9 36.65,0.9 L6.3,0.9 C3.36666667,0.9 1.66666667,2.41666667 1.2,5.45 C0.833333333,8.05 0.6,10.6666667 0.5,13.3 C2.66666667,20.8 5.48333333,23.75 8.95,22.15 C9.71666667,21.85 10.5,21.5833333 11.3,21.35 C14.6,20.35 18.3,19.85 22.4,19.85 C27.8666667,19.85 32.65,20.7333333 36.75,22.5 C39.85,23.5666667 41.7833333,22.0333333 42.55,17.9 C42.5833333,16.1 42.5666667,14.2833333 42.5,12.45 C42.3666667,10.1166667 42.1166667,7.75 41.75,5.35 Z" id="Path" fill="#957544"></path>
                        </g>
                    </g>
                </g>
                <g transform="translate(8.000000, 31.000000)" fill="#85683B" id="Symbol_16_0_Layer0_0_MEMBER_0_FILL-link">
                    <g>
                        <g id="Symbol_16_0_Layer0_0_MEMBER_0_FILL">
                            <path d="M0.8,1.15 L2.6,5 C2.63333333,5.03333333 2.65,5.06666667 2.65,5.1 L5.25,8.05 C5.31666667,8.11666667 5.41666667,8.15 5.55,8.15 C5.65,8.18333333 5.75,8.16666667 5.85,8.1 L6.4,7.7 C6.46666667,7.63333333 6.51666667,7.55 6.55,7.45 C6.58333333,7.35 6.58333333,7.25 6.55,7.15 L4.85,3.45 C4.85,3.41666667 4.83333333,3.38333333 4.8,3.35 L2.1,0.25 C2.06666667,0.183333333 1.98333333,0.15 1.85,0.15 C1.75,0.116666667 1.65,0.133333333 1.55,0.2 L0.9,0.65 C0.833333333,0.683333333 0.783333333,0.75 0.75,0.85 C0.75,0.95 0.766666667,1.05 0.8,1.15 Z" id="Path"></path>
                        </g>
                    </g>
                </g>
                <g transform="translate(16.000000, 27.000000)" id="Symbol_16_0_Layer0_1_FILL-link">
                    <g>
                        <g id="Symbol_16_0_Layer0_1_FILL">
                            <path d="M8.05,2 C8.31666667,1.9 8.51666667,1.73333333 8.65,1.5 C8.81666667,1.26666667 8.85,1.01666667 8.75,0.75 C8.61666667,0.483333333 8.45,0.283333333 8.25,0.15 C7.98333333,0.0166666667 7.73333333,1.38777878e-17 7.5,0.1 C5.5,0.7 3.51666667,0.966666667 1.55,0.9 C1.25,0.933333333 1.01666667,1.03333333 0.85,1.2 C0.616666667,1.36666667 0.516666667,1.6 0.55,1.9 C0.516666667,2.16666667 0.6,2.4 0.8,2.6 C0.966666667,2.83333333 1.2,2.93333333 1.5,2.9 C3.7,3 5.88333333,2.7 8.05,2 Z M26.55,1.6 C26.3166667,1.43333333 26.0666667,1.33333333 25.8,1.3 C23.8666667,1.4 21.9,1.15 19.9,0.55 C19.6333333,0.416666667 19.3666667,0.433333333 19.1,0.6 C18.9,0.666666667 18.7333333,0.85 18.6,1.15 C18.5333333,1.45 18.5666667,1.71666667 18.7,1.95 C18.8333333,2.15 19.0333333,2.31666667 19.3,2.45 C21.5,3.11666667 23.6666667,3.41666667 25.8,3.35 C26.1333333,3.35 26.3833333,3.25 26.55,3.05 C26.7833333,2.85 26.8833333,2.61666667 26.85,2.35 C26.85,2.01666667 26.75,1.76666667 26.55,1.6 Z" id="Shape" fill="#544B4B" fill-rule="nonzero"></path>
                            <path d="M14.95,13.45 C14.35,13.25 13.7,13.15 13,13.15 C11.3666667,13.15 9.95,13.75 8.75,14.95 C8.45,15.2166667 8.2,15.5166667 8,15.85 L15,15.85 L14.95,13.45 Z" id="Path" fill="#FFFFFF"></path>
                            <path d="M17.25,14.95 L17.2,14.9 C16.5333333,14.2333333 15.7833333,13.75 14.95,13.45 L15,15.85 L8,15.85 C7.83333333,16.0833333 7.68333333,16.3333333 7.55,16.6 C7.38333333,16.9 7.26666667,17.2166667 7.2,17.55 C7.13333333,17.7833333 7.13333333,17.9833333 7.2,18.15 C7.26666667,18.3833333 7.4,18.55 7.6,18.65 C7.76666667,18.7833333 7.95,18.85 8.15,18.85 L17.85,18.85 C18.05,18.85 18.25,18.7833333 18.45,18.65 C18.6166667,18.55 18.7333333,18.3833333 18.8,18.15 C18.8666667,17.9833333 18.8833333,17.7833333 18.85,17.55 C18.75,17.2166667 18.6166667,16.9 18.45,16.6 C18.15,16 17.75,15.45 17.25,14.95 Z" id="Path" fill="#705732"></path>
                        </g>
                    </g>
                </g>
                <g transform="translate(16.000000, 32.000000)" fill-rule="nonzero" id="Symbol_16_0_Layer0_1_MEMBER_0_FILL-link">
                    <g>
                        <g id="Symbol_16_0_Layer0_1_MEMBER_0_FILL">
                            <path d="M7.25,2.6 C7.25,2.13333333 7.18333333,1.7 7.05,1.3 L3.4,0.65 C3.1,1.21666667 2.95,1.86666667 2.95,2.6 C2.95,3.46666667 3.15,4.2 3.55,4.8 C3.98333333,5.43333333 4.5,5.75 5.1,5.75 C5.7,5.75 6.2,5.43333333 6.6,4.8 C7.03333333,4.2 7.25,3.46666667 7.25,2.6 Z M24.1,2.6 C24.1,1.96666667 23.9833333,1.38333333 23.75,0.85 L19.95,1.4 C19.85,1.76666667 19.8,2.16666667 19.8,2.6 C19.8,3.46666667 20,4.2 20.4,4.8 C20.8333333,5.43333333 21.35,5.75 21.95,5.75 C22.55,5.75 23.05,5.43333333 23.45,4.8 C23.8833333,4.2 24.1,3.46666667 24.1,2.6 Z" id="Shape" fill="#544B4B"></path>
                            <path d="M7.05,1.3 C7.18333333,1.7 7.25,2.13333333 7.25,2.6 C7.25,3.46666667 7.03333333,4.2 6.6,4.8 C6.2,5.43333333 5.7,5.75 5.1,5.75 C4.5,5.75 3.98333333,5.43333333 3.55,4.8 C3.15,4.2 2.95,3.46666667 2.95,2.6 C2.95,1.86666667 3.1,1.21666667 3.4,0.65 L1.4,0.3 C0.933333333,0.966666667 0.7,1.73333333 0.7,2.6 C0.7,3.63333333 1.03333333,4.51666667 1.7,5.25 C2.43333333,6.01666667 3.31666667,6.4 4.35,6.4 C5.38333333,6.4 6.23333333,6.01666667 6.9,5.25 C7.63333333,4.51666667 8,3.63333333 8,2.6 C8,2.16666667 7.95,1.76666667 7.85,1.4 L7.05,1.3 Z M26,0.55 L23.75,0.85 C23.9833333,1.38333333 24.1,1.96666667 24.1,2.6 C24.1,3.46666667 23.8833333,4.2 23.45,4.8 C23.05,5.43333333 22.55,5.75 21.95,5.75 C21.35,5.75 20.8333333,5.43333333 20.4,4.8 C20,4.2 19.8,3.46666667 19.8,2.6 C19.8,2.16666667 19.85,1.76666667 19.95,1.4 L19.45,1.45 C19.35,1.81666667 19.3,2.2 19.3,2.6 C19.3,3.63333333 19.6333333,4.51666667 20.3,5.25 C21.0333333,6.01666667 21.9166667,6.4 22.95,6.4 C23.9833333,6.4 24.8333333,6.01666667 25.5,5.25 C26.2333333,4.51666667 26.6,3.63333333 26.6,2.6 C26.6,1.83333333 26.4,1.15 26,0.55 Z" id="Shape" fill="#FFFFFF"></path>
                        </g>
                    </g>
                </g>
                <g transform="translate(19.000000, 37.000000)" fill="#544B4B" fill-rule="nonzero" id="Symbol_16_0_Layer0_2_FILL-link">
                    <g>
                        <g id="Symbol_16_0_Layer0_2_FILL">
                            <path d="M9.45,3.05 C9.75,2.51666667 9.6,1.86666667 9,1.1 C8.96666667,1.06666667 8.93333333,1.03333333 8.9,1 C8.23333333,0.4 7.4,0.216666667 6.4,0.45 C4.6,0.95 2.83333333,2.48333333 1.1,5.05 C1,5.18333333 0.95,5.33333333 0.95,5.5 C0.916666667,5.7 0.95,5.85 1.05,5.95 L1.3,6.6 C1.36666667,6.76666667 1.45,6.86666667 1.55,6.9 C1.71666667,6.96666667 1.85,6.96666667 1.95,6.9 C4.11666667,5.46666667 6.15,4.5 8.05,4 C8.85,3.83333333 9.31666667,3.51666667 9.45,3.05 Z M18.75,5.5 C18.7166667,5.33333333 18.65,5.18333333 18.55,5.05 C16.8166667,2.48333333 15.05,0.95 13.25,0.45 C12.25,0.216666667 11.4166667,0.4 10.75,1 C10.7166667,1.03333333 10.7,1.06666667 10.7,1.1 C10.0666667,1.86666667 9.9,2.51666667 10.2,3.05 C10.3333333,3.51666667 10.8,3.83333333 11.6,4 C13.5,4.5 15.5333333,5.46666667 17.7,6.9 C17.8333333,6.96666667 17.9666667,6.96666667 18.1,6.9 C18.2,6.86666667 18.2833333,6.76666667 18.35,6.6 L18.65,5.95 C18.7166667,5.85 18.75,5.7 18.75,5.5 Z" id="Shape"></path>
                        </g>
                    </g>
                </g>
                <g id="Symbol_16_0_Layer0_3_MEMBER_0_FILL-link">
                    <g>
                        <g id="Symbol_16_0_Layer0_3_MEMBER_0_FILL">
                            <path d="M8.8,13.5 L27.2,4.7 L20.05,5.05 L15.4,8.55 L12.45,7.5 L11.5,10.55 L6.55,12.05 L3.75,17.9 L0.3,18.9 L1.85,21.75 L0.6,24.45 L3.8,30.35 L8.8,13.5 Z M42.95,6.95 L37.5,5.85 L47.85,22.75 L51.3,20.5 L42.95,6.95 Z" id="Shape" fill="#5D5353" fill-rule="nonzero"></path>
                            <polygon id="Path" fill="#544B4B" points="37.45 5.85 34.2 0.9 27.2 4.7 8.8 13.5 3.8 30.35 2.6 34.1 5.75 37.5 7.5 32.7 9.3 33 11.1 22.75 24.75 26.3 28 22.1 29.2 22.2 39.55 24.4 39.85 23.15 43.55 23.5 48 32.35 47.85 22.75 37.5 5.85"></polygon>
                        </g>
                    </g>
                </g>
            </g>
            <g id="head_FL_FL_FL_FL_FL_FL_FL_FL_FL" transform="translate(0.400000, 0.250000)">
                <g id="Group" transform="translate(5.000000, 19.000000)">
                    <g id="Symbol_12_0_Layer0_0_FILL-link">
                        <g id="Symbol_12_0_Layer0_0_FILL">
                            <path d="M42.55,17.9 C41.7833333,22.0333333 39.85,23.5666667 36.75,22.5 C32.65,20.7333333 27.8666667,19.85 22.4,19.85 C18.3,19.85 14.6,20.35 11.3,21.35 C10.5,21.5833333 9.71666667,21.85 8.95,22.15 C5.48333333,23.75 2.66666667,20.8 0.5,13.3 C0.333333333,17.5333333 0.566666667,21.7833333 1.2,26.05 C1.26666667,26.4166667 1.35,26.75 1.45,27.05 C1.55,27.5166667 1.71666667,27.9333333 1.95,28.3 C2.78333333,29.8 4.23333333,30.55 6.3,30.55 L12.85,30.55 L32.05,30.55 L36.65,30.55 C39.45,30.55 41.1333333,29.2166667 41.7,26.55 C41.7333333,26.35 41.7666667,26.1666667 41.8,26 C41.8333333,25.8333333 41.8666667,25.6833333 41.9,25.55 C42.2666667,23.0166667 42.4833333,20.4666667 42.55,17.9 Z" id="Path" fill="#85683B"></path>
                            <path d="M42.5,12.45 C42.3666667,10.1166667 42.1166667,7.75 41.75,5.35 C41.3166667,2.38333333 39.6166667,0.9 36.65,0.9 L6.3,0.9 C3.36666667,0.9 1.66666667,2.41666667 1.2,5.45 C0.833333333,8.05 0.6,10.6666667 0.5,13.3 C2.66666667,20.8 5.48333333,23.75 8.95,22.15 C9.71666667,21.85 10.5,21.5833333 11.3,21.35 C14.6,20.35 18.3,19.85 22.4,19.85 C27.8666667,19.85 32.65,20.7333333 36.75,22.5 C39.85,23.5666667 41.7833333,22.0333333 42.55,17.9 C42.5833333,16.1 42.5666667,14.2833333 42.5,12.45 Z" id="Path" fill="#957544"></path>
                            <path d="M15.3,33.15 C17.2666667,34.45 19.65,35.1 22.45,35.1 C25.25,35.1 27.6333333,34.45 29.6,33.15 C30.7666667,32.3833333 31.5833333,31.5166667 32.05,30.55 L12.85,30.55 C13.3166667,31.5166667 14.1333333,32.3833333 15.3,33.15 Z" id="Path" fill="#795E36"></path>
                        </g>
                    </g>
                </g>
                <g id="Group" transform="translate(8.000000, 31.000000)" fill="#85683B">
                    <g id="Symbol_12_0_Layer0_0_MEMBER_0_FILL-link">
                        <g id="Symbol_12_0_Layer0_0_MEMBER_0_FILL">
                            <path d="M0.8,1.15 L2.6,5 C2.63333333,5.03333333 2.65,5.06666667 2.65,5.1 L5.25,8.05 C5.31666667,8.11666667 5.41666667,8.15 5.55,8.15 C5.65,8.18333333 5.75,8.16666667 5.85,8.1 L6.4,7.7 C6.46666667,7.63333333 6.51666667,7.55 6.55,7.45 C6.58333333,7.35 6.58333333,7.25 6.55,7.15 L4.85,3.45 C4.85,3.41666667 4.83333333,3.38333333 4.8,3.35 L2.1,0.25 C2.06666667,0.183333333 1.98333333,0.15 1.85,0.15 C1.75,0.116666667 1.65,0.133333333 1.55,0.2 L0.9,0.65 C0.833333333,0.683333333 0.783333333,0.75 0.75,0.85 C0.75,0.95 0.766666667,1.05 0.8,1.15 Z" id="Path"></path>
                        </g>
                    </g>
                </g>
                <g id="Group" transform="translate(16.000000, 27.000000)">
                    <g id="Symbol_12_0_Layer0_1_FILL-link">
                        <g id="Symbol_12_0_Layer0_1_FILL">
                            <path d="M26.2,2.6 C26.4666667,2.46666667 26.6166667,2.26666667 26.65,2 C26.7166667,1.73333333 26.6833333,1.48333333 26.55,1.25 C26.4166667,0.983333333 26.2,0.833333333 25.9,0.8 C25.6666667,0.733333333 25.4166667,0.766666667 25.15,0.9 C23.4833333,1.93333333 21.6333333,2.68333333 19.6,3.15 C19.3333333,3.18333333 19.1333333,3.31666667 19,3.55 C18.8666667,3.78333333 18.8166667,4.05 18.85,4.35 C18.9166667,4.61666667 19.0666667,4.81666667 19.3,4.95 C19.5333333,5.08333333 19.7833333,5.13333333 20.05,5.1 C22.3166667,4.6 24.3666667,3.76666667 26.2,2.6 Z M8.1,5.15 C8.33333333,5.01666667 8.48333333,4.81666667 8.55,4.55 C8.58333333,4.25 8.53333333,3.98333333 8.4,3.75 C8.26666667,3.51666667 8.06666667,3.38333333 7.8,3.35 C5.76666667,2.88333333 3.91666667,2.13333333 2.25,1.1 C1.98333333,0.966666667 1.73333333,0.933333333 1.5,1 C1.2,1.03333333 0.983333333,1.18333333 0.85,1.45 C0.716666667,1.68333333 0.683333333,1.93333333 0.75,2.2 C0.783333333,2.46666667 0.933333333,2.66666667 1.2,2.8 C3.03333333,3.96666667 5.08333333,4.8 7.35,5.3 C7.61666667,5.33333333 7.86666667,5.28333333 8.1,5.15 Z" id="Shape" fill="#544B4B" fill-rule="nonzero"></path>
                            <path d="M15.05,16.35 L15.05,13.35 L8.2,13.35 C8,13.35 7.81666667,13.4166667 7.65,13.55 C7.45,13.65 7.31666667,13.8166667 7.25,14.05 C7.18333333,14.2166667 7.18333333,14.4166667 7.25,14.65 C7.31666667,14.9833333 7.43333333,15.3 7.6,15.6 C7.73333333,15.8666667 7.88333333,16.1166667 8.05,16.35 L15.05,16.35 Z" id="Path" fill="#FFFFFF"></path>
                            <path d="M18.5,13.55 C18.3,13.4166667 18.1,13.35 17.9,13.35 L15.05,13.35 L15.05,16.35 L8.05,16.35 C8.25,16.6833333 8.5,16.9833333 8.8,17.25 C10,18.45 11.4166667,19.05 13.05,19.05 C14.6833333,19.05 16.0833333,18.4666667 17.25,17.3 L17.3,17.25 C17.8,16.75 18.2,16.2 18.5,15.6 C18.6666667,15.3 18.8,14.9833333 18.9,14.65 C18.9333333,14.4166667 18.9166667,14.2166667 18.85,14.05 C18.7833333,13.8166667 18.6666667,13.65 18.5,13.55 Z" id="Path" fill="#705732"></path>
                        </g>
                    </g>
                </g>
                <g id="Group" transform="translate(16.000000, 32.000000)" fill-rule="nonzero">
                    <g id="Symbol_12_0_Layer0_1_MEMBER_0_FILL-link">
                        <g id="Symbol_12_0_Layer0_1_MEMBER_0_FILL">
                            <path d="M3.4,0.65 C3.1,1.21666667 2.95,1.86666667 2.95,2.6 C2.95,3.46666667 3.15,4.2 3.55,4.8 C3.98333333,5.43333333 4.5,5.75 5.1,5.75 C5.7,5.75 6.2,5.43333333 6.6,4.8 C7.03333333,4.2 7.25,3.46666667 7.25,2.6 C7.25,2.13333333 7.18333333,1.7 7.05,1.3 L3.4,0.65 Z M24.1,2.6 C24.1,1.96666667 23.9833333,1.38333333 23.75,0.85 L19.95,1.4 C19.85,1.76666667 19.8,2.16666667 19.8,2.6 C19.8,3.46666667 20,4.2 20.4,4.8 C20.8333333,5.43333333 21.35,5.75 21.95,5.75 C22.55,5.75 23.05,5.43333333 23.45,4.8 C23.8833333,4.2 24.1,3.46666667 24.1,2.6 Z" id="Shape" fill="#544B4B"></path>
                            <path d="M2.95,2.6 C2.95,1.86666667 3.1,1.21666667 3.4,0.65 L1.4,0.3 C0.933333333,0.966666667 0.7,1.73333333 0.7,2.6 C0.7,3.63333333 1.03333333,4.51666667 1.7,5.25 C2.43333333,6.01666667 3.31666667,6.4 4.35,6.4 C5.38333333,6.4 6.23333333,6.01666667 6.9,5.25 C7.63333333,4.51666667 8,3.63333333 8,2.6 C8,2.16666667 7.95,1.76666667 7.85,1.4 L7.05,1.3 C7.18333333,1.7 7.25,2.13333333 7.25,2.6 C7.25,3.46666667 7.03333333,4.2 6.6,4.8 C6.2,5.43333333 5.7,5.75 5.1,5.75 C4.5,5.75 3.98333333,5.43333333 3.55,4.8 C3.15,4.2 2.95,3.46666667 2.95,2.6 Z M26,0.55 L23.75,0.85 C23.9833333,1.38333333 24.1,1.96666667 24.1,2.6 C24.1,3.46666667 23.8833333,4.2 23.45,4.8 C23.05,5.43333333 22.55,5.75 21.95,5.75 C21.35,5.75 20.8333333,5.43333333 20.4,4.8 C20,4.2 19.8,3.46666667 19.8,2.6 C19.8,2.16666667 19.85,1.76666667 19.95,1.4 L19.45,1.45 C19.35,1.81666667 19.3,2.2 19.3,2.6 C19.3,3.63333333 19.6333333,4.51666667 20.3,5.25 C21.0333333,6.01666667 21.9166667,6.4 22.95,6.4 C23.9833333,6.4 24.8333333,6.01666667 25.5,5.25 C26.2333333,4.51666667 26.6,3.63333333 26.6,2.6 C26.6,1.83333333 26.4,1.15 26,0.55 Z" id="Shape" fill="#FFFFFF"></path>
                        </g>
                    </g>
                </g>
                <g id="Group" transform="translate(19.000000, 37.000000)" fill="#544B4B" fill-rule="nonzero">
                    <g id="Symbol_12_0_Layer0_2_FILL-link">
                        <g id="Symbol_12_0_Layer0_2_FILL">
                            <path d="M18.75,5.5 C18.7166667,5.33333333 18.65,5.18333333 18.55,5.05 C16.8166667,2.48333333 15.05,0.95 13.25,0.45 C12.25,0.216666667 11.4166667,0.4 10.75,1 C10.7166667,1.03333333 10.7,1.06666667 10.7,1.1 C10.0666667,1.86666667 9.9,2.51666667 10.2,3.05 C10.3333333,3.51666667 10.8,3.83333333 11.6,4 C13.5,4.5 15.5333333,5.46666667 17.7,6.9 C17.8333333,6.96666667 17.9666667,6.96666667 18.1,6.9 C18.2,6.86666667 18.2833333,6.76666667 18.35,6.6 L18.65,5.95 C18.7166667,5.85 18.75,5.7 18.75,5.5 Z M6.4,0.45 C4.6,0.95 2.83333333,2.48333333 1.1,5.05 C1,5.18333333 0.95,5.33333333 0.95,5.5 C0.916666667,5.7 0.95,5.85 1.05,5.95 L1.3,6.6 C1.36666667,6.76666667 1.45,6.86666667 1.55,6.9 C1.71666667,6.96666667 1.85,6.96666667 1.95,6.9 C4.11666667,5.46666667 6.15,4.5 8.05,4 C8.85,3.83333333 9.31666667,3.51666667 9.45,3.05 C9.75,2.51666667 9.6,1.86666667 9,1.1 C8.96666667,1.06666667 8.93333333,1.03333333 8.9,1 C8.23333333,0.4 7.4,0.216666667 6.4,0.45 Z" id="Shape"></path>
                        </g>
                    </g>
                </g>
                <g id="Group">
                    <g id="Symbol_12_0_Layer0_3_MEMBER_0_FILL-link">
                        <g id="Symbol_12_0_Layer0_3_MEMBER_0_FILL">
                            <path d="M37.5,5.85 L47.85,22.75 L51.3,20.5 L42.95,6.95 L37.5,5.85 Z M27.2,4.7 L20.05,5.05 L15.4,8.55 L12.45,7.5 L11.5,10.55 L6.55,12.05 L3.75,17.9 L0.3,18.9 L1.85,21.75 L0.6,24.45 L3.8,30.35 L8.8,13.5 L27.2,4.7 Z" id="Shape" fill="#5D5353" fill-rule="nonzero"></path>
                            <polygon id="Path" fill="#544B4B" points="37.5 5.85 37.45 5.85 34.2 0.9 27.2 4.7 8.8 13.5 3.8 30.35 2.6 34.1 5.75 37.5 7.5 32.7 9.3 33 11.1 22.75 24.75 26.3 28 22.1 29.2 22.2 39.55 24.4 39.85 23.15 43.55 23.5 48 32.35 47.85 22.75"></polygon>
                        </g>
                    </g>
                </g>
            </g>
        </g>
    </g>
</svg>