<?xml version="1.0" encoding="UTF-8"?>
<svg width="230px" height="150px" viewBox="0 0 230 150" version="1.1" xmlns="http://www.w3.org/2000/svg" xmlns:xlink="http://www.w3.org/1999/xlink">
    <!-- Generator: Sketch 52.5 (67469) - http://www.bohemiancoding.com/sketch -->
    <title>zomby</title>
    <desc>Created with Sketch.</desc>
    <g id="zomby" stroke="none" stroke-width="1" fill="none" fill-rule="evenodd">
        <g id="Group-2" transform="translate(-2.000000, 6.000000)">
            <g id="handRight_FL_FL_FL_FL_FL_FL_FL_FL_FL_FL_FL_FL_FL_FL_FL_FL_FL_FL_FL_FL_FL" transform="translate(122.500000, 135.000000) scale(-1, 1) translate(-122.500000, -135.000000) translate(114.000000, 127.000000)" fill-rule="nonzero">
                <g id="Group">
                    <g id="Symbol_9_0_Layer0_0_FILL-link">
                        <g id="Symbol_9_0_Layer0_0_FILL">
                            <path d="M14.9,7.15 C13.7,3.85 12.2833333,1.46666667 10.65,0 L1,2.55 C0.2,2.75 -0.116666667,3.21666667 0.05,3.95 L0.2,4.5 C2,12.5666667 5.2,16 9.8,14.8 C11.4333333,14.4 13.05,13.7833333 14.65,12.95 C15.7166667,12.4166667 16.15,11.75 15.95,10.95 L15.9,10.7 C15.6333333,9.73333333 15.3666667,8.8 15.1,7.9 L15.1,7.95 L14.9,7.15 Z M1.85,6 C1.81666667,5.7 2.18333333,5.31666667 2.95,4.85 C3.68333333,4.38333333 4.61666667,3.95 5.75,3.55 C6.91666667,3.18333333 7.9,2.95 8.7,2.85 C9.56666667,2.78333333 10.0166667,2.88333333 10.05,3.15 C10.1166667,3.45 9.78333333,3.83333333 9.05,4.3 C8.31666667,4.8 7.36666667,5.25 6.2,5.65 C5.06666667,6.05 4.08333333,6.28333333 3.25,6.35 C2.38333333,6.41666667 1.91666667,6.3 1.85,6 Z" id="Shape" fill="#2ECC71"></path>
                            <path d="M2.95,4.85 C2.18333333,5.31666667 1.81666667,5.7 1.85,6 C1.91666667,6.3 2.38333333,6.41666667 3.25,6.35 C4.08333333,6.28333333 5.06666667,6.05 6.2,5.65 C7.36666667,5.25 8.31666667,4.8 9.05,4.3 C9.78333333,3.83333333 10.1166667,3.45 10.05,3.15 C10.0166667,2.88333333 9.56666667,2.78333333 8.7,2.85 C7.9,2.95 6.91666667,3.18333333 5.75,3.55 C4.61666667,3.95 3.68333333,4.38333333 2.95,4.85 Z M15.1,7.9 C17.1666667,5 15.6833333,2.36666667 10.65,0 C12.2833333,1.46666667 13.7,3.85 14.9,7.15 L15.1,7.95 L15.1,7.9 Z" id="Shape" fill="#29B665"></path>
                        </g>
                    </g>
                </g>
            </g>
            <g id="legRight_FL_FL_FL_FL_FL_FL_FL_FL_FL_FL_FL_FL_FL_FL_FL_FL_FL_FL_FL" transform="translate(87.500000, 132.500000) scale(-1, 1) translate(-87.500000, -132.500000) translate(77.000000, 121.000000)">
                <g id="Group">
                    <g id="Symbol_11_0_Layer0_0_FILL-link">
                        <g id="Symbol_11_0_Layer0_0_FILL">
                            <polygon id="Path" fill="#E0C1A2" points="21 18.05 21 14.65 3.25 14.65 3.25 18 3.25 18.05 20.95 18.05"></polygon>
                            <path d="M20.95,23 L20.95,18.05 L3.25,18.05 L3.25,18 C2.05,18.6 0.966666667,19.55 0,20.85 L0,23 L20.95,23 Z" id="Path" fill="#AA7E5C"></path>
                            <path d="M12.15,0 L12.1,0 C9.63333333,0 7.55,0.833333333 5.85,2.5 C4.11666667,4.2 3.25,6.26666667 3.25,8.7 L3.25,14.65 L21,14.65 L21,8.7 C21,6.26666667 20.15,4.2 18.45,2.5 C16.7166667,0.833333333 14.6166667,0 12.15,0 Z" id="Path" fill="#ECCFB1"></path>
                        </g>
                    </g>
                </g>
            </g>
            <g id="armRight_FL_FL_FL_FL_FL_FL_FL_FL_FL_FL_FL_FL_FL_FL_FL_FL_FL_FL_FL_FL_FL_FL" transform="translate(125.500000, 95.500000) scale(-1, 1) translate(-125.500000, -95.500000) translate(116.000000, 78.000000)">
                <g id="Group">
                    <g id="Symbol_8_0_Layer0_0_FILL-link">
                        <g id="Symbol_8_0_Layer0_0_FILL">
                            <path d="M12.55,1.1 L12.5,1.1 C12.1,1.03333333 11.7166667,1 11.35,1 C7.98333333,0.9 5.13333333,4.25 2.8,11.05 L0.95,15.45 L3.8,15.1 L7.7,14.65 L10.2,17.75 L13.7,16.2 L17.25,17.65 L18.7,18.3 C18.1125,17.2540365 17.9458333,15.7873698 18.2,13.9 L18.85,10.3 C19.25,8.16666667 18.8333333,6.18333333 17.6,4.35 C16.3666667,2.55 14.6833333,1.46666667 12.55,1.1 Z" id="Path" fill="#AF7B48"></path>
                            <path d="M17.25,17.65 L13.7,16.2 L10.2,17.75 L7.7,14.65 L3.8,15.1 C3.03997396,21.0644531 2.78997396,26.1144531 3.05,30.25 C5.08333333,32.1833333 7.6,33.4333333 10.6,34 C13.2592448,29.549349 15.4759115,24.099349 17.25,17.65 Z" id="Path" fill="#2ECC71"></path>
                        </g>
                    </g>
                </g>
            </g>
            <g id="Group" transform="translate(59.000000, 73.000000)">
                <g id="Symbol_18_0_Layer0_0_FILL-link">
                    <g>
                        <g id="Symbol_18_0_Layer0_0_FILL">
                            <polygon id="Path" fill="#C48A51" points="39 0 0 0 0 26.9 39 26.9"></polygon>
                            <polygon id="Path" fill="#8E643A" points="0 26.9 0 31 39 31 39 26.9"></polygon>
                        </g>
                    </g>
                </g>
                <g transform="translate(26.500000, 1.650000)" fill="#B17D49" id="Symbol_18_0_Layer0_1_FILL-link">
                    <g>
                        <g id="Symbol_18_0_Layer0_1_FILL">
                            <path d="M4.65,4.2 L1.95,1.1 C1.91666667,1.03333333 1.83333333,1 1.7,1 C1.6,0.966666667 1.5,0.983333333 1.4,1.05 L0.75,1.5 C0.683333333,1.53333333 0.633333333,1.6 0.6,1.7 C0.6,1.8 0.616666667,1.9 0.65,2 L2.45,5.85 C2.48333333,5.88333333 2.5,5.91666667 2.5,5.95 L5.1,8.9 C5.16666667,8.96666667 5.26666667,9 5.4,9 C5.5,9.03333333 5.6,9.01666667 5.7,8.95 L6.25,8.55 C6.31666667,8.48333333 6.36666667,8.4 6.4,8.3 C6.43333333,8.2 6.43333333,8.1 6.4,8 L4.7,4.3 C4.7,4.26666667 4.68333333,4.23333333 4.65,4.2 Z" id="Path"></path>
                        </g>
                    </g>
                </g>
                <g transform="translate(9.106213, 21.991391) scale(-1, 1) rotate(-9.199155) translate(-9.106213, -21.991391) translate(5.606220, 17.491399)" fill="#B17D49" id="Symbol_18_0_Layer0_2_FILL-link">
                    <g>
                        <g id="Symbol_18_0_Layer0_2_FILL">
                            <path d="M0.749998645,0.749998645 C0.749998645,0.849998464 0.766665282,0.949998284 0.799998555,1.0499981 L2.5999953,4.89999115 C2.63332858,4.93332442 2.64999521,4.96665769 2.64999521,4.99999097 L5.24999052,7.94998564 C5.31665706,8.01665218 5.41665688,8.04998546 5.54998997,8.04998546 C5.64998979,8.08331873 5.74998961,8.06665209 5.84998943,7.99998555 L6.39998844,7.59998627 C6.46665498,7.53331972 6.51665489,7.44998654 6.54998817,7.34998672 C6.58332144,7.2499869 6.58332144,7.14998708 6.54998817,7.04998726 L4.84999124,3.34999395 C4.84999124,3.31666067 4.8333246,3.2833274 4.79999133,3.24999413 L2.09999621,0.149999729 C2.06666293,0.0833331828 1.98332975,0.0499999097 1.84999666,0.0499999097 C1.74999684,0.0166666366 1.64999702,0.0333332731 1.5499972,0.0999998193 L0.899998374,0.549999006 C0.833331828,0.58333228 0.783331918,0.649998826 0.749998645,0.749998645 Z" id="Path"></path>
                        </g>
                    </g>
                </g>
                <g transform="translate(29.685245, 17.907602) rotate(-59.999632) translate(-29.685245, -17.907602) translate(23.685311, 11.907669)" fill="#E05848" id="Symbol_18_0_Layer0_3_FILL-link">
                    <g>
                        <g id="Symbol_18_0_Layer0_3_FILL">
                            <path d="M0.949989444,4.44995055 C0.883323518,4.78328018 1.33331852,5.19994222 2.29997444,5.69993666 C2.66663704,5.86660148 3.08329907,6.04993278 3.54996055,6.24993055 C3.58329352,6.58326018 3.68329241,6.91658981 3.84995722,7.24991944 C4.049955,7.58324907 4.3166187,7.86657926 4.64994833,8.09991 C4.54994944,8.56657148 4.49995,8.9999 4.49995,9.39989555 C4.43328407,10.5665493 4.56661592,11.1832091 4.89994555,11.249875 C5.23327518,11.3498739 5.64993722,10.8832124 6.14993166,9.84989055 C6.31659648,9.48322796 6.49992777,9.0832324 6.69992555,8.64990389 C7.03325518,8.549905 7.34991833,8.41657314 7.649915,8.24990833 C7.98324463,8.04991055 8.26657481,7.83324629 8.49990555,7.59991555 C8.9999,7.63324852 9.46656148,7.68324796 9.89989,7.74991389 C11.0332107,7.78324685 11.6332041,7.63324852 11.69987,7.29991889 C11.7998689,6.99992222 11.3498739,6.59992666 10.349885,6.09993222 C9.94988944,5.86660148 9.51656092,5.64993722 9.04989944,5.44993944 C9.01656648,5.11660981 8.89990111,4.78328018 8.69990333,4.44995055 C8.53323851,4.11662092 8.31657426,3.8666237 8.04991055,3.69995889 C8.11657648,3.16663148 8.16657592,2.68330352 8.19990889,2.249975 C8.23324185,1.14998722 8.08324351,0.549993889 7.74991389,0.449995 C7.41658426,0.383329074 7.0165887,0.833324074 6.54992722,1.79998 C6.34992944,2.16664259 6.16659815,2.59997111 5.99993333,3.09996555 C5.59993778,3.13329852 5.23327518,3.24996389 4.89994555,3.44996167 C4.56661592,3.64995944 4.29995222,3.89995666 4.09995444,4.19995333 C3.59996,4.09995444 3.149965,4.049955 2.74996944,4.049955 C1.64998167,4.01662204 1.04998833,4.14995389 0.949989444,4.44995055 Z" id="Path"></path>
                        </g>
                    </g>
                </g>
            </g>
            <g id="body_FL_FL_FL_FL_FL_FL_FL_FL_FL_FL_FL_FL_FL_FL_FL_FL_FL_FL_FL_FL" transform="translate(8.000000, 73.000000)">
                <g id="Group" transform="translate(1.000000, 0.000000)">
                    <g id="Symbol_10_0_Layer0_0_FILL-link">
                        <g id="Symbol_10_0_Layer0_0_FILL">
                            <polygon id="Path" fill="#FAFAFA" points="20.25 19.75 24.9 6.55 15.75 6.95"></polygon>
                            <path d="M27.2,0 L24.9,6.55 L20.25,19.75 L27.45,11.6 L29.75,8.95 L32.2,6.2 L27.2,0 Z M15.75,6.95 L13.3,0 L8.3,6.2 L20.25,19.75 L15.75,6.95 Z M0,26.9 L0,31 L39,31 L39,26.9 L0,26.9 Z" id="Shape" fill="#8E643A" fill-rule="nonzero"></path>
                            <polygon id="Path" fill="#25A65B" points="24.9 6.55 27.2 0 13.3 0 15.75 6.95"></polygon>
                            <polygon id="Path" fill="#C48A51" points="27.45 11.6 20.25 19.75 8.3 6.2 13.3 0 0 0 0 26.9 39 26.9 39 0 27.2 0 32.2 6.2 29.75 8.95 35.2 8.95 35.2 11.6"></polygon>
                            <polygon id="Path" fill="#B17D49" points="35.2 8.95 29.75 8.95 27.45 11.6 35.2 11.6"></polygon>
                        </g>
                    </g>
                </g>
                <g id="Group" transform="translate(31.388905, 23.430495) rotate(14.999043) translate(-31.388905, -23.430495) translate(25.471298, 17.512887)" fill="#E05848">
                    <g id="Symbol_10_0_Layer0_1_FILL-link">
                        <g id="Symbol_10_0_Layer0_1_FILL">
                            <path d="M4.87332408,1.67085397 C4.78421549,2.09872022 4.71459658,2.55124317 4.66446733,3.02842282 C4.32163043,3.17418742 4.00834531,3.38304417 3.72461197,3.65499306 C3.45755816,3.93365002 3.24870142,4.23533198 3.09804173,4.56003896 C2.63600057,4.62630384 2.19508078,4.7075259 1.77528234,4.80370516 C0.707792306,5.03576821 0.174047288,5.31424387 0.174047288,5.63913215 C0.174047288,5.98722672 0.707792306,6.27730554 1.77528234,6.50936859 C2.19571532,6.59693613 2.64823827,6.66655505 3.13285119,6.71822533 C3.26166432,7.04429205 3.45891791,7.33437086 3.72461197,7.58846178 C4.00789206,7.87174187 4.30957403,8.08059861 4.62965787,8.21503201 C4.70199628,8.70037013 4.78321834,9.14128993 4.87332408,9.53779141 C5.10538713,10.6516941 5.39546594,11.2086454 5.74356052,11.2086454 C6.06844879,11.2086454 6.34692445,10.6516941 6.5789875,9.53779141 C6.68015249,9.13304081 6.76137456,8.68051786 6.82265371,8.18022256 C7.12705516,8.04923384 7.40553082,7.85198025 7.65808069,7.58846178 C7.93238647,7.3369997 8.14124322,7.04692089 8.28465093,6.71822533 C8.7799605,6.67208467 9.23248345,6.60246576 9.64221978,6.50936859 C10.7561224,6.27730554 11.3130737,5.98722672 11.3130737,5.63913215 C11.3130737,5.31424387 10.7561224,5.03576821 9.64221978,4.80370516 C9.2329367,4.70136173 8.78041375,4.62013966 8.28465093,4.56003896 C8.14242166,4.23215925 7.93356492,3.93047728 7.65808069,3.65499306 C7.40489628,3.40180864 7.12642062,3.20455505 6.82265371,3.06323228 C6.76019611,2.57118609 6.67897404,2.10705999 6.5789875,1.67085397 C6.34692445,0.603363933 6.06844879,0.0696189154 5.74356052,0.0696189154 C5.39546594,0.0696189154 5.10538713,0.603363933 4.87332408,1.67085397 Z" id="Path"></path>
                        </g>
                    </g>
                </g>
                <g id="Group" transform="translate(8.742462, 12.317731) rotate(-33.939821) translate(-8.742462, -12.317731) translate(2.742492, 6.317760)" fill="#E05848">
                    <g id="Symbol_10_0_Layer0_2_FILL-link">
                        <g id="Symbol_10_0_Layer0_2_FILL">
                            <path d="M5.9499707,3.3499835 C5.54997267,3.38331667 5.18330781,3.49998277 4.84997612,3.69998178 C4.51664443,3.8999808 4.24997907,4.14997957 4.04998006,4.44997809 C3.54998252,4.34997858 3.09998474,4.29997883 2.69998671,4.29997883 C1.59999212,4.26664566 0.999995076,4.39997833 0.899995568,4.69997686 C0.83332923,5.03330855 1.28332701,5.44997316 2.24998892,5.9499707 C2.61665378,6.11663655 3.0333184,6.29996898 3.49998277,6.49996799 C3.53331594,6.83329969 3.63331544,7.16663138 3.79998129,7.49996307 C3.9999803,7.83329476 4.26664566,8.1166267 4.59997735,8.34995889 C4.49997784,8.81662325 4.44997809,9.24995445 4.44997809,9.64995248 C4.38331175,10.8166134 4.51664443,11.433277 4.84997612,11.4999434 C5.18330781,11.5999429 5.59997243,11.1332785 6.09996996,10.0999503 C6.26663581,9.73328541 6.44996824,9.33328738 6.64996726,8.89995618 C6.98329895,8.79995667 7.29996406,8.66662399 7.59996258,8.49995815 C7.93329427,8.29995913 8.21662621,8.08329353 8.44995839,7.84996135 C8.94995593,7.88329452 9.4166203,7.93329427 9.8499515,7.99996061 C10.9832793,8.03329378 11.5832763,7.88329452 11.6499426,7.54996282 C11.7499421,7.2499643 11.2999444,6.84996627 10.2999493,6.34996873 C9.89995125,6.11663655 9.46662005,5.89997095 8.99995568,5.69997193 C8.96662252,5.36664024 8.84995642,5.03330855 8.64995741,4.69997686 C8.48329156,4.36664517 8.26662596,4.1166464 7.99996061,3.94998055 C8.06662695,3.41664984 8.1166267,2.93331889 8.14995987,2.49998769 C8.18329304,1.39999311 8.03329378,0.799996061 7.69996209,0.699996553 C7.36663039,0.633330215 6.96663236,1.083328 6.49996799,2.04998991 C6.29996898,2.41665477 6.11663655,2.84998597 5.9499707,3.3499835 Z" id="Path"></path>
                        </g>
                    </g>
                </g>
                <g id="Group" transform="translate(13.500000, 16.300000)" fill="#B17D49">
                    <g id="Symbol_10_0_Layer0_3_FILL-link">
                        <g id="Symbol_10_0_Layer0_3_FILL">
                            <path d="M5.9,8 C5.93333333,7.9 5.93333333,7.8 5.9,7.7 L4.2,4 C4.2,3.96666667 4.18333333,3.93333333 4.15,3.9 L1.45,0.8 C1.41666667,0.733333333 1.33333333,0.7 1.2,0.7 C1.1,0.666666667 1,0.683333333 0.9,0.75 L0.25,1.2 C0.183333333,1.23333333 0.133333333,1.3 0.1,1.4 C0.1,1.5 0.116666667,1.6 0.15,1.7 L1.95,5.55 C1.98333333,5.58333333 2,5.61666667 2,5.65 L4.6,8.6 C4.66666667,8.66666667 4.76666667,8.7 4.9,8.7 C5,8.73333333 5.1,8.71666667 5.2,8.65 L5.75,8.25 C5.81666667,8.18333333 5.86666667,8.1 5.9,8 Z" id="Path"></path>
                        </g>
                    </g>
                </g>
            </g>
            <g id="Group" transform="translate(180.000000, 1.700000)">
                <g transform="translate(4.000000, 17.000000)" id="Symbol_17_0_Layer0_0_FILL-link">
                    <g>
                        <g id="Symbol_17_0_Layer0_0_FILL">
                            <polygon id="Path" fill="#25A65B" points="12.85 30.55 22.45 35.1 32.05 30.55"></polygon>
                            <path d="M41.75,5.35 C41.3166667,2.38333333 39.6166667,0.9 36.65,0.9 L6.3,0.9 C3.36666667,0.9 1.66666667,2.41666667 1.2,5.45 C0.2,12.3166667 0.2,19.1833333 1.2,26.05 C1.66666667,29.05 3.36666667,30.55 6.3,30.55 L12.85,30.55 L32.05,30.55 L36.65,30.55 C39.6166667,30.55 41.3333333,29.0333333 41.8,26 C42.8333333,19.2666667 42.8166667,12.3833333 41.75,5.35 Z" id="Path" fill="#2ECC71"></path>
                        </g>
                    </g>
                </g>
                <g fill-rule="nonzero" id="Symbol_17_0_Layer0_1_FILL-link">
                    <g>
                        <g id="Symbol_17_0_Layer0_1_FILL">
                            <path d="M46.05,5.15 C44.4035156,4.71080729 42.7701823,4.36080729 41.15,4.1 C34.2807292,5.353125 27.9640625,7.703125 22.2,11.15 L19.3,8.25 L2.05,23.4 C2.5421875,25.7095052 2.60885417,27.8595052 2.25,29.85 C2.17721354,30.4121094 2.06054688,30.9621094 1.9,31.5 C0.87421875,35.0792969 1.89088542,38.0459635 4.95,40.4 L11.4,40.4 L16.55,44.8 L27,38.3 L30.8,40.3 L36.55,36.55 L43.9,47 C46.4169271,44.125 47.3002604,40.8416667 46.55,37.15 L46.2,35.7 C49.0244792,27.1083333 49.1911458,18.5083333 46.7,9.9 L44.2,9.9 L46.05,5.15 Z M43.45,24.4 L35.95,27.15 L35.35,25.85 L43.45,24.4 Z M12.7,24.75 L11.3,23.5 L16.8,17.9 L12.7,24.75 Z" id="Shape" fill="#6B747B"></path>
                            <path d="M11.3,23.5 L12.7,24.75 L16.8,17.9 L11.3,23.5 Z M43.45,24.4 L35.35,25.85 L35.95,27.15 L43.45,24.4 Z" id="Shape" fill="#79838C"></path>
                            <path d="M46.2,35.7 L46.55,37.15 C51.9268229,29.0330729 53.7601562,19.9497396 52.05,9.9 L46.7,9.9 C49.1911458,18.5083333 49.0244792,27.1083333 46.2,35.7 Z M19.3,8.25 L22.2,11.15 C27.9640625,7.703125 34.2807292,5.353125 41.15,4.1 C35.3065104,3.21484375 29.6398438,3.56484375 24.15,5.15 L27,1.25 C20.8523437,0.170052083 15.8856771,1.60338542 12.1,5.55 L8.45,9.25 L5.55,8 L0.8,19.1 C1.37122396,20.5916667 1.78789062,22.025 2.05,23.4 L19.3,8.25 Z" id="Shape" fill="#717B83"></path>
                        </g>
                    </g>
                </g>
            </g>
            <g id="Group" transform="translate(119.600000, 1.700000)">
                <g transform="translate(4.000000, 17.000000)" id="Symbol_15_0_Layer0_0_FILL-link">
                    <g>
                        <g id="Symbol_15_0_Layer0_0_FILL">
                            <polygon id="Path" fill="#25A65B" points="12.85 30.55 22.45 35.1 32.05 30.55"></polygon>
                            <path d="M41.75,5.35 C41.3166667,2.38333333 39.6166667,0.9 36.65,0.9 L6.3,0.9 C3.36666667,0.9 1.66666667,2.41666667 1.2,5.45 C0.2,12.3166667 0.2,19.1833333 1.2,26.05 C1.66666667,29.05 3.36666667,30.55 6.3,30.55 L12.85,30.55 L32.05,30.55 L36.65,30.55 C39.6166667,30.55 41.3333333,29.0333333 41.8,26 C42.8333333,19.2666667 42.8166667,12.3833333 41.75,5.35 Z" id="Path" fill="#2ECC71"></path>
                        </g>
                    </g>
                </g>
                <g transform="translate(14.000000, 27.000000)" id="Symbol_15_0_Layer0_1_FILL-link">
                    <g>
                        <g id="Symbol_15_0_Layer0_1_FILL">
                            <path d="M5.35,10.4 C6.38333333,10.4 7.23333333,10.0166667 7.9,9.25 C8.51210937,8.63789062 8.86210937,7.92122396 8.95,7.1 L1.7,7.1 C1.81015625,7.92122396 2.14348958,8.63789062 2.7,9.25 C3.43333333,10.0166667 4.31666667,10.4 5.35,10.4 Z M23.95,10.4 C24.9833333,10.4 25.8333333,10.0166667 26.5,9.25 C27.1121094,8.63789062 27.4621094,7.92122396 27.55,7.1 L20.3,7.1 C20.4101562,7.92122396 20.7434896,8.63789062 21.3,9.25 C22.0333333,10.0166667 22.9166667,10.4 23.95,10.4 Z M13.15,15.2 C14.239974,15.202474 15.2733073,15.1358073 16.25,15 L16.25,13.55 L10,12.95 C9.89361979,13.0320313 9.77695312,13.1153646 9.65,13.2 C9.41666667,13.3666667 9.28333333,13.5833333 9.25,13.85 C9.18333333,14.1166667 9.23333333,14.3666667 9.4,14.6 C9.53554687,14.8346354 9.73554687,14.9846354 10,15.05 C10.2932292,15.1458333 11.3432292,15.1958333 13.15,15.2 Z" id="Shape" fill="#FFFFFF" fill-rule="nonzero"></path>
                            <path d="M21.25,12.6 C21.1166667,12.3666667 20.9166667,12.2 20.65,12.1 C16.5901042,10.821224 13.0401042,11.1045573 10,12.95 L16.25,13.55 L16.25,15 C16.9110677,14.9136719 17.544401,14.7970052 18.15,14.65 C19.6809896,14.281901 20.5643229,14.031901 20.8,13.9 C21.0333333,13.8 21.2,13.6166667 21.3,13.35 C21.3666667,13.0833333 21.35,12.8333333 21.25,12.6 Z" id="Path" fill="#7F7058"></path>
                            <path d="M9.2,3.4 C9.46666667,3.36666667 9.7,3.25 9.9,3.05 C10.0666667,2.85 10.1333333,2.61666667 10.1,2.35 C10.0666667,2.05 9.95,1.81666667 9.75,1.65 C9.55,1.45 9.31666667,1.36666667 9.05,1.4 C6.41666667,1.63333333 3.93333333,1.5 1.6,1 C1.3,0.933333333 1.03333333,0.966666667 0.8,1.1 C0.566666667,1.23333333 0.433333333,1.45 0.4,1.75 C0.333333333,2.01666667 0.366666667,2.26666667 0.5,2.5 C0.633333333,2.73333333 0.85,2.88333333 1.15,2.95 C3.65,3.48333333 6.33333333,3.63333333 9.2,3.4 Z M28.15,1.15 C27.9166667,1.01666667 27.65,0.983333333 27.35,1.05 C25.0166667,1.55 22.5333333,1.68333333 19.9,1.45 C19.6333333,1.41666667 19.4,1.5 19.2,1.7 C19,1.86666667 18.8833333,2.1 18.85,2.4 C18.8166667,2.66666667 18.8833333,2.9 19.05,3.1 C19.25,3.3 19.4833333,3.41666667 19.75,3.45 C22.6166667,3.68333333 25.3,3.53333333 27.8,3 C28.1,2.93333333 28.3166667,2.78333333 28.45,2.55 C28.5833333,2.31666667 28.6166667,2.06666667 28.55,1.8 C28.5166667,1.5 28.3833333,1.28333333 28.15,1.15 Z" id="Shape" fill="#7E8991" fill-rule="nonzero"></path>
                        </g>
                    </g>
                </g>
                <g transform="translate(11.000000, 36.000000)" fill="#28B162" id="Symbol_15_0_Layer0_2_FILL-link">
                    <g>
                        <g id="Symbol_15_0_Layer0_2_FILL">
                            <path d="M1.4,0.5 C1.36666667,0.433333333 1.28333333,0.4 1.15,0.4 C1.05,0.366666667 0.95,0.383333333 0.85,0.45 L0.2,0.9 C0.133333333,0.933333333 0.0833333333,1 0.05,1.1 C0.05,1.2 0.0666666667,1.3 0.1,1.4 L1.9,5.25 C1.93333333,5.28333333 1.95,5.31666667 1.95,5.35 L4.55,8.3 C4.61666667,8.36666667 4.71666667,8.4 4.85,8.4 C4.95,8.43333333 5.05,8.41666667 5.15,8.35 L5.7,7.95 C5.76666667,7.88333333 5.81666667,7.8 5.85,7.7 C5.88333333,7.6 5.88333333,7.5 5.85,7.4 L4.15,3.7 C4.15,3.66666667 4.13333333,3.63333333 4.1,3.6 L1.4,0.5 Z" id="Path"></path>
                        </g>
                    </g>
                </g>
                <g id="Symbol_15_0_Layer0_3_FILL-link">
                    <g>
                        <g id="Symbol_15_0_Layer0_3_FILL">
                            <path d="M19.3,8.25 L22.2,11.15 C27.9640625,7.703125 34.2807292,5.353125 41.15,4.1 C35.3065104,3.21484375 29.6398438,3.56484375 24.15,5.15 L27,1.25 C20.8523437,0.170052083 15.8856771,1.60338542 12.1,5.55 L8.45,9.25 L5.55,8 L0.8,19.1 C1.37122396,20.5916667 1.78789062,22.025 2.05,23.4 L19.3,8.25 Z M14.35,22 L16.8,17.9 L11.3,23.5 L12.7,24.75 L14.35,22 Z M46.2,35.7 L46.55,37.15 C51.9268229,29.0330729 53.7601562,19.9497396 52.05,9.9 L46.7,9.9 C49.1911458,18.5083333 49.0244792,27.1083333 46.2,35.7 Z M35.95,27.15 L43.45,24.4 L35.35,25.85 L35.95,27.15 Z" id="Shape" fill="#717B83" fill-rule="nonzero"></path>
                            <polygon id="Path" fill-opacity="0.101960784" fill="#000000" points="28.7 24.85 27 20.15 16.8 17.9 14.35 22"></polygon>
                            <path d="M46.05,5.15 C44.4035156,4.71080729 42.7701823,4.36080729 41.15,4.1 C34.2807292,5.353125 27.9640625,7.703125 22.2,11.15 L19.3,8.25 L2.05,23.4 C2.67695313,26.3640625 2.62695312,29.0640625 1.9,31.5 C0.87421875,35.0792969 2.09088542,38.2959635 5.55,41.15 L10.3,33.15 L8.2,26.65 L11.3,23.5 L16.8,17.9 L27,20.15 L28.7,24.85 L29.45,26.9 L35.35,25.85 L43.45,24.4 L46.2,35.7 C49.0244792,27.1083333 49.1911458,18.5083333 46.7,9.9 L44.2,9.9 L46.05,5.15 Z" id="Path" fill="#6B747B"></path>
                        </g>
                    </g>
                </g>
            </g>
            <g id="Group" transform="translate(59.600000, 1.650000)">
                <g transform="translate(4.000000, 17.000000)" id="Symbol_16_0_Layer0_0_FILL-link">
                    <g>
                        <g id="Symbol_16_0_Layer0_0_FILL">
                            <polygon id="Path" fill="#25A65B" points="12.85 30.55 22.45 35.1 32.05 30.55"></polygon>
                            <path d="M41.75,5.35 C41.3166667,2.38333333 39.6166667,0.9 36.65,0.9 L6.3,0.9 C3.36666667,0.9 1.66666667,2.41666667 1.2,5.45 C0.2,12.3166667 0.2,19.1833333 1.2,26.05 C1.66666667,29.05 3.36666667,30.55 6.3,30.55 L12.85,30.55 L32.05,30.55 L36.65,30.55 C39.6166667,30.55 41.3333333,29.0333333 41.8,26 C42.8333333,19.2666667 42.8166667,12.3833333 41.75,5.35 Z" id="Path" fill="#2ECC71"></path>
                        </g>
                    </g>
                </g>
                <g transform="translate(14.000000, 26.000000)" id="Symbol_16_0_Layer0_1_FILL-link">
                    <g>
                        <g id="Symbol_16_0_Layer0_1_FILL">
                            <path d="M5.35,11.4 C6.38333333,11.4 7.23333333,11.0166667 7.9,10.25 C8.51210937,9.63789062 8.86210937,8.92122396 8.95,8.1 L1.7,8.1 C1.81015625,8.92122396 2.14348958,9.63789062 2.7,10.25 C3.43333333,11.0166667 4.31666667,11.4 5.35,11.4 Z M23.95,11.4 C24.9833333,11.4 25.8333333,11.0166667 26.5,10.25 C27.1121094,9.63789062 27.4621094,8.92122396 27.55,8.1 L20.3,8.1 C20.4101562,8.92122396 20.7434896,9.63789062 21.3,10.25 C22.0333333,11.0166667 22.9166667,11.4 23.95,11.4 Z M16.9,14.9 L16.4,13 L10.2,14.4 C9.96666667,15.0333333 9.85,15.7 9.85,16.4 C9.85,16.5333333 9.85,16.6666667 9.85,16.8 L16.9,14.9 Z" id="Shape" fill="#FFFFFF" fill-rule="nonzero"></path>
                            <path d="M19.15,12.45 C18.0833333,11.35 16.8,10.8 15.3,10.8 C13.8,10.8 12.5166667,11.35 11.45,12.45 C10.8833333,13.0166667 10.4666667,13.6666667 10.2,14.4 L16.4,13 L16.9,14.9 L20.2,13.95 C19.9333333,13.4166667 19.5833333,12.9166667 19.15,12.45 Z" id="Path" fill="#7F7058"></path>
                            <path d="M28.75,3.3 C28.55,3.06666667 28.3,2.93333333 28,2.9 C25.6333333,2.56666667 23.2666667,1.81666667 20.9,0.65 C20.6666667,0.516666667 20.4166667,0.516666667 20.15,0.65 C19.9166667,0.75 19.7333333,0.933333333 19.6,1.2 C19.4666667,1.46666667 19.4333333,1.7 19.5,1.9 C19.6333333,2.16666667 19.8166667,2.36666667 20.05,2.5 C22.65,3.7 25.2166667,4.48333333 27.75,4.85 C28.0833333,4.95 28.35,4.9 28.55,4.7 C28.7166667,4.5 28.8166667,4.28333333 28.85,4.05 C28.9166667,3.75 28.8833333,3.5 28.75,3.3 Z M9.4,2.3 C9.63333333,2.16666667 9.78333333,1.98333333 9.85,1.75 C9.95,1.48333333 9.93333333,1.25 9.8,1.05 C9.66666667,0.75 9.48333333,0.566666667 9.25,0.5 C8.98333333,0.4 8.73333333,0.416666667 8.5,0.55 C6.13333333,1.71666667 3.78333333,2.51666667 1.45,2.95 C1.11666667,3.01666667 0.883333333,3.13333333 0.75,3.3 C0.55,3.53333333 0.5,3.78333333 0.6,4.05 C0.633333333,4.35 0.75,4.56666667 0.95,4.7 C1.18333333,4.9 1.45,4.98333333 1.75,4.95 C4.25,4.51666667 6.8,3.63333333 9.4,2.3 Z" id="Shape" fill="#7E8991" fill-rule="nonzero"></path>
                        </g>
                    </g>
                </g>
                <g transform="translate(11.000000, 36.000000)" fill="#28B162" id="Symbol_16_0_Layer0_2_FILL-link">
                    <g>
                        <g id="Symbol_16_0_Layer0_2_FILL">
                            <path d="M1.4,0.5 C1.36666667,0.433333333 1.28333333,0.4 1.15,0.4 C1.05,0.366666667 0.95,0.383333333 0.85,0.45 L0.2,0.9 C0.133333333,0.933333333 0.0833333333,1 0.05,1.1 C0.05,1.2 0.0666666667,1.3 0.1,1.4 L1.9,5.25 C1.93333333,5.28333333 1.95,5.31666667 1.95,5.35 L4.55,8.3 C4.61666667,8.36666667 4.71666667,8.4 4.85,8.4 C4.95,8.43333333 5.05,8.41666667 5.15,8.35 L5.7,7.95 C5.76666667,7.88333333 5.81666667,7.8 5.85,7.7 C5.88333333,7.6 5.88333333,7.5 5.85,7.4 L4.15,3.7 C4.15,3.66666667 4.13333333,3.63333333 4.1,3.6 L1.4,0.5 Z" id="Path"></path>
                        </g>
                    </g>
                </g>
                <g id="Symbol_16_0_Layer0_3_FILL-link">
                    <g>
                        <g id="Symbol_16_0_Layer0_3_FILL">
                            <path d="M19.3,8.25 L22.2,11.15 C27.9640625,7.703125 34.2807292,5.353125 41.15,4.1 C35.3065104,3.21484375 29.6398438,3.56484375 24.15,5.15 L27,1.25 C20.8523437,0.170052083 15.8856771,1.60338542 12.1,5.55 L8.45,9.25 L5.55,8 L0.8,19.1 C1.37122396,20.5916667 1.78789062,22.025 2.05,23.4 L19.3,8.25 Z M14.35,22 L16.8,17.9 L11.3,23.5 L12.7,24.75 L14.35,22 Z M46.2,35.7 L46.55,37.15 C51.9268229,29.0330729 53.7601562,19.9497396 52.05,9.9 L46.7,9.9 C49.1911458,18.5083333 49.0244792,27.1083333 46.2,35.7 Z M35.95,27.15 L43.45,24.4 L35.35,25.85 L35.95,27.15 Z" id="Shape" fill="#717B83" fill-rule="nonzero"></path>
                            <polygon id="Path" fill-opacity="0.101960784" fill="#000000" points="28.7 24.85 27 20.15 16.8 17.9 14.35 22"></polygon>
                            <path d="M46.05,5.15 C44.4035156,4.71080729 42.7701823,4.36080729 41.15,4.1 C34.2807292,5.353125 27.9640625,7.703125 22.2,11.15 L19.3,8.25 L2.05,23.4 C2.67695313,26.3640625 2.62695312,29.0640625 1.9,31.5 C0.87421875,35.0792969 2.09088542,38.2959635 5.55,41.15 L10.3,33.15 L8.2,26.65 L11.3,23.5 L16.8,17.9 L27,20.15 L28.7,24.85 L29.45,26.9 L35.35,25.85 L43.45,24.4 L46.2,35.7 C49.0244792,27.1083333 49.1911458,18.5083333 46.7,9.9 L44.2,9.9 L46.05,5.15 Z" id="Path" fill="#6B747B"></path>
                        </g>
                    </g>
                </g>
            </g>
            <g id="head_FL_FL_FL_FL_FL_FL_FL_FL_FL" transform="translate(0.400000, 0.250000)">
                <g id="Group" transform="translate(4.000000, 17.000000)">
                    <g id="Symbol_12_0_Layer0_0_FILL-link">
                        <g id="Symbol_12_0_Layer0_0_FILL">
                            <polygon id="Path" fill="#25A65B" points="12.85 30.55 22.45 35.1 32.05 30.55"></polygon>
                            <path d="M41.75,5.35 C41.3166667,2.38333333 39.6166667,0.9 36.65,0.9 L6.3,0.9 C3.36666667,0.9 1.66666667,2.41666667 1.2,5.45 C0.2,12.3166667 0.2,19.1833333 1.2,26.05 C1.66666667,29.05 3.36666667,30.55 6.3,30.55 L12.85,30.55 L32.05,30.55 L36.65,30.55 C39.6166667,30.55 41.3333333,29.0333333 41.8,26 C42.8333333,19.2666667 42.8166667,12.3833333 41.75,5.35 Z" id="Path" fill="#2ECC71"></path>
                        </g>
                    </g>
                </g>
                <g id="Group" transform="translate(14.000000, 27.000000)" fill-rule="nonzero">
                    <g id="Symbol_12_0_Layer0_1_FILL-link">
                        <g id="Symbol_12_0_Layer0_1_FILL">
                            <path d="M5.35,10.4 C6.38333333,10.4 7.23333333,10.0166667 7.9,9.25 C8.51210937,8.63789062 8.86210937,7.92122396 8.95,7.1 L1.7,7.1 C1.81015625,7.92122396 2.14348958,8.63789062 2.7,9.25 C3.43333333,10.0166667 4.31666667,10.4 5.35,10.4 Z M23.95,10.4 C24.9833333,10.4 25.8333333,10.0166667 26.5,9.25 C27.1121094,8.63789062 27.4621094,7.92122396 27.55,7.1 L20.3,7.1 C20.4101562,7.92122396 20.7434896,8.63789062 21.3,9.25 C22.0333333,10.0166667 22.9166667,10.4 23.95,10.4 Z" id="Shape" fill="#FFFFFF"></path>
                            <path d="M10.1,2.35 C10.0666667,2.05 9.95,1.81666667 9.75,1.65 C9.55,1.45 9.31666667,1.36666667 9.05,1.4 C6.41666667,1.63333333 3.93333333,1.5 1.6,1 C1.3,0.933333333 1.03333333,0.966666667 0.8,1.1 C0.566666667,1.23333333 0.433333333,1.45 0.4,1.75 C0.333333333,2.01666667 0.366666667,2.26666667 0.5,2.5 C0.633333333,2.73333333 0.85,2.88333333 1.15,2.95 C3.65,3.48333333 6.33333333,3.63333333 9.2,3.4 C9.46666667,3.36666667 9.7,3.25 9.9,3.05 C10.0666667,2.85 10.1333333,2.61666667 10.1,2.35 Z M28.15,1.15 C27.9166667,1.01666667 27.65,0.983333333 27.35,1.05 C25.0166667,1.55 22.5333333,1.68333333 19.9,1.45 C19.6333333,1.41666667 19.4,1.5 19.2,1.7 C19,1.86666667 18.8833333,2.1 18.85,2.4 C18.8166667,2.66666667 18.8833333,2.9 19.05,3.1 C19.25,3.3 19.4833333,3.41666667 19.75,3.45 C22.6166667,3.68333333 25.3,3.53333333 27.8,3 C28.1,2.93333333 28.3166667,2.78333333 28.45,2.55 C28.5833333,2.31666667 28.6166667,2.06666667 28.55,1.8 C28.5166667,1.5 28.3833333,1.28333333 28.15,1.15 Z" id="Shape" fill="#7E8991"></path>
                        </g>
                    </g>
                </g>
                <g id="Group" transform="translate(21.400000, 38.300000)">
                    <g id="Symbol_12_0_Layer0_1_MEMBER_0_FILL-link">
                        <g id="Symbol_12_0_Layer0_1_MEMBER_0_FILL">
                            <path d="M12.85,1.8 C12.9166667,1.53333333 12.9,1.26666667 12.8,1 L9.95,3 L12.1,5.55 L12.1,5.5 C12.3,5.3 12.4166667,5.05 12.45,4.75 L12.85,1.8 Z" id="Path" fill="#7F7058"></path>
                            <path d="M1,1.4 C0.733333333,1.66666667 0.6,1.98333333 0.6,2.35 C0.566666667,2.71666667 0.65,3.05 0.85,3.35 C1.08333333,3.65 1.38333333,3.85 1.75,3.95 L10.6,6 C10.8666667,6.06666667 11.1333333,6.06666667 11.4,6 C11.6666667,5.9 11.9,5.75 12.1,5.55 L9.95,3 L12.8,1 C12.7666667,0.966666667 12.75,0.933333333 12.75,0.9 C12.6166667,0.6 12.4,0.383333333 12.1,0.25 C11.8333333,0.0833333333 11.55,0.0166666667 11.25,0.05 L1.95,0.95 C1.55,0.983333333 1.23333333,1.13333333 1,1.4 Z" id="Path" fill="#FFFFFF"></path>
                        </g>
                    </g>
                </g>
                <g id="Group" transform="translate(10.780777, 36.295078)" fill="#28B162">
                    <g id="Symbol_12_0_Layer0_2_FILL-link">
                        <g id="Symbol_12_0_Layer0_2_FILL">
                            <path d="M0.276191711,0.800955963 C0.257778931,0.911432648 0.266985321,1.01270294 0.303810883,1.10476685 L2.12667618,4.94383163 C2.14508896,4.9806572 2.16350174,5.01748276 2.18191452,5.05430832 L4.77811661,7.98194046 C4.85176773,8.07400436 4.94383163,8.12003632 5.05430832,8.12003632 C5.164785,8.1384491 5.2660553,8.12003632 5.3581192,8.06479797 L5.91050262,7.65051041 C5.98415375,7.59527206 6.03939209,7.52162094 6.07621765,7.42955704 C6.09463043,7.31908035 6.08542404,7.21781006 6.04859848,7.12574615 L4.39144821,3.39715805 C4.37303543,3.37874527 4.35462265,3.3511261 4.33620987,3.31430054 L1.6295311,0.220953369 C1.57429276,0.147302246 1.49143524,0.101270294 1.38095856,0.0828575134 C1.27048187,0.0644447327 1.16921158,0.0828575134 1.07714767,0.138095856 L0.441906738,0.580002594 C0.368255615,0.635240936 0.313017273,0.708892059 0.276191711,0.800955963 Z" id="Path"></path>
                        </g>
                    </g>
                </g>
                <g id="Group">
                    <g id="Symbol_12_0_Layer0_3_FILL-link">
                        <g id="Symbol_12_0_Layer0_3_FILL">
                            <path d="M14.35,22 L16.8,17.9 L11.3,23.5 L12.7,24.75 L14.35,22 Z M43.45,24.4 L35.35,25.85 L35.95,27.15 L43.45,24.4 Z M46.2,35.7 L46.55,37.15 C51.9268229,29.0330729 53.7601562,19.9497396 52.05,9.9 L46.7,9.9 C49.1911458,18.5083333 49.0244792,27.1083333 46.2,35.7 Z M19.3,8.25 L22.2,11.15 C27.9640625,7.703125 34.2807292,5.353125 41.15,4.1 C35.3065104,3.21484375 29.6398438,3.56484375 24.15,5.15 L27,1.25 C20.8523437,0.170052083 15.8856771,1.60338542 12.1,5.55 L8.45,9.25 L5.55,8 L0.8,19.1 C1.37122396,20.5916667 1.78789062,22.025 2.05,23.4 L19.3,8.25 Z" id="Shape" fill="#717B83" fill-rule="nonzero"></path>
                            <polygon id="Path" fill-opacity="0.101960784" fill="#000000" points="28.7 24.85 27 20.15 16.8 17.9 14.35 22"></polygon>
                            <path d="M46.7,9.9 L44.2,9.9 L46.05,5.15 C44.4035156,4.71080729 42.7701823,4.36080729 41.15,4.1 C34.2807292,5.353125 27.9640625,7.703125 22.2,11.15 L19.3,8.25 L2.05,23.4 C2.67695313,26.3640625 2.62695312,29.0640625 1.9,31.5 C0.87421875,35.0792969 2.09088542,38.2959635 5.55,41.15 L10.3,33.15 L8.2,26.65 L11.3,23.5 L16.8,17.9 L27,20.15 L28.7,24.85 L29.45,26.9 L35.35,25.85 L43.45,24.4 L46.2,35.7 C49.0244792,27.1083333 49.1911458,18.5083333 46.7,9.9 Z" id="Path" fill="#6B747B"></path>
                        </g>
                    </g>
                </g>
            </g>
        </g>
    </g>
</svg>